{
.appVersion = "3418";
classes = (
{
code = "maiHanaKat-thai maitaikhu-thai saraI-thai saraIi-thai saraUe-thai saraUee-thai nikhahit-thai yamakkan-thai nikhahit_maiEk-thai nikhahit_maiTho-thai nikhahit_maiTri-thai nikhahit_maiChattawa-thai\012";
name = thai_marks;
},
{
code = "maiHanaKat-thai.narrow maitaikhu-thai.narrow saraI-thai.narrow saraIi-thai.narrow saraUe-thai.narrow saraUee-thai.narrow nikhahit-thai.narrow yamakkan-thai nikhahit_maiEk-thai.narrow nikhahit_maiTho-thai.narrow nikhahit_maiTri-thai.narrow nikhahit_maiChattawa-thai.narrow\012";
name = thai_narrowmarks;
},
{
code = "maiEk-thai maiTho-thai maiTri-thai maiChattawa-thai thanthakhat-thai \012";
name = thai_vowels;
},
{
code = "maiEk-thai.narrow maiTho-thai.narrow maiTri-thai.narrow maiChattawa-thai.narrow thanthakhat-thai.narrow \012";
name = thai_narrowvowels;
},
{
code = "maiEk-thai.small maiTho-thai.small maiTri-thai.small maiChattawa-thai.small thanthakhat-thai.small\012";
name = thai_smallvowels;
},
{
code = "phinthu-thai saraU-thai saraUu-thai";
name = thai_bottommarks;
},
{
code = "phinthu-thai.small saraU-thai.small saraUu-thai.small";
name = thai_smallbottommarks;
}
);
copyright = "Copyright 2025 The Plaimanas07 Project Authors (https://github.com/cadsondemak/Plaimanas07)";
customParameters = (
{
name = glyphOrder;
value = (
A,
B,
C,
D,
E,
F,
G,
H,
I,
J,
K,
L,
M,
N,
O,
P,
Q,
R,
S,
T,
U,
V,
W,
X,
Y,
Z,
a,
b,
c,
d,
e,
f,
g,
h,
i,
j,
k,
l,
m,
n,
o,
p,
q,
r,
s,
t,
u,
v,
w,
x,
y,
z
);
},
{
name = fsType;
value = (
);
},
{
name = unicodeRanges;
value = (
0,
1,
24
);
},
{
name = "Family Alignment Zones";
value = (
"{800, 8}",
"{700, 8}",
"{560, 8}",
"{500, 8}",
"{0, -8}",
"{-200, -8}"
);
},
{
name = "Enforce Compatibility Check";
value = 1;
},
{
name = "MakeOTF Compatibility Mode";
value = 1;
},
{
name = "Use Typo Metrics";
value = 1;
},
{
name = blueScale;
value = 0.12496;
},
{
name = description;

glyphs = (
{
glyphname = A;
lastChange = "2025-04-05 11:24:18 +0000";
layers = (
{
anchors = (
{
name = bottom;
position = "{139, 0}";
},
{
name = ogonek;
position = "{332, 0}";
},
{
name = top;
position = "{322, 700}";
}
);
background = {
anchors = (
{
name = bottom;
position = "{139, 0}";
},
{
name = ogonek;
position = "{332, 0}";
},
{
name = top;
position = "{322, 700}";
}
);
hints = (
{
scale = "{1, -1}";
type = Corner;
name = _corner.leftSerif;
options = 1;
},
{
type = Corner;
name = _corner.leftSerif;
},
{
scale = "{1, -1}";
type = Corner;
name = _corner.rightSerif;
options = 1;
},
{
type = Corner;
name = _corner.rightSerif;
},
{
type = Corner;
name = _corner.leftSerif;
},
{
scale = "{1, -1}";
type = Corner;
name = _corner.rightSerif;
options = 1;
},
{
type = Corner;
name = _corner.rightSerif;
},
{
type = Corner;
name = _corner.leftSerif;
},
{
scale = "{1, -1}";
type = Corner;
name = _corner.rightSerif;
options = 1;
},
{
type = Corner;
name = _corner.leftSerif;
},
{
scale = "{1, -1}";
type = Corner;
name = _corner.rightSerif;
options = 1;
}
);
paths = (
{
closed = 1;
nodes = (
"381 0 LINE",
"382 3 LINE",
"338 7 OFFCURVE",
"313 15 OFFCURVE",
"317 73 CURVE SMOOTH",
"355 700 LINE",
"238 700 LINE",
"237 697 LINE",
"297 691 OFFCURVE",
"306 668 OFFCURVE",
"303 619 CURVE SMOOTH",
"266 85 LINE SMOOTH",
"262 21 OFFCURVE",
"241 8 OFFCURVE",
"187 3 CURVE",
"186 0 LINE"
);
},
{
closed = 1;
nodes = (
"76 0 LINE",
"77 3 LINE",
"11 6 OFFCURVE",
"0 19 OFFCURVE",
"27 72 CURVE SMOOTH",
"332 669 LINE",
"317 669 LINE",
"9 69 LINE SMOOTH",
"-15 22 OFFCURVE",
"-47 8 OFFCURVE",
"-101 3 CURVE",
"-102 0 LINE"
);
},
{
closed = 1;
nodes = (
"310 246 LINE",
"310 258 LINE",
"110 258 LINE",
"110 246 LINE"
);
}
);
};
layerId = "800CF2A0-134E-4EC9-907D-CE3650520B0A";
paths = (
{
closed = 1;
nodes = (
"381 0 LINE",
"382 3 LINE",
"338 7 OFFCURVE",
"313 15 OFFCURVE",
"317 73 CURVE SMOOTH",
"355 700 LINE",
"238 700 LINE",
"237 697 LINE",
"297 691 OFFCURVE",
"306 668 OFFCURVE",
"303 619 CURVE SMOOTH",
"266 85 LINE SMOOTH",
"262 21 OFFCURVE",
"241 8 OFFCURVE",
"187 3 CURVE",
"186 0 LINE"
);
},
{
closed = 1;
nodes = (
"76 0 LINE",
"77 3 LINE",
"11 6 OFFCURVE",
"0 19 OFFCURVE",
"27 72 CURVE SMOOTH",
"332 669 LINE",
"317 669 LINE",
"9 69 LINE SMOOTH",
"-15 22 OFFCURVE",
"-47 8 OFFCURVE",
"-101 3 CURVE",
"-102 0 LINE"
);
},
{
closed = 1;
nodes = (
"310 246 LINE",
"310 258 LINE",
"110 258 LINE",
"110 246 LINE"
);
}
);
width = 414;
}
);
leftKerningGroup = A;
rightKerningGroup = A;
unicode = 0041;
},
{
glyphname = B;
lastChange = "2025-04-05 11:24:18 +0000";
layers = (
{
background = {
hints = (
{
scale = "{1, -1}";
type = Corner;
name = _corner.rightSerif;
options = 1;
},
{
type = Corner;
name = _corner.leftSerif;
},
{
scale = "{1, -1}";
type = Corner;
name = _corner.rightSerif;
options = 1;
},
{
type = Corner;
name = _corner.leftSerif;
},
{
scale = "{1, -1}";
type = Corner;
name = _corner.rightSerif;
options = 1;
},
{
type = Corner;
name = _corner.leftSerif;
},
{
scale = "{1, -1}";
type = Corner;
name = _corner.rightSerif;
options = 1;
},
{
type = Corner;
name = _corner.leftSerif;
},
{
scale = "{1, -1}";
type = Corner;
name = _corner.rightSerif;
options = 1;
},
{
type = Corner;
name = _corner.leftSerif;
},
{
scale = "{1, -1}";
type = Corner;
name = _corner.rightSerif;
options = 1;
},
{
type = Corner;
name = _corner.leftSerif;
},
{
scale = "{1, -1}";
type = Corner;
name = _corner.rightSerif;
options = 1;
},
{
type = Corner;
name = _corner.leftSerif;
},
{
scale = "{1, -1}";
type = Corner;
name = _corner.rightSerif;
options = 1;
},
{
type = Corner;
name = _corner.leftSerif;
},
{
scale = "{1, -1}";
type = Corner;
name = _corner.rightSerif;
options = 1;
},
{
type = Corner;
name = _corner.leftSerif;
},
{
scale = "{1, -1}";
type = Corner;
name = _corner.rightSerif;
options = 1;
},
{
type = Corner;
name = _corner.leftSerif;
},
{
scale = "{1, -1}";
type = Corner;
name = _corner.rightSerif;
options = 1;
},
{
type = Corner;
name = _corner.leftSerif;
},
{
scale = "{1, -1}";
type = Corner;
name = _corner.rightSerif;
options = 1;
},
{
type = Corner;
name = _corner.leftSerif;
},
{
scale = "{1, -1}";
type = Corner;
name = _corner.rightSerif;
options = 1;
},
{
type = Corner;
name = _corner.leftSerif;
},
{
scale = "{1, -1}";
type = Corner;
name = _corner.rightSerif;
options = 1;
},
{
type = Corner;
name = _corner.leftSerif;
},
{
scale = "{1, -1}";
type = Corner;
name = _corner.rightSerif;
options = 1;
},
{
type = Corner;
name = _corner.leftSerif;
},
{
scale = "{1, -1}";
type = Corner;
name = _corner.rightSerif;
options = 1;
},
{
type = Corner;
name = _corner.leftSerif;
},
{
scale = "{1, -1}";
type = Corner;
name = _corner.rightSerif;
options = 1;
},
{
type = Corner;
name = _corner.leftSerif;
},
{
scale = "{1, -1}";
type = Corner;
name = _corner.rightSerif;
options = 1;
},
{
type = Corner;
name = _corner.leftSerif;
},
{
scale = "{1, -1}";
type = Corner;
name = _corner.rightSerif;
options = 1;
},
{
type = Corner;
name = _corner.leftSerif;
},
{
scale = "{1, -1}";
type = Corner;
name = _corner.rightSerif;
options = 1;
},
{
type = Corner;
name = _corner.leftSerif;
},
{
scale = "{1, -1}";
type = Corner;
name = _corner.rightSerif;
options = 1;
},
{
type = Corner;
name = _corner.leftSerif;
},
{
scale = "{1, -1}";
type = Corner;
name = _corner.rightSerif;
options = 1;
},
{
type = Corner;
name = _corner.leftSerif;
},
{
scale = "{1, -1}";
type = Corner;
name = _corner.rightSerif;
options = 1;
},
{
type = Corner;
name = _corner.leftSerif;
},
{
scale = "{1, -1}";
type = Corner;
name = _corner.rightSerif;
options = 1;
},
{
type = Corner;
name = _corner.leftSerif;
},
{
scale = "{1, -1}";
type = Corner;
name = _corner.leftSerif;
options = 1;
},
{
type = Corner;
name = _corner.leftSerif;
},
{
scale = "{1, -1}";
type = Corner;
name = _corner.leftSerif;
options = 1;
},
{
type = Corner;
name = _corner.leftSerif;
},
{
scale = "{1, -1}";
type = Corner;
name = _corner.leftSerif;
options = 1;
},
{
type = Corner;
name = _corner.leftSerif;
},
{
scale = "{1, -1}";
type = Corner;
name = _corner.leftSerif;
options = 1;
},
{
type = Corner;
name = _corner.leftSerif;
},
{
scale = "{1, -1}";
type = Corner;
name = _corner.leftSerif;
options = 1;
},
{
type = Corner;
name = _corner.leftSerif;
},
{
scale = "{1, -1}";
type = Corner;
name = _corner.leftSerif;
options = 1;
},
{
type = Corner;
name = _corner.leftSerif;
},
{
scale = "{1, -1}";
type = Corner;
name = _corner.leftSerif;
options = 1;
},
{
type = Corner;
name = _corner.leftSerif;
},
{
scale = "{1, -1}";
type = Corner;
name = _corner.leftSerif;
options = 1;
},
{
type = Corner;
name = _corner.leftSerif;
},
{
scale = "{1, -1}";
type = Corner;
name = _corner.leftSerif;
options = 1;
},
{
type = Corner;
name = _corner.leftSerif;
},
{
scale = "{1, -1}";
type = Corner;
name = _corner.leftSerif;
options = 1;
},
{
type = Corner;
name = _corner.leftSerif;
},
{
scale = "{1, -1}";
type = Corner;
name = _corner.leftSerif;
options = 1;
},
{
type = Corner;
name = _corner.leftSerif;
},
{
scale = "{1, -1}";
type = Corner;
name = _corner.leftSerif;
options = 1;
},
{
type = Corner;
name = _corner.leftSerif;
},
{
scale = "{1, -1}";
type = Corner;
name = _corner.leftSerif;
options = 1;
},
{
type = Corner;
name = _corner.leftSerif;
},
{
scale = "{1, -1}";
type = Corner;
name = _corner.leftSerif;
options = 1;
},
{
type = Corner;
name = _corner.leftSerif;
},
{
scale = "{1, -1}";
type = Corner;
name = _corner.leftSerif;
options = 1;
},
{
type = Corner;
name = _corner.leftSerif;
},
{
scale = "{1, -1}";
type = Corner;
name = _corner.leftSerif;
options = 1;
},
{
type = Corner;
name = _corner.leftSerif;
},
{
scale = "{1, -1}";
type = Corner;
name = _corner.leftSerif;
options = 1;
},
{
type = Corner;
name = _corner.leftSerif;
},
{
scale = "{1, -1}";
type = Corner;
name = _corner.leftSerif;
options = 1;
},
{
type = Corner;
name = _corner.leftSerif;
}
);
paths = (
{
closed = 1;
nodes = (
"140 0 LINE SMOOTH",
"277 0 OFFCURVE",
"373 121 OFFCURVE",
"373 239 CURVE SMOOTH",
"373 315 OFFCURVE",
"333 364 OFFCURVE",
"260 371 CURVE",
"260 370 LINE",
"376 383 OFFCURVE",
"451 497 OFFCURVE",
"451 587 CURVE SMOOTH",
"451 657 OFFCURVE",
"406 700 OFFCURVE",
"328 700 CURVE SMOOTH",
"137 700 LINE",
"136 697 LINE",
"192 693 OFFCURVE",
"208 675 OFFCURVE",
"187 603 CURVE SMOOTH",
"41 93 LINE SMOOTH",
"23 31 OFFCURVE",
"2 9 OFFCURVE",
"-58 3 CURVE",
"-59 0 LINE"
);
},
{
closed = 1;
nodes = (
"79 12 OFFCURVE",
"79 49 OFFCURVE",
"87 73 CURVE SMOOTH",
"163 339 LINE SMOOTH",
"168 357 OFFCURVE",
"176 363 OFFCURVE",
"192 363 CURVE SMOOTH",
"236 363 LINE SMOOTH",
"291 363 OFFCURVE",
"322 322 OFFCURVE",
"322 256 CURVE SMOOTH",
"322 164 OFFCURVE",
"263 12 OFFCURVE",
"142 12 CURVE SMOOTH",
"117 12 LINE SMOOTH"
);
},
{
closed = 1;
nodes = (
"178 375 OFFCURVE",
"176 383 OFFCURVE",
"179 393 CURVE SMOOTH",
"247 632 LINE SMOOTH",
"259 674 OFFCURVE",
"272 688 OFFCURVE",
"308 688 CURVE SMOOTH",
"324 688 LINE SMOOTH",
"371 688 OFFCURVE",
"401 655 OFFCURVE",
"401 597 CURVE SMOOTH",
"401 520 OFFCURVE",
"345 375 OFFCURVE",
"230 375 CURVE SMOOTH",
"194 375 LINE SMOOTH"
);
}
);
};
layerId = "800CF2A0-134E-4EC9-907D-CE3650520B0A";
paths = (
{
closed = 1;
nodes = (
"140 0 LINE SMOOTH",
"277 0 OFFCURVE",
"373 121 OFFCURVE",
"373 239 CURVE SMOOTH",
"373 315 OFFCURVE",
"333 364 OFFCURVE",
"260 371 CURVE",
"260 370 LINE",
"376 383 OFFCURVE",
"451 497 OFFCURVE",
"451 587 CURVE SMOOTH",
"451 657 OFFCURVE",
"406 700 OFFCURVE",
"328 700 CURVE SMOOTH",
"137 700 LINE",
"136 697 LINE",
"192 693 OFFCURVE",
"208 675 OFFCURVE",
"187 603 CURVE SMOOTH",
"41 93 LINE SMOOTH",
"23 31 OFFCURVE",
"2 9 OFFCURVE",
"-58 3 CURVE",
"-59 0 LINE"
);
},
{
closed = 1;
nodes = (
"79 12 OFFCURVE",
"79 49 OFFCURVE",
"87 73 CURVE SMOOTH",
"163 339 LINE SMOOTH",
"168 357 OFFCURVE",
"176 363 OFFCURVE",
"192 363 CURVE SMOOTH",
"236 363 LINE SMOOTH",
"291 363 OFFCURVE",
"322 322 OFFCURVE",
"322 256 CURVE SMOOTH",
"322 164 OFFCURVE",
"263 12 OFFCURVE",
"142 12 CURVE SMOOTH",
"117 12 LINE SMOOTH"
);
},
{
closed = 1;
nodes = (
"178 375 OFFCURVE",
"176 383 OFFCURVE",
"179 393 CURVE SMOOTH",
"247 632 LINE SMOOTH",
"259 674 OFFCURVE",
"272 688 OFFCURVE",
"308 688 CURVE SMOOTH",
"324 688 LINE SMOOTH",
"371 688 OFFCURVE",
"401 655 OFFCURVE",
"401 597 CURVE SMOOTH",
"401 520 OFFCURVE",
"345 375 OFFCURVE",
"230 375 CURVE SMOOTH",
"194 375 LINE SMOOTH"
);
}
);
width = 408;
}
);
leftKerningGroup = H;
rightKerningGroup = B;
unicode = 0042;
},
{
glyphname = C;
lastChange = "2025-04-05 11:24:18 +0000";
layers = (
{
anchors = (
{
name = bottom;
position = "{164, 0}";
},
{
name = top;
position = "{339, 700}";
}
);
background = {
anchors = (
{
name = bottom;
position = "{164, 0}";
},
{
name = top;
position = "{339, 700}";
}
);
hints = (
{
type = Corner;
name = _corner.leftSerif;
},
{
scale = "{1, -1}";
type = Corner;
name = _corner.rightSerif;
options = 1;
}
);
paths = (
{
closed = 1;
nodes = (
"266 -13 LINE",
"362 249 LINE",
"359 249 LINE",
"275 74 OFFCURVE",
"216 4 OFFCURVE",
"172 4 CURVE SMOOTH",
"130 4 OFFCURVE",
"103 61 OFFCURVE",
"103 140 CURVE SMOOTH",
"103 301 OFFCURVE",
"209 696 OFFCURVE",
"349 696 CURVE SMOOTH",
"402 696 OFFCURVE",
"418 637 OFFCURVE",
"418 467 CURVE",
"421 467 LINE",
"449 715 LINE",
"446 715 LINE",
"437 696 OFFCURVE",
"427 690 OFFCURVE",
"414 690 CURVE SMOOTH",
"396 690 OFFCURVE",
"377 708 OFFCURVE",
"343 708 CURVE SMOOTH",
"175 708 OFFCURVE",
"52 373 OFFCURVE",
"52 174 CURVE SMOOTH",
"52 62 OFFCURVE",
"96 -8 OFFCURVE",
"165 -8 CURVE SMOOTH",
"203 -8 OFFCURVE",
"226 15 OFFCURVE",
"245 15 CURVE SMOOTH",
"259 15 OFFCURVE",
"262 6 OFFCURVE",
"263 -13 CURVE"
);
}
);
};
layerId = "800CF2A0-134E-4EC9-907D-CE3650520B0A";
paths = (
{
closed = 1;
nodes = (
"266 -13 LINE",
"362 249 LINE",
"359 249 LINE",
"275 74 OFFCURVE",
"216 4 OFFCURVE",
"172 4 CURVE SMOOTH",
"130 4 OFFCURVE",
"103 61 OFFCURVE",
"103 140 CURVE SMOOTH",
"103 301 OFFCURVE",
"209 696 OFFCURVE",
"349 696 CURVE SMOOTH",
"402 696 OFFCURVE",
"418 637 OFFCURVE",
"418 467 CURVE",
"421 467 LINE",
"449 715 LINE",
"446 715 LINE",
"437 696 OFFCURVE",
"427 690 OFFCURVE",
"414 690 CURVE SMOOTH",
"396 690 OFFCURVE",
"377 708 OFFCURVE",
"343 708 CURVE SMOOTH",
"175 708 OFFCURVE",
"52 373 OFFCURVE",
"52 174 CURVE SMOOTH",
"52 62 OFFCURVE",
"96 -8 OFFCURVE",
"165 -8 CURVE SMOOTH",
"203 -8 OFFCURVE",
"226 15 OFFCURVE",
"245 15 CURVE SMOOTH",
"259 15 OFFCURVE",
"262 6 OFFCURVE",
"263 -13 CURVE"
);
}
);
width = 392;
}
);
leftKerningGroup = O;
rightKerningGroup = C;
unicode = 0043;
},
{
glyphname = D;
lastChange = "2025-04-05 11:24:18 +0000";
layers = (
{
anchors = (
{
name = bottom;
position = "{155, 0}";
},
{
name = center;
position = "{142, 350}";
},
{
name = top;
position = "{354, 700}";
}
);
background = {
anchors = (
{
name = bottom;
position = "{155, 0}";
},
{
name = center;
position = "{142, 350}";
},
{
name = top;
position = "{354, 700}";
}
);
hints = (
{
scale = "{1, -1}";
type = Corner;
name = _corner.rightSerif;
options = 1;
},
{
type = Corner;
name = _corner.leftSerif;
},
{
scale = "{1, -1}";
type = Corner;
name = _corner.rightSerif;
options = 1;
},
{
type = Corner;
name = _corner.leftSerif;
},
{
scale = "{1, -1}";
type = Corner;
name = _corner.rightSerif;
options = 1;
},
{
type = Corner;
name = _corner.leftSerif;
},
{
scale = "{1, -1}";
type = Corner;
name = _corner.rightSerif;
options = 1;
},
{
type = Corner;
name = _corner.leftSerif;
},
{
scale = "{1, -1}";
type = Corner;
name = _corner.rightSerif;
options = 1;
},
{
type = Corner;
name = _corner.leftSerif;
},
{
scale = "{1, -1}";
type = Corner;
name = _corner.rightSerif;
options = 1;
},
{
type = Corner;
name = _corner.leftSerif;
},
{
scale = "{1, -1}";
type = Corner;
name = _corner.rightSerif;
options = 1;
},
{
type = Corner;
name = _corner.leftSerif;
},
{
scale = "{1, -1}";
type = Corner;
name = _corner.rightSerif;
options = 1;
},
{
type = Corner;
name = _corner.leftSerif;
},
{
scale = "{1, -1}";
type = Corner;
name = _corner.rightSerif;
options = 1;
},
{
type = Corner;
name = _corner.leftSerif;
},
{
scale = "{1, -1}";
type = Corner;
name = _corner.rightSerif;
options = 1;
},
{
type = Corner;
name = _corner.leftSerif;
},
{
scale = "{1, -1}";
type = Corner;
name = _corner.rightSerif;
options = 1;
},
{
type = Corner;
name = _corner.leftSerif;
},
{
scale = "{1, -1}";
type = Corner;
name = _corner.leftSerif;
options = 1;
},
{
type = Corner;
name = _corner.leftSerif;
},
{
scale = "{1, -1}";
type = Corner;
name = _corner.leftSerif;
options = 1;
},
{
type = Corner;
name = _corner.leftSerif;
},
{
scale = "{1, -1}";
type = Corner;
name = _corner.leftSerif;
options = 1;
},
{
type = Corner;
name = _corner.leftSerif;
},
{
scale = "{1, -1}";
type = Corner;
name = _corner.leftSerif;
options = 1;
},
{
type = Corner;
name = _corner.leftSerif;
},
{
scale = "{1, -1}";
type = Corner;
name = _corner.leftSerif;
options = 1;
},
{
type = Corner;
name = _corner.leftSerif;
},
{
scale = "{1, -1}";
type = Corner;
name = _corner.leftSerif;
options = 1;
},
{
type = Corner;
name = _corner.leftSerif;
},
{
scale = "{1, -1}";
type = Corner;
name = _corner.leftSerif;
options = 1;
},
{
type = Corner;
name = _corner.leftSerif;
},
{
scale = "{1, -1}";
type = Corner;
name = _corner.leftSerif;
options = 1;
},
{
type = Corner;
name = _corner.leftSerif;
},
{
scale = "{1, -1}";
type = Corner;
name = _corner.leftSerif;
options = 1;
},
{
type = Corner;
name = _corner.leftSerif;
},
{
scale = "{1, -1}";
type = Corner;
name = _corner.leftSerif;
options = 1;
},
{
type = Corner;
name = _corner.leftSerif;
},
{
scale = "{1, -1}";
type = Corner;
name = _corner.leftSerif;
options = 1;
},
{
type = Corner;
name = _corner.leftSerif;
},
{
scale = "{1, -1}";
type = Corner;
name = _corner.leftSerif;
options = 1;
},
{
type = Corner;
name = _corner.leftSerif;
}
);
paths = (
{
closed = 1;
nodes = (
"139 0 LINE SMOOTH",
"331 0 OFFCURVE",
"459 316 OFFCURVE",
"459 496 CURVE SMOOTH",
"459 616 OFFCURVE",
"412 700 OFFCURVE",
"316 700 CURVE SMOOTH",
"137 700 LINE",
"136 697 LINE",
"192 693 OFFCURVE",
"208 675 OFFCURVE",
"187 603 CURVE SMOOTH",
"41 93 LINE SMOOTH",
"23 31 OFFCURVE",
"2 9 OFFCURVE",
"-58 3 CURVE",
"-59 0 LINE"
);
},
{
closed = 1;
nodes = (
"87 12 OFFCURVE",
"75 31 OFFCURVE",
"90 82 CURVE SMOOTH",
"247 630 LINE SMOOTH",
"259 673 OFFCURVE",
"276 688 OFFCURVE",
"307 688 CURVE SMOOTH",
"310 688 LINE SMOOTH",
"373 688 OFFCURVE",
"406 621 OFFCURVE",
"406 519 CURVE SMOOTH",
"406 362 OFFCURVE",
"295 12 OFFCURVE",
"138 12 CURVE SMOOTH",
"124 12 LINE SMOOTH"
);
}
);
};
layerId = "800CF2A0-134E-4EC9-907D-CE3650520B0A";
paths = (
{
closed = 1;
nodes = (
"139 0 LINE SMOOTH",
"331 0 OFFCURVE",
"459 316 OFFCURVE",
"459 496 CURVE SMOOTH",
"459 616 OFFCURVE",
"412 700 OFFCURVE",
"316 700 CURVE SMOOTH",
"137 700 LINE",
"136 697 LINE",
"192 693 OFFCURVE",
"208 675 OFFCURVE",
"187 603 CURVE SMOOTH",
"41 93 LINE SMOOTH",
"23 31 OFFCURVE",
"2 9 OFFCURVE",
"-58 3 CURVE",
"-59 0 LINE"
);
},
{
closed = 1;
nodes = (
"87 12 OFFCURVE",
"75 31 OFFCURVE",
"90 82 CURVE SMOOTH",
"247 630 LINE SMOOTH",
"259 673 OFFCURVE",
"276 688 OFFCURVE",
"307 688 CURVE SMOOTH",
"310 688 LINE SMOOTH",
"373 688 OFFCURVE",
"406 621 OFFCURVE",
"406 519 CURVE SMOOTH",
"406 362 OFFCURVE",
"295 12 OFFCURVE",
"138 12 CURVE SMOOTH",
"124 12 LINE SMOOTH"
);
}
);
width = 454;
}
);
leftKerningGroup = H;
rightKerningGroup = O;
unicode = 0044;
},
{
glyphname = E;
lastChange = "2025-04-05 11:24:18 +0000";
layers = (
{
anchors = (
{
name = bottom;
position = "{160, 0}";
},
{
name = ogonek;
position = "{231, 0}";
},
{
name = top;
position = "{321, 700}";
},
{
name = topleft;
position = "{112, 700}";
}
);
background = {
anchors = (
{
name = bottom;
position = "{160, 0}";
},
{
name = ogonek;
position = "{231, 0}";
},
{
name = top;
position = "{321, 700}";
},
{
name = topleft;
position = "{112, 700}";
}
);
hints = (
{
scale = "{1, -1}";
type = Corner;
name = _corner.rightSerif;
options = 1;
},
{
type = Corner;
name = _corner.leftSerif;
},
{
scale = "{1, -1}";
type = Corner;
name = _corner.rightSerif;
options = 1;
},
{
type = Corner;
name = _corner.rightSerif;
},
{
scale = "{1, -1}";
type = Corner;
name = _corner.leftSerif;
options = 1;
},
{
scale = "{1, -1}";
type = Corner;
name = _corner.rightSerif;
options = 1;
},
{
type = Corner;
name = _corner.leftSerif;
},
{
scale = "{1, -1}";
type = Corner;
name = _corner.rightSerif;
options = 1;
},
{
type = Corner;
name = _corner.leftSerif;
},
{
scale = "{1, -1}";
type = Corner;
name = _corner.rightSerif;
options = 1;
},
{
type = Corner;
name = _corner.leftSerif;
},
{
scale = "{1, -1}";
type = Corner;
name = _corner.rightSerif;
options = 1;
},
{
type = Corner;
name = _corner.leftSerif;
},
{
scale = "{1, -1}";
type = Corner;
name = _corner.rightSerif;
options = 1;
},
{
type = Corner;
name = _corner.leftSerif;
},
{
scale = "{1, -1}";
type = Corner;
name = _corner.rightSerif;
options = 1;
},
{
type = Corner;
name = _corner.leftSerif;
},
{
scale = "{1, -1}";
type = Corner;
name = _corner.rightSerif;
options = 1;
},
{
type = Corner;
name = _corner.leftSerif;
},
{
scale = "{1, -1}";
type = Corner;
name = _corner.rightSerif;
options = 1;
},
{
type = Corner;
name = _corner.leftSerif;
},
{
scale = "{1, -1}";
type = Corner;
name = _corner.rightSerif;
options = 1;
},
{
type = Corner;
name = _corner.leftSerif;
},
{
scale = "{1, -1}";
type = Corner;
name = _corner.rightSerif;
options = 1;
},
{
type = Corner;
name = _corner.leftSerif;
},
{
scale = "{1, -1}";
type = Corner;
name = _corner.rightSerif;
options = 1;
},
{
type = Corner;
name = _corner.leftSerif;
},
{
scale = "{1, -1}";
type = Corner;
name = _corner.rightSerif;
options = 1;
},
{
type = Corner;
name = _corner.leftSerif;
},
{
scale = "{1, -1}";
type = Corner;
name = _corner.rightSerif;
options = 1;
},
{
type = Corner;
name = _corner.leftSerif;
},
{
scale = "{1, -1}";
type = Corner;
name = _corner.rightSerif;
options = 1;
},
{
type = Corner;
name = _corner.leftSerif;
},
{
scale = "{1, -1}";
type = Corner;
name = _corner.rightSerif;
options = 1;
},
{
type = Corner;
name = _corner.leftSerif;
},
{
scale = "{1, -1}";
type = Corner;
name = _corner.rightSerif;
options = 1;
},
{
type = Corner;
name = _corner.leftSerif;
},
{
scale = "{1, -1}";
type = Corner;
name = _corner.rightSerif;
options = 1;
},
{
type = Corner;
name = _corner.leftSerif;
},
{
scale = "{1, -1}";
type = Corner;
name = _corner.rightSerif;
options = 1;
},
{
type = Corner;
name = _corner.leftSerif;
},
{
scale = "{1, -1}";
type = Corner;
name = _corner.rightSerif;
options = 1;
},
{
type = Corner;
name = _corner.leftSerif;
},
{
scale = "{1, -1}";
type = Corner;
name = _corner.rightSerif;
options = 1;
},
{
type = Corner;
name = _corner.leftSerif;
},
{
scale = "{1, -1}";
type = Corner;
name = _corner.rightSerif;
options = 1;
},
{
type = Corner;
name = _corner.leftSerif;
},
{
scale = "{1, -1}";
type = Corner;
name = _corner.leftSerif;
options = 1;
},
{
type = Corner;
name = _corner.leftSerif;
},
{
scale = "{1, -1}";
type = Corner;
name = _corner.leftSerif;
options = 1;
},
{
type = Corner;
name = _corner.leftSerif;
},
{
scale = "{1, -1}";
type = Corner;
name = _corner.leftSerif;
options = 1;
},
{
type = Corner;
name = _corner.leftSerif;
},
{
scale = "{1, -1}";
type = Corner;
name = _corner.leftSerif;
options = 1;
},
{
type = Corner;
name = _corner.leftSerif;
},
{
scale = "{1, -1}";
type = Corner;
name = _corner.leftSerif;
options = 1;
},
{
type = Corner;
name = _corner.leftSerif;
},
{
scale = "{1, -1}";
type = Corner;
name = _corner.leftSerif;
options = 1;
},
{
type = Corner;
name = _corner.leftSerif;
},
{
scale = "{1, -1}";
type = Corner;
name = _corner.leftSerif;
options = 1;
},
{
type = Corner;
name = _corner.leftSerif;
},
{
scale = "{1, -1}";
type = Corner;
name = _corner.leftSerif;
options = 1;
},
{
type = Corner;
name = _corner.leftSerif;
},
{
scale = "{1, -1}";
type = Corner;
name = _corner.leftSerif;
options = 1;
},
{
type = Corner;
name = _corner.leftSerif;
},
{
scale = "{1, -1}";
type = Corner;
name = _corner.leftSerif;
options = 1;
},
{
type = Corner;
name = _corner.leftSerif;
},
{
scale = "{1, -1}";
type = Corner;
name = _corner.leftSerif;
options = 1;
},
{
type = Corner;
name = _corner.leftSerif;
},
{
scale = "{1, -1}";
type = Corner;
name = _corner.leftSerif;
options = 1;
},
{
type = Corner;
name = _corner.leftSerif;
},
{
scale = "{1, -1}";
type = Corner;
name = _corner.leftSerif;
options = 1;
},
{
type = Corner;
name = _corner.leftSerif;
},
{
scale = "{1, -1}";
type = Corner;
name = _corner.leftSerif;
options = 1;
},
{
type = Corner;
name = _corner.leftSerif;
},
{
scale = "{1, -1}";
type = Corner;
name = _corner.leftSerif;
options = 1;
},
{
type = Corner;
name = _corner.leftSerif;
},
{
scale = "{1, -1}";
type = Corner;
name = _corner.leftSerif;
options = 1;
},
{
type = Corner;
name = _corner.leftSerif;
},
{
scale = "{1, -1}";
type = Corner;
name = _corner.leftSerif;
options = 1;
},
{
type = Corner;
name = _corner.leftSerif;
},
{
scale = "{1, -1}";
type = Corner;
name = _corner.leftSerif;
options = 1;
},
{
type = Corner;
name = _corner.leftSerif;
},
{
scale = "{1, -1}";
type = Corner;
name = _corner.leftSerif;
options = 1;
},
{
type = Corner;
name = _corner.leftSerif;
},
{
scale = "{1, -1}";
type = Corner;
name = _corner.leftSerif;
options = 1;
},
{
type = Corner;
name = _corner.leftSerif;
},
{
scale = "{1, -1}";
type = Corner;
name = _corner.leftSerif;
options = 1;
},
{
type = Corner;
name = _corner.leftSerif;
},
{
scale = "{1, -1}";
type = Corner;
name = _corner.leftSerif;
options = 1;
},
{
type = Corner;
name = _corner.leftSerif;
},
{
scale = "{1, -1}";
type = Corner;
name = _corner.leftSerif;
options = 1;
},
{
type = Corner;
name = _corner.leftSerif;
},
{
scale = "{1, -1}";
type = Corner;
name = _corner.leftSerif;
options = 1;
},
{
type = Corner;
name = _corner.leftSerif;
},
{
scale = "{1, -1}";
type = Corner;
name = _corner.leftSerif;
options = 1;
},
{
type = Corner;
name = _corner.leftSerif;
},
{
scale = "{1, -1}";
type = Corner;
name = _corner.leftSerif;
options = 1;
},
{
type = Corner;
name = _corner.leftSerif;
},
{
scale = "{1, -1}";
type = Corner;
name = _corner.leftSerif;
options = 1;
},
{
type = Corner;
name = _corner.leftSerif;
},
{
scale = "{1, -1}";
type = Corner;
name = _corner.leftSerif;
options = 1;
},
{
type = Corner;
name = _corner.leftSerif;
},
{
scale = "{1, -1}";
type = Corner;
name = _corner.leftSerif;
options = 1;
},
{
type = Corner;
name = _corner.leftSerif;
},
{
scale = "{1, -1}";
type = Corner;
name = _corner.leftSerif;
options = 1;
},
{
type = Corner;
name = _corner.leftSerif;
}
);
paths = (
{
closed = 1;
nodes = (
"281 -29 LINE",
"363 203 LINE",
"360 203 LINE",
"276 38 OFFCURVE",
"249 11 OFFCURVE",
"170 11 CURVE SMOOTH",
"143 11 LINE SMOOTH",
"85 11 OFFCURVE",
"73 26 OFFCURVE",
"91 86 CURVE SMOOTH",
"172 370 LINE",
"239 370 LINE SMOOTH",
"298 370 OFFCURVE",
"307 340 OFFCURVE",
"283 220 CURVE",
"288 220 LINE",
"376 527 LINE",
"371 527 LINE",
"330 410 OFFCURVE",
"303 381 OFFCURVE",
"242 381 CURVE SMOOTH",
"175 381 LINE",
"246 626 LINE SMOOTH",
"260 675 OFFCURVE",
"280 689 OFFCURVE",
"320 689 CURVE SMOOTH",
"362 689 LINE SMOOTH",
"433 689 OFFCURVE",
"438 671 OFFCURVE",
"441 519 CURVE",
"444 519 LINE",
"478 729 LINE",
"475 729 LINE",
"461 708 OFFCURVE",
"444 700 OFFCURVE",
"412 700 CURVE SMOOTH",
"137 700 LINE",
"136 697 LINE",
"192 693 OFFCURVE",
"208 675 OFFCURVE",
"187 603 CURVE SMOOTH",
"41 93 LINE SMOOTH",
"23 31 OFFCURVE",
"2 9 OFFCURVE",
"-58 3 CURVE",
"-59 0 LINE",
"231 0 LINE SMOOTH",
"263 0 OFFCURVE",
"276 -8 OFFCURVE",
"278 -29 CURVE"
);
}
);
};
layerId = "800CF2A0-134E-4EC9-907D-CE3650520B0A";
paths = (
{
closed = 1;
nodes = (
"281 -29 LINE",
"363 203 LINE",
"360 203 LINE",
"276 38 OFFCURVE",
"249 11 OFFCURVE",
"170 11 CURVE SMOOTH",
"143 11 LINE SMOOTH",
"85 11 OFFCURVE",
"73 26 OFFCURVE",
"91 86 CURVE SMOOTH",
"172 370 LINE",
"239 370 LINE SMOOTH",
"298 370 OFFCURVE",
"307 340 OFFCURVE",
"283 220 CURVE",
"288 220 LINE",
"376 527 LINE",
"371 527 LINE",
"330 410 OFFCURVE",
"303 381 OFFCURVE",
"242 381 CURVE SMOOTH",
"175 381 LINE",
"246 626 LINE SMOOTH",
"260 675 OFFCURVE",
"280 689 OFFCURVE",
"320 689 CURVE SMOOTH",
"362 689 LINE SMOOTH",
"433 689 OFFCURVE",
"438 671 OFFCURVE",
"441 519 CURVE",
"444 519 LINE",
"478 729 LINE",
"475 729 LINE",
"461 708 OFFCURVE",
"444 700 OFFCURVE",
"412 700 CURVE SMOOTH",
"137 700 LINE",
"136 697 LINE",
"192 693 OFFCURVE",
"208 675 OFFCURVE",
"187 603 CURVE SMOOTH",
"41 93 LINE SMOOTH",
"23 31 OFFCURVE",
"2 9 OFFCURVE",
"-58 3 CURVE",
"-59 0 LINE",
"231 0 LINE SMOOTH",
"263 0 OFFCURVE",
"276 -8 OFFCURVE",
"278 -29 CURVE"
);
}
);
width = 398;
}
);
leftKerningGroup = H;
rightKerningGroup = E;
unicode = 0045;
},
{
glyphname = F;
lastChange = "2025-04-05 11:24:18 +0000";
layers = (
{
background = {
hints = (
{
scale = "{1, -1}";
type = Corner;
name = _corner.leftSerif;
options = 1;
},
{
scale = "{1, -1}";
type = Corner;
name = _corner.rightSerif;
options = 1;
},
{
type = Corner;
name = _corner.leftSerif;
},
{
scale = "{1, -1}";
type = Corner;
name = _corner.leftSerif;
options = 1;
},
{
scale = "{1, -1}";
type = Corner;
name = _corner.rightSerif;
options = 1;
},
{
type = Corner;
name = _corner.leftSerif;
},
{
scale = "{1, -1}";
type = Corner;
name = _corner.leftSerif;
options = 1;
},
{
scale = "{1, -1}";
type = Corner;
name = _corner.rightSerif;
options = 1;
},
{
type = Corner;
name = _corner.leftSerif;
},
{
scale = "{1, -1}";
type = Corner;
name = _corner.leftSerif;
options = 1;
},
{
scale = "{1, -1}";
type = Corner;
name = _corner.rightSerif;
options = 1;
},
{
type = Corner;
name = _corner.leftSerif;
},
{
scale = "{1, -1}";
type = Corner;
name = _corner.rightSerif;
options = 1;
},
{
type = Corner;
name = _corner.leftSerif;
},
{
scale = "{1, -1}";
type = Corner;
name = _corner.leftSerif;
options = 1;
},
{
scale = "{1, -1}";
type = Corner;
name = _corner.rightSerif;
options = 1;
},
{
type = Corner;
name = _corner.leftSerif;
},
{
scale = "{1, -1}";
type = Corner;
name = _corner.leftSerif;
options = 1;
},
{
scale = "{1, -1}";
type = Corner;
name = _corner.rightSerif;
options = 1;
},
{
type = Corner;
name = _corner.leftSerif;
},
{
scale = "{1, -1}";
type = Corner;
name = _corner.leftSerif;
options = 1;
},
{
scale = "{1, -1}";
type = Corner;
name = _corner.rightSerif;
options = 1;
},
{
type = Corner;
name = _corner.leftSerif;
},
{
scale = "{1, -1}";
type = Corner;
name = _corner.leftSerif;
options = 1;
},
{
scale = "{1, -1}";
type = Corner;
name = _corner.leftSerif;
options = 1;
},
{
type = Corner;
name = _corner.leftSerif;
},
{
scale = "{1, -1}";
type = Corner;
name = _corner.leftSerif;
options = 1;
},
{
type = Corner;
name = _corner.leftSerif;
},
{
scale = "{1, -1}";
type = Corner;
name = _corner.leftSerif;
options = 1;
},
{
scale = "{1, -1}";
type = Corner;
name = _corner.leftSerif;
options = 1;
},
{
scale = "{1, -1}";
type = Corner;
name = _corner.leftSerif;
options = 1;
},
{
type = Corner;
name = _corner.leftSerif;
},
{
scale = "{1, -1}";
type = Corner;
name = _corner.leftSerif;
options = 1;
},
{
scale = "{1, -1}";
type = Corner;
name = _corner.leftSerif;
options = 1;
},
{
type = Corner;
name = _corner.leftSerif;
},
{
scale = "{1, -1}";
type = Corner;
name = _corner.leftSerif;
options = 1;
},
{
scale = "{1, -1}";
type = Corner;
name = _corner.leftSerif;
options = 1;
},
{
type = Corner;
name = _corner.leftSerif;
},
{
scale = "{1, -1}";
type = Corner;
name = _corner.leftSerif;
options = 1;
},
{
scale = "{1, -1}";
type = Corner;
name = _corner.leftSerif;
options = 1;
},
{
type = Corner;
name = _corner.leftSerif;
},
{
scale = "{1, -1}";
type = Corner;
name = _corner.leftSerif;
options = 1;
},
{
scale = "{1, -1}";
type = Corner;
name = _corner.leftSerif;
options = 1;
},
{
type = Corner;
name = _corner.leftSerif;
},
{
scale = "{1, -1}";
type = Corner;
name = _corner.leftSerif;
options = 1;
},
{
type = Corner;
name = _corner.leftSerif;
},
{
scale = "{1, -1}";
type = Corner;
name = _corner.leftSerif;
options = 1;
},
{
scale = "{1, -1}";
type = Corner;
name = _corner.leftSerif;
options = 1;
},
{
type = Corner;
name = _corner.leftSerif;
},
{
scale = "{1, -1}";
type = Corner;
name = _corner.leftSerif;
options = 1;
},
{
type = Corner;
name = _corner.leftSerif;
},
{
scale = "{1, -1}";
type = Corner;
name = _corner.leftSerif;
options = 1;
},
{
scale = "{1, -1}";
type = Corner;
name = _corner.leftSerif;
options = 1;
},
{
type = Corner;
name = _corner.leftSerif;
},
{
scale = "{1, -1}";
type = Corner;
name = _corner.leftSerif;
options = 1;
},
{
type = Corner;
name = _corner.leftSerif;
},
{
scale = "{1, -1}";
type = Corner;
name = _corner.leftSerif;
options = 1;
},
{
scale = "{1, -1}";
type = Corner;
name = _corner.leftSerif;
options = 1;
},
{
type = Corner;
name = _corner.leftSerif;
},
{
scale = "{1, -1}";
type = Corner;
name = _corner.leftSerif;
options = 1;
},
{
type = Corner;
name = _corner.leftSerif;
},
{
scale = "{1, -1}";
type = Corner;
name = _corner.leftSerif;
options = 1;
},
{
type = Corner;
name = _corner.leftSerif;
},
{
scale = "{1, -1}";
type = Corner;
name = _corner.leftSerif;
options = 1;
},
{
type = Corner;
name = _corner.leftSerif;
}
);
paths = (
{
closed = 1;
nodes = (
"157 0 LINE",
"158 3 LINE",
"83 7 OFFCURVE",
"75 29 OFFCURVE",
"94 97 CURVE SMOOTH",
"171 367 LINE",
"238 367 LINE SMOOTH",
"299 367 OFFCURVE",
"308 337 OFFCURVE",
"283 217 CURVE",
"288 217 LINE",
"376 524 LINE",
"371 524 LINE",
"328 407 OFFCURVE",
"302 378 OFFCURVE",
"241 378 CURVE SMOOTH",
"174 378 LINE",
"244 620 LINE SMOOTH",
"259 671 OFFCURVE",
"279 689 OFFCURVE",
"320 689 CURVE SMOOTH",
"354 689 LINE SMOOTH",
"423 689 OFFCURVE",
"435 654 OFFCURVE",
"435 509 CURVE",
"438 509 LINE",
"473 729 LINE",
"470 729 LINE",
"456 708 OFFCURVE",
"439 700 OFFCURVE",
"407 700 CURVE SMOOTH",
"139 700 LINE",
"138 697 LINE",
"191 693 OFFCURVE",
"208 675 OFFCURVE",
"187 603 CURVE SMOOTH",
"41 93 LINE SMOOTH",
"24 33 OFFCURVE",
"0 11 OFFCURVE",
"-58 3 CURVE",
"-59 0 LINE"
);
}
);
};
layerId = "800CF2A0-134E-4EC9-907D-CE3650520B0A";
paths = (
{
closed = 1;
nodes = (
"157 0 LINE",
"158 3 LINE",
"83 7 OFFCURVE",
"75 29 OFFCURVE",
"94 97 CURVE SMOOTH",
"171 367 LINE",
"238 367 LINE SMOOTH",
"299 367 OFFCURVE",
"308 337 OFFCURVE",
"283 217 CURVE",
"288 217 LINE",
"376 524 LINE",
"371 524 LINE",
"328 407 OFFCURVE",
"302 378 OFFCURVE",
"241 378 CURVE SMOOTH",
"174 378 LINE",
"244 620 LINE SMOOTH",
"259 671 OFFCURVE",
"279 689 OFFCURVE",
"320 689 CURVE SMOOTH",
"354 689 LINE SMOOTH",
"423 689 OFFCURVE",
"435 654 OFFCURVE",
"435 509 CURVE",
"438 509 LINE",
"473 729 LINE",
"470 729 LINE",
"456 708 OFFCURVE",
"439 700 OFFCURVE",
"407 700 CURVE SMOOTH",
"139 700 LINE",
"138 697 LINE",
"191 693 OFFCURVE",
"208 675 OFFCURVE",
"187 603 CURVE SMOOTH",
"41 93 LINE SMOOTH",
"24 33 OFFCURVE",
"0 11 OFFCURVE",
"-58 3 CURVE",
"-59 0 LINE"
);
}
);
width = 372;
}
);
leftKerningGroup = H;
unicode = 0046;
},
{
glyphname = G;
lastChange = "2025-04-05 11:24:18 +0000";
layers = (
{
anchors = (
{
name = bottom;
position = "{173, 0}";
},
{
name = top;
position = "{346, 700}";
}
);
background = {
anchors = (
{
name = bottom;
position = "{173, 0}";
},
{
name = top;
position = "{346, 700}";
}
);
hints = (
{
type = Corner;
name = _corner.leftSerif;
},
{
scale = "{1, -1}";
type = Corner;
name = _corner.rightSerif;
options = 1;
},
{
type = Corner;
name = _corner.leftSerif;
},
{
scale = "{1, -1}";
type = Corner;
name = _corner.rightSerif;
options = 1;
},
{
type = Corner;
name = _corner.leftSerif;
},
{
scale = "{1, -1}";
type = Corner;
name = _corner.rightSerif;
options = 1;
},
{
type = Corner;
name = _corner.leftSerif;
},
{
scale = "{1, -1}";
type = Corner;
name = _corner.rightSerif;
options = 1;
},
{
type = Corner;
name = _corner.leftSerif;
},
{
scale = "{1, -1}";
type = Corner;
name = _corner.rightSerif;
options = 1;
},
{
type = Corner;
name = _corner.leftSerif;
},
{
scale = "{1, -1}";
type = Corner;
name = _corner.rightSerif;
options = 1;
},
{
type = Corner;
name = _corner.leftSerif;
},
{
scale = "{1, -1}";
type = Corner;
name = _corner.rightSerif;
options = 1;
},
{
type = Corner;
name = _corner.leftSerif;
},
{
scale = "{1, -1}";
type = Corner;
name = _corner.rightSerif;
options = 1;
},
{
type = Corner;
name = _corner.leftSerif;
},
{
scale = "{1, -1}";
type = Corner;
name = _corner.rightSerif;
options = 1;
},
{
type = Corner;
name = _corner.leftSerif;
},
{
scale = "{1, -1}";
type = Corner;
name = _corner.rightSerif;
options = 1;
},
{
type = Corner;
name = _corner.leftSerif;
},
{
scale = "{1, -1}";
type = Corner;
name = _corner.rightSerif;
options = 1;
},
{
type = Corner;
name = _corner.leftSerif;
},
{
scale = "{1, -1}";
type = Corner;
name = _corner.rightSerif;
options = 1;
},
{
type = Corner;
name = _corner.leftSerif;
},
{
scale = "{1, -1}";
type = Corner;
name = _corner.rightSerif;
options = 1;
},
{
type = Corner;
name = _corner.leftSerif;
},
{
scale = "{1, -1}";
type = Corner;
name = _corner.rightSerif;
options = 1;
},
{
type = Corner;
name = _corner.leftSerif;
},
{
scale = "{1, -1}";
type = Corner;
name = _corner.rightSerif;
options = 1;
},
{
type = Corner;
name = _corner.leftSerif;
},
{
scale = "{1, -1}";
type = Corner;
name = _corner.rightSerif;
options = 1;
},
{
type = Corner;
name = _corner.leftSerif;
},
{
scale = "{1, -1}";
type = Corner;
name = _corner.rightSerif;
options = 1;
},
{
type = Corner;
name = _corner.leftSerif;
},
{
scale = "{1, -1}";
type = Corner;
name = _corner.rightSerif;
options = 1;
},
{
type = Corner;
name = _corner.leftSerif;
},
{
scale = "{1, -1}";
type = Corner;
name = _corner.rightSerif;
options = 1;
},
{
type = Corner;
name = _corner.leftSerif;
},
{
scale = "{1, -1}";
type = Corner;
name = _corner.rightSerif;
options = 1;
},
{
type = Corner;
name = _corner.leftSerif;
},
{
scale = "{1, -1}";
type = Corner;
name = _corner.rightSerif;
options = 1;
},
{
type = Corner;
name = _corner.leftSerif;
},
{
scale = "{1, -1}";
type = Corner;
name = _corner.rightSerif;
options = 1;
},
{
type = Corner;
name = _corner.leftSerif;
},
{
scale = "{1, -1}";
type = Corner;
name = _corner.rightSerif;
options = 1;
},
{
type = Corner;
name = _corner.leftSerif;
},
{
scale = "{1, -1}";
type = Corner;
name = _corner.rightSerif;
options = 1;
},
{
type = Corner;
name = _corner.leftSerif;
},
{
scale = "{1, -1}";
type = Corner;
name = _corner.rightSerif;
options = 1;
},
{
type = Corner;
name = _corner.leftSerif;
},
{
scale = "{1, -1}";
type = Corner;
name = _corner.rightSerif;
options = 1;
},
{
type = Corner;
name = _corner.leftSerif;
},
{
scale = "{1, -1}";
type = Corner;
name = _corner.rightSerif;
options = 1;
},
{
type = Corner;
name = _corner.leftSerif;
},
{
scale = "{1, -1}";
type = Corner;
name = _corner.rightSerif;
options = 1;
},
{
scale = "{1, -1}";
type = Corner;
name = _corner.leftSerif;
options = 1;
},
{
scale = "{1, -1}";
type = Corner;
name = _corner.leftSerif;
options = 1;
},
{
type = Corner;
name = _corner.leftSerif;
},
{
type = Corner;
name = _corner.leftSerif;
},
{
scale = "{1, -1}";
type = Corner;
name = _corner.rightSerif;
options = 1;
},
{
type = Corner;
name = _corner.leftSerif;
},
{
scale = "{1, -1}";
type = Corner;
name = _corner.rightSerif;
options = 1;
},
{
type = Corner;
name = _corner.leftSerif;
},
{
scale = "{1, -1}";
type = Corner;
name = _corner.rightSerif;
options = 1;
},
{
type = Corner;
name = _corner.leftSerif;
},
{
scale = "{1, -1}";
type = Corner;
name = _corner.rightSerif;
options = 1;
},
{
type = Corner;
name = _corner.rightSerif;
},
{
scale = "{1, -1}";
type = Corner;
name = _corner.leftSerif;
options = 1;
},
{
type = Corner;
name = _corner.rightSerif;
},
{
scale = "{1, -1}";
type = Corner;
name = _corner.leftSerif;
options = 1;
},
{
type = Corner;
name = _corner.rightSerif;
},
{
scale = "{1, -1}";
type = Corner;
name = _corner.leftSerif;
options = 1;
}
);
paths = (
{
closed = 1;
nodes = (
"216 -8 OFFCURVE",
"268 32 OFFCURVE",
"336 187 CURVE",
"292 146 LINE",
"292 -7 LINE",
"296 -7 LINE",
"361 221 LINE SMOOTH",
"379 283 OFFCURVE",
"397 305 OFFCURVE",
"449 311 CURVE",
"450 314 LINE",
"268 314 LINE",
"267 311 LINE",
"319 306 OFFCURVE",
"332 290 OFFCURVE",
"316 230 CURVE SMOOTH",
"310 210 LINE SMOOTH",
"270 64 OFFCURVE",
"210 4 OFFCURVE",
"167 4 CURVE SMOOTH",
"122 4 OFFCURVE",
"103 61 OFFCURVE",
"103 130 CURVE SMOOTH",
"103 304 OFFCURVE",
"209 696 OFFCURVE",
"349 696 CURVE SMOOTH",
"416 696 OFFCURVE",
"426 649 OFFCURVE",
"437 467 CURVE",
"440 467 LINE",
"468 715 LINE",
"465 715 LINE",
"455 696 OFFCURVE",
"444 688 OFFCURVE",
"430 688 CURVE SMOOTH",
"406 688 OFFCURVE",
"388 708 OFFCURVE",
"345 708 CURVE SMOOTH",
"175 708 OFFCURVE",
"52 374 OFFCURVE",
"52 176 CURVE SMOOTH",
"52 64 OFFCURVE",
"90 -8 OFFCURVE",
"164 -8 CURVE SMOOTH"
);
}
);
};
layerId = "800CF2A0-134E-4EC9-907D-CE3650520B0A";
paths = (
{
closed = 1;
nodes = (
"216 -8 OFFCURVE",
"268 32 OFFCURVE",
"336 187 CURVE",
"292 146 LINE",
"292 -7 LINE",
"296 -7 LINE",
"361 221 LINE SMOOTH",
"379 283 OFFCURVE",
"397 305 OFFCURVE",
"449 311 CURVE",
"450 314 LINE",
"268 314 LINE",
"267 311 LINE",
"319 306 OFFCURVE",
"332 290 OFFCURVE",
"316 230 CURVE SMOOTH",
"310 210 LINE SMOOTH",
"270 64 OFFCURVE",
"210 4 OFFCURVE",
"167 4 CURVE SMOOTH",
"122 4 OFFCURVE",
"103 61 OFFCURVE",
"103 130 CURVE SMOOTH",
"103 304 OFFCURVE",
"209 696 OFFCURVE",
"349 696 CURVE SMOOTH",
"416 696 OFFCURVE",
"426 649 OFFCURVE",
"437 467 CURVE",
"440 467 LINE",
"468 715 LINE",
"465 715 LINE",
"455 696 OFFCURVE",
"444 688 OFFCURVE",
"430 688 CURVE SMOOTH",
"406 688 OFFCURVE",
"388 708 OFFCURVE",
"345 708 CURVE SMOOTH",
"175 708 OFFCURVE",
"52 374 OFFCURVE",
"52 176 CURVE SMOOTH",
"52 64 OFFCURVE",
"90 -8 OFFCURVE",
"164 -8 CURVE SMOOTH"
);
}
);
width = 424;
}
);
leftKerningGroup = O;
leftMetricsKey = O;
unicode = 0047;
},
{
glyphname = H;
lastChange = "2025-04-05 11:24:18 +0000";
layers = (
{
anchors = (
{
name = bottom;
position = "{171, 0}";
},
{
name = center;
position = "{322, 525}";
},
{
name = top;
position = "{372, 700}";
},
{
name = topleft;
position = "{149, 700}";
}
);
background = {
anchors = (
{
name = bottom;
position = "{171, 0}";
},
{
name = center;
position = "{322, 525}";
},
{
name = top;
position = "{372, 700}";
},
{
name = topleft;
position = "{149, 700}";
}
);
hints = (
{
scale = "{1, -1}";
type = Corner;
name = _corner.rightSerif;
options = 1;
},
{
type = Corner;
name = _corner.leftSerif;
},
{
scale = "{1, -1}";
type = Corner;
name = _corner.rightSerif;
options = 1;
},
{
type = Corner;
name = _corner.leftSerif;
},
{
scale = "{1, -1}";
type = Corner;
name = _corner.rightSerif;
options = 1;
},
{
type = Corner;
name = _corner.leftSerif;
},
{
scale = "{1, -1}";
type = Corner;
name = _corner.rightSerif;
options = 1;
},
{
type = Corner;
name = _corner.leftSerif;
},
{
scale = "{1, -1}";
type = Corner;
name = _corner.rightSerif;
options = 1;
},
{
type = Corner;
name = _corner.leftSerif;
},
{
scale = "{1, -1}";
type = Corner;
name = _corner.rightSerif;
options = 1;
},
{
type = Corner;
name = _corner.leftSerif;
},
{
scale = "{1, -1}";
type = Corner;
name = _corner.rightSerif;
options = 1;
},
{
type = Corner;
name = _corner.leftSerif;
},
{
scale = "{1, -1}";
type = Corner;
name = _corner.rightSerif;
options = 1;
},
{
type = Corner;
name = _corner.leftSerif;
},
{
scale = "{1, -1}";
type = Corner;
name = _corner.rightSerif;
options = 1;
},
{
type = Corner;
name = _corner.leftSerif;
},
{
scale = "{1, -1}";
type = Corner;
name = _corner.rightSerif;
options = 1;
},
{
type = Corner;
name = _corner.leftSerif;
},
{
scale = "{1, -1}";
type = Corner;
name = _corner.rightSerif;
options = 1;
},
{
type = Corner;
name = _corner.leftSerif;
},
{
scale = "{1, -1}";
type = Corner;
name = _corner.rightSerif;
options = 1;
},
{
type = Corner;
name = _corner.leftSerif;
},
{
scale = "{1, -1}";
type = Corner;
name = _corner.rightSerif;
options = 1;
},
{
type = Corner;
name = _corner.leftSerif;
},
{
scale = "{1, -1}";
type = Corner;
name = _corner.rightSerif;
options = 1;
},
{
type = Corner;
name = _corner.leftSerif;
},
{
scale = "{1, -1}";
type = Corner;
name = _corner.rightSerif;
options = 1;
},
{
type = Corner;
name = _corner.leftSerif;
},
{
scale = "{1, -1}";
type = Corner;
name = _corner.rightSerif;
options = 1;
},
{
type = Corner;
name = _corner.leftSerif;
},
{
scale = "{1, -1}";
type = Corner;
name = _corner.rightSerif;
options = 1;
},
{
type = Corner;
name = _corner.leftSerif;
},
{
scale = "{1, -1}";
type = Corner;
name = _corner.rightSerif;
options = 1;
},
{
type = Corner;
name = _corner.leftSerif;
},
{
scale = "{1, -1}";
type = Corner;
name = _corner.rightSerif;
options = 1;
},
{
type = Corner;
name = _corner.leftSerif;
},
{
scale = "{1, -1}";
type = Corner;
name = _corner.rightSerif;
options = 1;
},
{
type = Corner;
name = _corner.leftSerif;
},
{
scale = "{1, -1}";
type = Corner;
name = _corner.rightSerif;
options = 1;
},
{
type = Corner;
name = _corner.leftSerif;
},
{
scale = "{1, -1}";
type = Corner;
name = _corner.rightSerif;
options = 1;
},
{
type = Corner;
name = _corner.leftSerif;
},
{
scale = "{1, -1}";
type = Corner;
name = _corner.rightSerif;
options = 1;
},
{
type = Corner;
name = _corner.leftSerif;
},
{
scale = "{1, -1}";
type = Corner;
name = _corner.rightSerif;
options = 1;
},
{
type = Corner;
name = _corner.leftSerif;
},
{
scale = "{1, -1}";
type = Corner;
name = _corner.rightSerif;
options = 1;
},
{
type = Corner;
name = _corner.leftSerif;
},
{
scale = "{1, -1}";
type = Corner;
name = _corner.rightSerif;
options = 1;
},
{
type = Corner;
name = _corner.leftSerif;
},
{
scale = "{1, -1}";
type = Corner;
name = _corner.rightSerif;
options = 1;
},
{
type = Corner;
name = _corner.leftSerif;
},
{
scale = "{1, -1}";
type = Corner;
name = _corner.rightSerif;
options = 1;
},
{
type = Corner;
name = _corner.leftSerif;
},
{
scale = "{1, -1}";
type = Corner;
name = _corner.rightSerif;
options = 1;
},
{
type = Corner;
name = _corner.leftSerif;
},
{
scale = "{1, -1}";
type = Corner;
name = _corner.rightSerif;
options = 1;
},
{
type = Corner;
name = _corner.leftSerif;
},
{
scale = "{1, -1}";
type = Corner;
name = _corner.rightSerif;
options = 1;
},
{
type = Corner;
name = _corner.leftSerif;
},
{
scale = "{1, -1}";
type = Corner;
name = _corner.rightSerif;
options = 1;
},
{
type = Corner;
name = _corner.leftSerif;
},
{
scale = "{1, -1}";
type = Corner;
name = _corner.leftSerif;
options = 1;
},
{
type = Corner;
name = _corner.leftSerif;
},
{
scale = "{1, -1}";
type = Corner;
name = _corner.rightSerif;
options = 1;
},
{
type = Corner;
name = _corner.rightSerif;
},
{
scale = "{1, -1}";
type = Corner;
name = _corner.rightSerif;
options = 1;
},
{
type = Corner;
name = _corner.rightSerif;
},
{
scale = "{1, -1}";
type = Corner;
name = _corner.leftSerif;
options = 1;
},
{
type = Corner;
name = _corner.leftSerif;
},
{
scale = "{1, -1}";
type = Corner;
name = _corner.leftSerif;
options = 1;
},
{
type = Corner;
name = _corner.leftSerif;
},
{
scale = "{1, -1}";
type = Corner;
name = _corner.rightSerif;
options = 1;
},
{
type = Corner;
name = _corner.rightSerif;
},
{
scale = "{1, -1}";
type = Corner;
name = _corner.rightSerif;
options = 1;
},
{
type = Corner;
name = _corner.rightSerif;
},
{
scale = "{1, -1}";
type = Corner;
name = _corner.leftSerif;
options = 1;
},
{
type = Corner;
name = _corner.leftSerif;
},
{
scale = "{1, -1}";
type = Corner;
name = _corner.leftSerif;
options = 1;
},
{
type = Corner;
name = _corner.leftSerif;
},
{
scale = "{1, -1}";
type = Corner;
name = _corner.rightSerif;
options = 1;
},
{
type = Corner;
name = _corner.rightSerif;
},
{
scale = "{1, -1}";
type = Corner;
name = _corner.rightSerif;
options = 1;
},
{
type = Corner;
name = _corner.rightSerif;
},
{
scale = "{1, -1}";
type = Corner;
name = _corner.leftSerif;
options = 1;
},
{
type = Corner;
name = _corner.leftSerif;
},
{
scale = "{1, -1}";
type = Corner;
name = _corner.leftSerif;
options = 1;
},
{
type = Corner;
name = _corner.leftSerif;
},
{
scale = "{1, -1}";
type = Corner;
name = _corner.rightSerif;
options = 1;
},
{
type = Corner;
name = _corner.rightSerif;
},
{
scale = "{1, -1}";
type = Corner;
name = _corner.rightSerif;
options = 1;
},
{
type = Corner;
name = _corner.rightSerif;
},
{
scale = "{1, -1}";
type = Corner;
name = _corner.leftSerif;
options = 1;
},
{
type = Corner;
name = _corner.leftSerif;
},
{
scale = "{1, -1}";
type = Corner;
name = _corner.leftSerif;
options = 1;
},
{
type = Corner;
name = _corner.leftSerif;
},
{
scale = "{1, -1}";
type = Corner;
name = _corner.rightSerif;
options = 1;
},
{
type = Corner;
name = _corner.rightSerif;
},
{
scale = "{1, -1}";
type = Corner;
name = _corner.rightSerif;
options = 1;
},
{
type = Corner;
name = _corner.rightSerif;
},
{
scale = "{1, -1}";
type = Corner;
name = _corner.leftSerif;
options = 1;
},
{
type = Corner;
name = _corner.leftSerif;
},
{
scale = "{1, -1}";
type = Corner;
name = _corner.leftSerif;
options = 1;
},
{
type = Corner;
name = _corner.leftSerif;
},
{
scale = "{1, -1}";
type = Corner;
name = _corner.rightSerif;
options = 1;
},
{
type = Corner;
name = _corner.rightSerif;
},
{
scale = "{1, -1}";
type = Corner;
name = _corner.rightSerif;
options = 1;
},
{
type = Corner;
name = _corner.rightSerif;
},
{
scale = "{1, -1}";
type = Corner;
name = _corner.leftSerif;
options = 1;
},
{
type = Corner;
name = _corner.leftSerif;
},
{
scale = "{1, -1}";
type = Corner;
name = _corner.leftSerif;
options = 1;
},
{
type = Corner;
name = _corner.leftSerif;
},
{
scale = "{1, -1}";
type = Corner;
name = _corner.rightSerif;
options = 1;
},
{
type = Corner;
name = _corner.rightSerif;
},
{
scale = "{1, -1}";
type = Corner;
name = _corner.rightSerif;
options = 1;
},
{
type = Corner;
name = _corner.rightSerif;
},
{
scale = "{1, -1}";
type = Corner;
name = _corner.leftSerif;
options = 1;
},
{
type = Corner;
name = _corner.leftSerif;
},
{
scale = "{1, -1}";
type = Corner;
name = _corner.leftSerif;
options = 1;
},
{
type = Corner;
name = _corner.leftSerif;
},
{
scale = "{1, -1}";
type = Corner;
name = _corner.rightSerif;
options = 1;
},
{
type = Corner;
name = _corner.rightSerif;
},
{
scale = "{1, -1}";
type = Corner;
name = _corner.rightSerif;
options = 1;
},
{
type = Corner;
name = _corner.rightSerif;
},
{
scale = "{1, -1}";
type = Corner;
name = _corner.leftSerif;
options = 1;
},
{
type = Corner;
name = _corner.leftSerif;
},
{
scale = "{1, -1}";
type = Corner;
name = _corner.leftSerif;
options = 1;
},
{
type = Corner;
name = _corner.leftSerif;
},
{
scale = "{1, -1}";
type = Corner;
name = _corner.rightSerif;
options = 1;
},
{
type = Corner;
name = _corner.rightSerif;
},
{
scale = "{1, -1}";
type = Corner;
name = _corner.rightSerif;
options = 1;
},
{
type = Corner;
name = _corner.rightSerif;
},
{
scale = "{1, -1}";
type = Corner;
name = _corner.leftSerif;
options = 1;
},
{
type = Corner;
name = _corner.leftSerif;
},
{
scale = "{1, -1}";
type = Corner;
name = _corner.leftSerif;
options = 1;
},
{
type = Corner;
name = _corner.leftSerif;
},
{
scale = "{1, -1}";
type = Corner;
name = _corner.rightSerif;
options = 1;
},
{
type = Corner;
name = _corner.rightSerif;
},
{
scale = "{1, -1}";
type = Corner;
name = _corner.rightSerif;
options = 1;
},
{
type = Corner;
name = _corner.rightSerif;
},
{
scale = "{1, -1}";
type = Corner;
name = _corner.leftSerif;
options = 1;
},
{
type = Corner;
name = _corner.leftSerif;
},
{
scale = "{1, -1}";
type = Corner;
name = _corner.leftSerif;
options = 1;
},
{
type = Corner;
name = _corner.leftSerif;
},
{
scale = "{1, -1}";
type = Corner;
name = _corner.rightSerif;
options = 1;
},
{
type = Corner;
name = _corner.leftSerif;
},
{
scale = "{1, -1}";
type = Corner;
name = _corner.rightSerif;
options = 1;
},
{
type = Corner;
name = _corner.leftSerif;
},
{
scale = "{1, -1}";
type = Corner;
name = _corner.rightSerif;
options = 1;
},
{
type = Corner;
name = _corner.leftSerif;
},
{
scale = "{1, -1}";
type = Corner;
name = _corner.leftSerif;
options = 1;
},
{
type = Corner;
name = _corner.leftSerif;
},
{
scale = "{1, -1}";
type = Corner;
name = _corner.rightSerif;
options = 1;
},
{
type = Corner;
name = _corner.leftSerif;
},
{
scale = "{1, -1}";
type = Corner;
name = _corner.rightSerif;
options = 1;
},
{
type = Corner;
name = _corner.leftSerif;
},
{
scale = "{1, -1}";
type = Corner;
name = _corner.rightSerif;
options = 1;
},
{
type = Corner;
name = _corner.leftSerif;
},
{
scale = "{1, -1}";
type = Corner;
name = _corner.leftSerif;
options = 1;
},
{
type = Corner;
name = _corner.leftSerif;
},
{
scale = "{1, -1}";
type = Corner;
name = _corner.rightSerif;
options = 1;
},
{
type = Corner;
name = _corner.leftSerif;
},
{
scale = "{1, -1}";
type = Corner;
name = _corner.rightSerif;
options = 1;
},
{
type = Corner;
name = _corner.leftSerif;
},
{
type = Corner;
name = _corner.leftSerif;
},
{
scale = "{1, -1}";
type = Corner;
name = _corner.leftSerif;
options = 1;
},
{
type = Corner;
name = _corner.leftSerif;
},
{
scale = "{1, -1}";
type = Corner;
name = _corner.rightSerif;
options = 1;
},
{
type = Corner;
name = _corner.leftSerif;
},
{
scale = "{1, -1}";
type = Corner;
name = _corner.rightSerif;
options = 1;
},
{
type = Corner;
name = _corner.leftSerif;
}
);
paths = (
{
closed = 1;
nodes = (
"144 0 LINE",
"145 3 LINE",
"83 8 OFFCURVE",
"75 28 OFFCURVE",
"94 96 CURVE SMOOTH",
"242 614 LINE SMOOTH",
"258 671 OFFCURVE",
"277 692 OFFCURVE",
"333 697 CURVE",
"334 700 LINE",
"145 700 LINE",
"144 697 LINE",
"198 692 OFFCURVE",
"207 674 OFFCURVE",
"187 603 CURVE SMOOTH",
"41 93 LINE SMOOTH",
"23 32 OFFCURVE",
"-2 11 OFFCURVE",
"-57 3 CURVE",
"-58 0 LINE"
);
},
{
closed = 1;
nodes = (
"416 366 LINE",
"419 378 LINE",
"141 378 LINE",
"138 366 LINE"
);
},
{
closed = 1;
nodes = (
"404 0 LINE",
"405 3 LINE",
"355 7 OFFCURVE",
"336 26 OFFCURVE",
"354 89 CURVE SMOOTH",
"504 614 LINE SMOOTH",
"519 666 OFFCURVE",
"539 691 OFFCURVE",
"592 697 CURVE",
"593 700 LINE",
"414 700 LINE",
"413 697 LINE",
"457 692 OFFCURVE",
"471 680 OFFCURVE",
"450 607 CURVE SMOOTH",
"303 93 LINE SMOOTH",
"285 31 OFFCURVE",
"263 11 OFFCURVE",
"213 3 CURVE",
"212 0 LINE"
);
}
);
};
layerId = "800CF2A0-134E-4EC9-907D-CE3650520B0A";
paths = (
{
closed = 1;
nodes = (
"144 0 LINE",
"145 3 LINE",
"83 8 OFFCURVE",
"75 28 OFFCURVE",
"94 96 CURVE SMOOTH",
"242 614 LINE SMOOTH",
"258 671 OFFCURVE",
"277 692 OFFCURVE",
"333 697 CURVE",
"334 700 LINE",
"145 700 LINE",
"144 697 LINE",
"198 692 OFFCURVE",
"207 674 OFFCURVE",
"187 603 CURVE SMOOTH",
"41 93 LINE SMOOTH",
"23 32 OFFCURVE",
"-2 11 OFFCURVE",
"-57 3 CURVE",
"-58 0 LINE"
);
},
{
closed = 1;
nodes = (
"416 366 LINE",
"419 378 LINE",
"141 378 LINE",
"138 366 LINE"
);
},
{
closed = 1;
nodes = (
"404 0 LINE",
"405 3 LINE",
"355 7 OFFCURVE",
"336 26 OFFCURVE",
"354 89 CURVE SMOOTH",
"504 614 LINE SMOOTH",
"519 666 OFFCURVE",
"539 691 OFFCURVE",
"592 697 CURVE",
"593 700 LINE",
"414 700 LINE",
"413 697 LINE",
"457 692 OFFCURVE",
"471 680 OFFCURVE",
"450 607 CURVE SMOOTH",
"303 93 LINE SMOOTH",
"285 31 OFFCURVE",
"263 11 OFFCURVE",
"213 3 CURVE",
"212 0 LINE"
);
}
);
width = 486;
}
);
leftKerningGroup = H;
rightKerningGroup = H;
unicode = 0048;
},
{
glyphname = I;
lastChange = "2025-04-05 11:24:18 +0000";
layers = (
{
anchors = (
{
name = bottom;
position = "{43, 0}";
},
{
name = ogonek;
position = "{70, 0}";
},
{
name = top;
position = "{244, 700}";
},
{
name = topleft;
position = "{142, 700}";
}
);
background = {
anchors = (
{
name = bottom;
position = "{43, 0}";
},
{
name = ogonek;
position = "{70, 0}";
},
{
name = top;
position = "{244, 700}";
},
{
name = topleft;
position = "{142, 700}";
}
);
hints = (
{
scale = "{1, -1}";
type = Corner;
name = _corner.rightSerif;
options = 1;
},
{
type = Corner;
name = _corner.leftSerif;
},
{
scale = "{1, -1}";
type = Corner;
name = _corner.rightSerif;
options = 1;
},
{
type = Corner;
name = _corner.leftSerif;
},
{
scale = "{1, -1}";
type = Corner;
name = _corner.rightSerif;
options = 1;
},
{
type = Corner;
name = _corner.leftSerif;
},
{
scale = "{1, -1}";
type = Corner;
name = _corner.rightSerif;
options = 1;
},
{
type = Corner;
name = _corner.leftSerif;
},
{
scale = "{1, -1}";
type = Corner;
name = _corner.rightSerif;
options = 1;
},
{
type = Corner;
name = _corner.leftSerif;
},
{
scale = "{1, -1}";
type = Corner;
name = _corner.rightSerif;
options = 1;
},
{
type = Corner;
name = _corner.leftSerif;
},
{
scale = "{1, -1}";
type = Corner;
name = _corner.rightSerif;
options = 1;
},
{
type = Corner;
name = _corner.leftSerif;
},
{
scale = "{1, -1}";
type = Corner;
name = _corner.leftSerif;
options = 1;
},
{
type = Corner;
name = _corner.leftSerif;
}
);
paths = (
{
closed = 1;
nodes = (
"148 0 LINE",
"149 3 LINE",
"85 7 OFFCURVE",
"79 32 OFFCURVE",
"97 96 CURVE SMOOTH",
"245 614 LINE SMOOTH",
"260 667 OFFCURVE",
"277 693 OFFCURVE",
"339 697 CURVE",
"340 700 LINE",
"147 700 LINE",
"146 697 LINE",
"201 692 OFFCURVE",
"210 674 OFFCURVE",
"190 603 CURVE SMOOTH",
"44 93 LINE SMOOTH",
"26 32 OFFCURVE",
"1 11 OFFCURVE",
"-53 3 CURVE",
"-54 0 LINE"
);
}
);
};
layerId = "800CF2A0-134E-4EC9-907D-CE3650520B0A";
paths = (
{
closed = 1;
nodes = (
"148 0 LINE",
"149 3 LINE",
"85 7 OFFCURVE",
"79 32 OFFCURVE",
"97 96 CURVE SMOOTH",
"245 614 LINE SMOOTH",
"260 667 OFFCURVE",
"277 693 OFFCURVE",
"339 697 CURVE",
"340 700 LINE",
"147 700 LINE",
"146 697 LINE",
"201 692 OFFCURVE",
"210 674 OFFCURVE",
"190 603 CURVE SMOOTH",
"44 93 LINE SMOOTH",
"26 32 OFFCURVE",
"1 11 OFFCURVE",
"-53 3 CURVE",
"-54 0 LINE"
);
}
);
width = 230;
}
);
leftKerningGroup = H;
rightKerningGroup = H;
unicode = 0049;
},
{
glyphname = J;
lastChange = "2025-04-05 11:24:18 +0000";
layers = (
{
anchors = (
{
name = bottom;
position = "{43, 0}";
},
{
name = top;
position = "{244, 700}";
}
);
background = {
anchors = (
{
name = bottom;
position = "{43, 0}";
},
{
name = top;
position = "{244, 700}";
}
);
hints = (
{
type = Corner;
name = _corner.leftSerif;
},
{
scale = "{1, -1}";
type = Corner;
name = _corner.rightSerif;
options = 1;
},
{
type = Corner;
name = _corner.leftSerif;
},
{
scale = "{1, -1}";
type = Corner;
name = _corner.rightSerif;
options = 1;
},
{
type = Corner;
name = _corner.leftSerif;
},
{
scale = "{1, -1}";
type = Corner;
name = _corner.rightSerif;
options = 1;
},
{
type = Corner;
name = _corner.leftSerif;
},
{
scale = "{1, -1}";
type = Corner;
name = _corner.rightSerif;
options = 1;
},
{
type = Corner;
name = _corner.leftSerif;
},
{
scale = "{1, -1}";
type = Corner;
name = _corner.rightSerif;
options = 1;
},
{
type = Corner;
name = _corner.leftSerif;
},
{
scale = "{1, -1}";
type = Corner;
name = _corner.rightSerif;
options = 1;
},
{
type = Corner;
name = _corner.leftSerif;
},
{
scale = "{1, -1}";
type = Corner;
name = _corner.rightSerif;
options = 1;
},
{
type = Corner;
name = _corner.leftSerif;
},
{
scale = "{1, -1}";
type = Corner;
name = _corner.rightSerif;
options = 1;
},
{
type = Corner;
name = _corner.leftSerif;
},
{
scale = "{1, -1}";
type = Corner;
name = _corner.leftSerif;
options = 1;
},
{
type = Corner;
name = _corner.leftSerif;
},
{
scale = "{1, -1}";
type = Corner;
name = _corner.leftSerif;
options = 1;
},
{
type = Corner;
name = _corner.leftSerif;
},
{
scale = "{1, -1}";
type = Corner;
name = _corner.leftSerif;
options = 1;
},
{
type = Corner;
name = _corner.leftSerif;
},
{
scale = "{1, -1}";
type = Corner;
name = _corner.leftSerif;
options = 1;
},
{
type = Corner;
name = _corner.leftSerif;
},
{
scale = "{1, -1}";
type = Corner;
name = _corner.leftSerif;
options = 1;
},
{
type = Corner;
name = _corner.leftSerif;
},
{
scale = "{1, -1}";
type = Corner;
name = _corner.leftSerif;
options = 1;
}
);
paths = (
{
closed = 1;
nodes = (
"-1 -117 OFFCURVE",
"58 -47 OFFCURVE",
"86 50 CURVE SMOOTH",
"248 614 LINE SMOOTH",
"264 670 OFFCURVE",
"283 694 OFFCURVE",
"342 697 CURVE",
"343 700 LINE",
"150 700 LINE",
"149 697 LINE",
"204 692 OFFCURVE",
"213 674 OFFCURVE",
"193 603 CURVE SMOOTH",
"37 61 LINE SMOOTH",
"2 -62 OFFCURVE",
"-35 -116 OFFCURVE",
"-124 -184 CURVE",
"-120 -190 LINE"
);
}
);
};
layerId = "800CF2A0-134E-4EC9-907D-CE3650520B0A";
paths = (
{
closed = 1;
nodes = (
"-1 -117 OFFCURVE",
"58 -47 OFFCURVE",
"86 50 CURVE SMOOTH",
"248 614 LINE SMOOTH",
"264 670 OFFCURVE",
"283 694 OFFCURVE",
"342 697 CURVE",
"343 700 LINE",
"150 700 LINE",
"149 697 LINE",
"204 692 OFFCURVE",
"213 674 OFFCURVE",
"193 603 CURVE SMOOTH",
"37 61 LINE SMOOTH",
"2 -62 OFFCURVE",
"-35 -116 OFFCURVE",
"-124 -184 CURVE",
"-120 -190 LINE"
);
}
);
width = 230;
}
);
unicode = 004A;
},
{
glyphname = K;
lastChange = "2025-04-05 11:24:18 +0000";
layers = (
{
anchors = (
{
name = bottom;
position = "{195, 0}";
},
{
name = top;
position = "{343, 700}";
}
);
background = {
anchors = (
{
name = bottom;
position = "{195, 0}";
},
{
name = top;
position = "{343, 700}";
}
);
hints = (
{
scale = "{1, -1}";
type = Corner;
name = _corner.rightSerif;
options = 1;
},
{
type = Corner;
name = _corner.leftSerif;
},
{
scale = "{1, -1}";
type = Corner;
name = _corner.rightSerif;
options = 1;
},
{
type = Corner;
name = _corner.leftSerif;
},
{
scale = "{1, -1}";
type = Corner;
name = _corner.rightSerif;
options = 1;
},
{
type = Corner;
name = _corner.leftSerif;
},
{
scale = "{1, -1}";
type = Corner;
name = _corner.rightSerif;
options = 1;
},
{
type = Corner;
name = _corner.leftSerif;
},
{
scale = "{1, -1}";
type = Corner;
name = _corner.rightSerif;
options = 1;
},
{
type = Corner;
name = _corner.leftSerif;
},
{
scale = "{1, -1}";
type = Corner;
name = _corner.rightSerif;
options = 1;
},
{
type = Corner;
name = _corner.leftSerif;
},
{
scale = "{1, -1}";
type = Corner;
name = _corner.rightSerif;
options = 1;
},
{
type = Corner;
name = _corner.leftSerif;
},
{
scale = "{1, -1}";
type = Corner;
name = _corner.rightSerif;
options = 1;
},
{
type = Corner;
name = _corner.leftSerif;
},
{
scale = "{1, -1}";
type = Corner;
name = _corner.rightSerif;
options = 1;
},
{
type = Corner;
name = _corner.leftSerif;
},
{
scale = "{1, -1}";
type = Corner;
name = _corner.rightSerif;
options = 1;
},
{
type = Corner;
name = _corner.leftSerif;
},
{
scale = "{1, -1}";
type = Corner;
name = _corner.rightSerif;
options = 1;
},
{
type = Corner;
name = _corner.leftSerif;
},
{
scale = "{1, -1}";
type = Corner;
name = _corner.rightSerif;
options = 1;
},
{
type = Corner;
name = _corner.leftSerif;
},
{
scale = "{1, -1}";
type = Corner;
name = _corner.rightSerif;
options = 1;
},
{
type = Corner;
name = _corner.leftSerif;
},
{
scale = "{1, -1}";
type = Corner;
name = _corner.rightSerif;
options = 1;
},
{
type = Corner;
name = _corner.leftSerif;
},
{
scale = "{1, -1}";
type = Corner;
name = _corner.rightSerif;
options = 1;
},
{
type = Corner;
name = _corner.leftSerif;
},
{
scale = "{1, -1}";
type = Corner;
name = _corner.rightSerif;
options = 1;
},
{
type = Corner;
name = _corner.leftSerif;
},
{
scale = "{1, -1}";
type = Corner;
name = _corner.rightSerif;
options = 1;
},
{
type = Corner;
name = _corner.leftSerif;
},
{
scale = "{1, -1}";
type = Corner;
name = _corner.rightSerif;
options = 1;
},
{
type = Corner;
name = _corner.leftSerif;
},
{
scale = "{1, -1}";
type = Corner;
name = _corner.rightSerif;
options = 1;
},
{
type = Corner;
name = _corner.leftSerif;
},
{
scale = "{1, -1}";
type = Corner;
name = _corner.rightSerif;
options = 1;
},
{
type = Corner;
name = _corner.leftSerif;
},
{
scale = "{1, -1}";
type = Corner;
name = _corner.rightSerif;
options = 1;
},
{
type = Corner;
name = _corner.leftSerif;
},
{
scale = "{1, -1}";
type = Corner;
name = _corner.rightSerif;
options = 1;
},
{
type = Corner;
name = _corner.leftSerif;
},
{
scale = "{1, -1}";
type = Corner;
name = _corner.rightSerif;
options = 1;
},
{
type = Corner;
name = _corner.leftSerif;
},
{
scale = "{1, -1}";
type = Corner;
name = _corner.rightSerif;
options = 1;
},
{
type = Corner;
name = _corner.leftSerif;
},
{
scale = "{1, -1}";
type = Corner;
name = _corner.rightSerif;
options = 1;
},
{
type = Corner;
name = _corner.leftSerif;
},
{
scale = "{1, -1}";
type = Corner;
name = _corner.rightSerif;
options = 1;
},
{
type = Corner;
name = _corner.leftSerif;
},
{
scale = "{1, -1}";
type = Corner;
name = _corner.rightSerif;
options = 1;
},
{
type = Corner;
name = _corner.leftSerif;
},
{
scale = "{1, -1}";
type = Corner;
name = _corner.rightSerif;
options = 1;
},
{
type = Corner;
name = _corner.leftSerif;
},
{
scale = "{1, -1}";
type = Corner;
name = _corner.rightSerif;
options = 1;
},
{
type = Corner;
name = _corner.leftSerif;
},
{
scale = "{1, -1}";
type = Corner;
name = _corner.rightSerif;
options = 1;
},
{
type = Corner;
name = _corner.leftSerif;
},
{
scale = "{1, -1}";
type = Corner;
name = _corner.rightSerif;
options = 1;
},
{
type = Corner;
name = _corner.leftSerif;
},
{
scale = "{1, -1}";
type = Corner;
name = _corner.rightSerif;
options = 1;
},
{
type = Corner;
name = _corner.leftSerif;
},
{
scale = "{1, -1}";
type = Corner;
name = _corner.rightSerif;
options = 1;
},
{
type = Corner;
name = _corner.leftSerif;
},
{
scale = "{1, -1}";
type = Corner;
name = _corner.rightSerif;
options = 1;
},
{
type = Corner;
name = _corner.leftSerif;
},
{
scale = "{1, -1}";
type = Corner;
name = _corner.rightSerif;
options = 1;
},
{
type = Corner;
name = _corner.leftSerif;
},
{
scale = "{1, -1}";
type = Corner;
name = _corner.rightSerif;
options = 1;
},
{
type = Corner;
name = _corner.leftSerif;
},
{
scale = "{1, -1}";
type = Corner;
name = _corner.rightSerif;
options = 1;
},
{
type = Corner;
name = _corner.leftSerif;
},
{
scale = "{1, -1}";
type = Corner;
name = _corner.rightSerif;
options = 1;
},
{
type = Corner;
name = _corner.leftSerif;
},
{
scale = "{1, -1}";
type = Corner;
name = _corner.rightSerif;
options = 1;
},
{
type = Corner;
name = _corner.leftSerif;
},
{
scale = "{1, -1}";
type = Corner;
name = _corner.rightSerif;
options = 1;
},
{
type = Corner;
name = _corner.leftSerif;
},
{
scale = "{1, -1}";
type = Corner;
name = _corner.rightSerif;
options = 1;
},
{
type = Corner;
name = _corner.leftSerif;
},
{
scale = "{1, -1}";
type = Corner;
name = _corner.rightSerif;
options = 1;
},
{
type = Corner;
name = _corner.leftSerif;
},
{
scale = "{1, -1}";
type = Corner;
name = _corner.rightSerif;
options = 1;
},
{
type = Corner;
name = _corner.leftSerif;
},
{
scale = "{1, -1}";
type = Corner;
name = _corner.rightSerif;
options = 1;
},
{
type = Corner;
name = _corner.leftSerif;
},
{
scale = "{1, -1}";
type = Corner;
name = _corner.rightSerif;
options = 1;
},
{
type = Corner;
name = _corner.leftSerif;
},
{
scale = "{1, -1}";
type = Corner;
name = _corner.rightSerif;
options = 1;
},
{
type = Corner;
name = _corner.leftSerif;
},
{
scale = "{1, -1}";
type = Corner;
name = _corner.rightSerif;
options = 1;
},
{
type = Corner;
name = _corner.leftSerif;
},
{
scale = "{1, -1}";
type = Corner;
name = _corner.rightSerif;
options = 1;
},
{
type = Corner;
name = _corner.leftSerif;
},
{
scale = "{1, -1}";
type = Corner;
name = _corner.rightSerif;
options = 1;
},
{
type = Corner;
name = _corner.leftSerif;
},
{
scale = "{1, -1}";
type = Corner;
name = _corner.rightSerif;
options = 1;
},
{
type = Corner;
name = _corner.leftSerif;
},
{
scale = "{1, -1}";
type = Corner;
name = _corner.rightSerif;
options = 1;
},
{
type = Corner;
name = _corner.leftSerif;
},
{
scale = "{1, -1}";
type = Corner;
name = _corner.rightSerif;
options = 1;
},
{
type = Corner;
name = _corner.leftSerif;
},
{
scale = "{1, -1}";
type = Corner;
name = _corner.rightSerif;
options = 1;
},
{
type = Corner;
name = _corner.leftSerif;
},
{
scale = "{1, -1}";
type = Corner;
name = _corner.rightSerif;
options = 1;
},
{
type = Corner;
name = _corner.leftSerif;
},
{
scale = "{1, -1}";
type = Corner;
name = _corner.rightSerif;
options = 1;
},
{
type = Corner;
name = _corner.leftSerif;
},
{
scale = "{1, -1}";
type = Corner;
name = _corner.rightSerif;
options = 1;
},
{
type = Corner;
name = _corner.leftSerif;
},
{
scale = "{1, -1}";
type = Corner;
name = _corner.rightSerif;
options = 1;
},
{
type = Corner;
name = _corner.leftSerif;
},
{
scale = "{1, -1}";
type = Corner;
name = _corner.rightSerif;
options = 1;
},
{
type = Corner;
name = _corner.leftSerif;
},
{
scale = "{1, -1}";
type = Corner;
name = _corner.rightSerif;
options = 1;
},
{
type = Corner;
name = _corner.leftSerif;
},
{
scale = "{1, -1}";
type = Corner;
name = _corner.rightSerif;
options = 1;
},
{
type = Corner;
name = _corner.leftSerif;
},
{
scale = "{1, -1}";
type = Corner;
name = _corner.rightSerif;
options = 1;
},
{
type = Corner;
name = _corner.leftSerif;
},
{
scale = "{1, -1}";
type = Corner;
name = _corner.rightSerif;
options = 1;
},
{
type = Corner;
name = _corner.leftSerif;
},
{
scale = "{1, -1}";
type = Corner;
name = _corner.rightSerif;
options = 1;
},
{
type = Corner;
name = _corner.leftSerif;
},
{
scale = "{1, -1}";
type = Corner;
name = _corner.rightSerif;
options = 1;
},
{
type = Corner;
name = _corner.leftSerif;
},
{
scale = "{1, -1}";
type = Corner;
name = _corner.rightSerif;
options = 1;
},
{
type = Corner;
name = _corner.leftSerif;
},
{
scale = "{1, -1}";
type = Corner;
name = _corner.rightSerif;
options = 1;
},
{
type = Corner;
name = _corner.leftSerif;
},
{
scale = "{1, -1}";
type = Corner;
name = _corner.rightSerif;
options = 1;
},
{
type = Corner;
name = _corner.leftSerif;
},
{
scale = "{1, -1}";
type = Corner;
name = _corner.rightSerif;
options = 1;
},
{
type = Corner;
name = _corner.leftSerif;
},
{
scale = "{1, -1}";
type = Corner;
name = _corner.rightSerif;
options = 1;
},
{
type = Corner;
name = _corner.leftSerif;
},
{
scale = "{1, -1}";
type = Corner;
name = _corner.rightSerif;
options = 1;
},
{
type = Corner;
name = _corner.leftSerif;
},
{
scale = "{1, -1}";
type = Corner;
name = _corner.rightSerif;
options = 1;
},
{
type = Corner;
name = _corner.leftSerif;
},
{
scale = "{1, -1}";
type = Corner;
name = _corner.rightSerif;
options = 1;
},
{
type = Corner;
name = _corner.leftSerif;
},
{
scale = "{1, -1}";
type = Corner;
name = _corner.rightSerif;
options = 1;
},
{
type = Corner;
name = _corner.leftSerif;
},
{
scale = "{1, -1}";
type = Corner;
name = _corner.rightSerif;
options = 1;
},
{
type = Corner;
name = _corner.leftSerif;
},
{
scale = "{1, -1}";
type = Corner;
name = _corner.rightSerif;
options = 1;
},
{
type = Corner;
name = _corner.leftSerif;
},
{
scale = "{1, -1}";
type = Corner;
name = _corner.rightSerif;
options = 1;
},
{
type = Corner;
name = _corner.leftSerif;
},
{
scale = "{1, -1}";
type = Corner;
name = _corner.rightSerif;
options = 1;
},
{
type = Corner;
name = _corner.leftSerif;
},
{
scale = "{1, -1}";
type = Corner;
name = _corner.rightSerif;
options = 1;
},
{
type = Corner;
name = _corner.leftSerif;
},
{
scale = "{1, -1}";
type = Corner;
name = _corner.rightSerif;
options = 1;
},
{
type = Corner;
name = _corner.leftSerif;
},
{
scale = "{1, -1}";
type = Corner;
name = _corner.rightSerif;
options = 1;
},
{
type = Corner;
name = _corner.leftSerif;
},
{
scale = "{1, -1}";
type = Corner;
name = _corner.rightSerif;
options = 1;
},
{
type = Corner;
name = _corner.leftSerif;
},
{
scale = "{1, -1}";
type = Corner;
name = _corner.rightSerif;
options = 1;
},
{
type = Corner;
name = _corner.leftSerif;
},
{
scale = "{1, -1}";
type = Corner;
name = _corner.rightSerif;
options = 1;
},
{
type = Corner;
name = _corner.leftSerif;
},
{
scale = "{1, -1}";
type = Corner;
name = _corner.rightSerif;
options = 1;
},
{
type = Corner;
name = _corner.leftSerif;
},
{
scale = "{1, -1}";
type = Corner;
name = _corner.rightSerif;
options = 1;
},
{
type = Corner;
name = _corner.leftSerif;
},
{
scale = "{1, -1}";
type = Corner;
name = _corner.rightSerif;
options = 1;
},
{
type = Corner;
name = _corner.leftSerif;
},
{
scale = "{1, -1}";
type = Corner;
name = _corner.rightSerif;
options = 1;
},
{
type = Corner;
name = _corner.leftSerif;
},
{
scale = "{1, -1}";
type = Corner;
name = _corner.rightSerif;
options = 1;
},
{
type = Corner;
name = _corner.leftSerif;
},
{
scale = "{1, -1}";
type = Corner;
name = _corner.rightSerif;
options = 1;
},
{
type = Corner;
name = _corner.leftSerif;
},
{
scale = "{1, -1}";
type = Corner;
name = _corner.rightSerif;
options = 1;
},
{
type = Corner;
name = _corner.leftSerif;
},
{
scale = "{1, -1}";
type = Corner;
name = _corner.rightSerif;
options = 1;
},
{
type = Corner;
name = _corner.leftSerif;
},
{
scale = "{1, -1}";
type = Corner;
name = _corner.rightSerif;
options = 1;
},
{
type = Corner;
name = _corner.leftSerif;
},
{
scale = "{1, -1}";
type = Corner;
name = _corner.rightSerif;
options = 1;
},
{
type = Corner;
name = _corner.leftSerif;
},
{
scale = "{1, -1}";
type = Corner;
name = _corner.rightSerif;
options = 1;
},
{
type = Corner;
name = _corner.leftSerif;
},
{
scale = "{1, -1}";
type = Corner;
name = _corner.rightSerif;
options = 1;
},
{
type = Corner;
name = _corner.leftSerif;
},
{
scale = "{1, -1}";
type = Corner;
name = _corner.rightSerif;
options = 1;
},
{
type = Corner;
name = _corner.leftSerif;
},
{
scale = "{1, -1}";
type = Corner;
name = _corner.rightSerif;
options = 1;
},
{
type = Corner;
name = _corner.leftSerif;
},
{
scale = "{1, -1}";
type = Corner;
name = _corner.rightSerif;
options = 1;
},
{
type = Corner;
name = _corner.leftSerif;
},
{
scale = "{1, -1}";
type = Corner;
name = _corner.rightSerif;
options = 1;
},
{
type = Corner;
name = _corner.leftSerif;
},
{
scale = "{1, -1}";
type = Corner;
name = _corner.rightSerif;
options = 1;
},
{
type = Corner;
name = _corner.leftSerif;
},
{
scale = "{1, -1}";
type = Corner;
name = _corner.rightSerif;
options = 1;
},
{
type = Corner;
name = _corner.leftSerif;
},
{
scale = "{1, -1}";
type = Corner;
name = _corner.rightSerif;
options = 1;
},
{
type = Corner;
name = _corner.leftSerif;
},
{
scale = "{1, -1}";
type = Corner;
name = _corner.rightSerif;
options = 1;
},
{
type = Corner;
name = _corner.leftSerif;
},
{
scale = "{1, -1}";
type = Corner;
name = _corner.rightSerif;
options = 1;
},
{
type = Corner;
name = _corner.leftSerif;
},
{
scale = "{1, -1}";
type = Corner;
name = _corner.rightSerif;
options = 1;
},
{
type = Corner;
name = _corner.leftSerif;
},
{
scale = "{1, -1}";
type = Corner;
name = _corner.rightSerif;
options = 1;
},
{
type = Corner;
name = _corner.leftSerif;
},
{
scale = "{1, -1}";
type = Corner;
name = _corner.rightSerif;
options = 1;
},
{
type = Corner;
name = _corner.leftSerif;
},
{
scale = "{1, -1}";
type = Corner;
name = _corner.rightSerif;
options = 1;
},
{
type = Corner;
name = _corner.leftSerif;
},
{
scale = "{1, -1}";
type = Corner;
name = _corner.rightSerif;
options = 1;
},
{
type = Corner;
name = _corner.leftSerif;
},
{
scale = "{1, -1}";
type = Corner;
name = _corner.rightSerif;
options = 1;
},
{
type = Corner;
name = _corner.leftSerif;
},
{
scale = "{1, -1}";
type = Corner;
name = _corner.rightSerif;
options = 1;
},
{
type = Corner;
name = _corner.leftSerif;
},
{
scale = "{1, -1}";
type = Corner;
name = _corner.rightSerif;
options = 1;
},
{
type = Corner;
name = _corner.leftSerif;
},
{
scale = "{1, -1}";
type = Corner;
name = _corner.rightSerif;
options = 1;
},
{
type = Corner;
name = _corner.leftSerif;
},
{
scale = "{1, -1}";
type = Corner;
name = _corner.rightSerif;
options = 1;
},
{
type = Corner;
name = _corner.leftSerif;
},
{
scale = "{1, -1}";
type = Corner;
name = _corner.rightSerif;
options = 1;
},
{
type = Corner;
name = _corner.leftSerif;
},
{
scale = "{1, -1}";
type = Corner;
name = _corner.rightSerif;
options = 1;
},
{
type = Corner;
name = _corner.leftSerif;
},
{
scale = "{1, -1}";
type = Corner;
name = _corner.rightSerif;
options = 1;
},
{
type = Corner;
name = _corner.leftSerif;
},
{
scale = "{1, -1}";
type = Corner;
name = _corner.rightSerif;
options = 1;
},
{
type = Corner;
name = _corner.leftSerif;
},
{
scale = "{1, -1}";
type = Corner;
name = _corner.rightSerif;
options = 1;
},
{
type = Corner;
name = _corner.leftSerif;
},
{
scale = "{1, -1}";
type = Corner;
name = _corner.rightSerif;
options = 1;
},
{
type = Corner;
name = _corner.leftSerif;
},
{
scale = "{1, -1}";
type = Corner;
name = _corner.rightSerif;
options = 1;
},
{
type = Corner;
name = _corner.leftSerif;
},
{
scale = "{1, -1}";
type = Corner;
name = _corner.rightSerif;
options = 1;
},
{
type = Corner;
name = _corner.leftSerif;
},
{
scale = "{1, -1}";
type = Corner;
name = _corner.rightSerif;
options = 1;
},
{
type = Corner;
name = _corner.leftSerif;
},
{
scale = "{1, -1}";
type = Corner;
name = _corner.rightSerif;
options = 1;
},
{
type = Corner;
name = _corner.leftSerif;
},
{
scale = "{1, -1}";
type = Corner;
name = _corner.rightSerif;
options = 1;
},
{
type = Corner;
name = _corner.leftSerif;
},
{
scale = "{1, -1}";
type = Corner;
name = _corner.rightSerif;
options = 1;
},
{
type = Corner;
name = _corner.leftSerif;
},
{
scale = "{1, -1}";
type = Corner;
name = _corner.rightSerif;
options = 1;
},
{
type = Corner;
name = _corner.leftSerif;
},
{
scale = "{1, -1}";
type = Corner;
name = _corner.rightSerif;
options = 1;
},
{
type = Corner;
name = _corner.leftSerif;
},
{
scale = "{1, -1}";
type = Corner;
name = _corner.rightSerif;
options = 1;
},
{
type = Corner;
name = _corner.leftSerif;
},
{
scale = "{1, -1}";
type = Corner;
name = _corner.rightSerif;
options = 1;
},
{
type = Corner;
name = _corner.leftSerif;
},
{
scale = "{1, -1}";
type = Corner;
name = _corner.rightSerif;
options = 1;
},
{
type = Corner;
name = _corner.leftSerif;
},
{
scale = "{1, -1}";
type = Corner;
name = _corner.rightSerif;
options = 1;
},
{
type = Corner;
name = _corner.leftSerif;
},
{
scale = "{1, -1}";
type = Corner;
name = _corner.rightSerif;
options = 1;
},
{
type = Corner;
name = _corner.leftSerif;
},
{
scale = "{1, -1}";
type = Corner;
name = _corner.rightSerif;
options = 1;
},
{
type = Corner;
name = _corner.leftSerif;
},
{
scale = "{1, -1}";
type = Corner;
name = _corner.rightSerif;
options = 1;
},
{
type = Corner;
name = _corner.leftSerif;
},
{
scale = "{1, -1}";
type = Corner;
name = _corner.rightSerif;
options = 1;
},
{
type = Corner;
name = _corner.leftSerif;
},
{
scale = "{1, -1}";
type = Corner;
name = _corner.rightSerif;
options = 1;
},
{
type = Corner;
name = _corner.leftSerif;
},
{
scale = "{1, -1}";
type = Corner;
name = _corner.rightSerif;
options = 1;
},
{
type = Corner;
name = _corner.leftSerif;
}
);
paths = (
{
closed = 1;
nodes = (
"144 0 LINE",
"145 3 LINE",
"80 7 OFFCURVE",
"76 33 OFFCURVE",
"94 97 CURVE SMOOTH",
"242 614 LINE SMOOTH",
"257 667 OFFCURVE",
"274 692 OFFCURVE",
"333 697 CURVE",
"334 700 LINE",
"145 700 LINE",
"144 697 LINE",
"198 692 OFFCURVE",
"207 674 OFFCURVE",
"187 603 CURVE SMOOTH",
"41 93 LINE SMOOTH",
"23 32 OFFCURVE",
"-2 11 OFFCURVE",
"-57 3 CURVE",
"-58 0 LINE"
);
},
{
closed = 1;
nodes = (
"420 0 LINE",
"421 3 LINE",
"370 9 OFFCURVE",
"351 26 OFFCURVE",
"336 92 CURVE SMOOTH",
"258 440 LINE",
"219 392 LINE",
"304 0 LINE"
);
},
{
closed = 1;
nodes = (
"355 512 LINE SMOOTH",
"414 572 OFFCURVE",
"467 622 OFFCURVE",
"520 674 CURVE",
"485 708 LINE",
"435 647 OFFCURVE",
"385 586 OFFCURVE",
"337 531 CURVE SMOOTH",
"154 323 LINE",
"149 306 LINE"
);
}
);
};
layerId = "800CF2A0-134E-4EC9-907D-CE3650520B0A";
paths = (
{
closed = 1;
nodes = (
"144 0 LINE",
"145 3 LINE",
"80 7 OFFCURVE",
"76 33 OFFCURVE",
"94 97 CURVE SMOOTH",
"242 614 LINE SMOOTH",
"257 667 OFFCURVE",
"274 692 OFFCURVE",
"333 697 CURVE",
"334 700 LINE",
"145 700 LINE",
"144 697 LINE",
"198 692 OFFCURVE",
"207 674 OFFCURVE",
"187 603 CURVE SMOOTH",
"41 93 LINE SMOOTH",
"23 32 OFFCURVE",
"-2 11 OFFCURVE",
"-57 3 CURVE",
"-58 0 LINE"
);
},
{
closed = 1;
nodes = (
"420 0 LINE",
"421 3 LINE",
"370 9 OFFCURVE",
"351 26 OFFCURVE",
"336 92 CURVE SMOOTH",
"258 440 LINE",
"219 392 LINE",
"304 0 LINE"
);
},
{
closed = 1;
nodes = (
"355 512 LINE SMOOTH",
"414 572 OFFCURVE",
"467 622 OFFCURVE",
"520 674 CURVE",
"485 708 LINE",
"435 647 OFFCURVE",
"385 586 OFFCURVE",
"337 531 CURVE SMOOTH",
"154 323 LINE",
"149 306 LINE"
);
}
);
width = 428;
}
);
leftKerningGroup = H;
leftMetricsKey = H;
unicode = 004B;
},
{
glyphname = L;
lastChange = "2025-04-05 11:24:18 +0000";
layers = (
{
anchors = (
{
name = bottom;
position = "{147, 0}";
},
{
name = center;
position = "{208, 350}";
},
{
name = top;
position = "{243, 700}";
},
{
name = topright;
position = "{467, 700}";
}
);
background = {
anchors = (
{
name = bottom;
position = "{147, 0}";
},
{
name = center;
position = "{208, 350}";
},
{
name = top;
position = "{243, 700}";
},
{
name = topright;
position = "{467, 700}";
}
);
hints = (
{
type = Corner;
name = _corner.leftSerif;
},
{
scale = "{1, -1}";
type = Corner;
name = _corner.leftSerif;
options = 1;
},
{
type = Corner;
name = _corner.leftSerif;
},
{
type = Corner;
name = _corner.leftSerif;
},
{
scale = "{1, -1}";
type = Corner;
name = _corner.leftSerif;
options = 1;
},
{
type = Corner;
name = _corner.leftSerif;
},
{
type = Corner;
name = _corner.leftSerif;
},
{
scale = "{1, -1}";
type = Corner;
name = _corner.leftSerif;
options = 1;
},
{
type = Corner;
name = _corner.leftSerif;
},
{
type = Corner;
name = _corner.leftSerif;
},
{
scale = "{1, -1}";
type = Corner;
name = _corner.leftSerif;
options = 1;
},
{
type = Corner;
name = _corner.leftSerif;
},
{
type = Corner;
name = _corner.leftSerif;
},
{
scale = "{1, -1}";
type = Corner;
name = _corner.leftSerif;
options = 1;
},
{
type = Corner;
name = _corner.leftSerif;
},
{
type = Corner;
name = _corner.leftSerif;
},
{
scale = "{1, -1}";
type = Corner;
name = _corner.leftSerif;
options = 1;
},
{
type = Corner;
name = _corner.leftSerif;
},
{
type = Corner;
name = _corner.leftSerif;
},
{
scale = "{1, -1}";
type = Corner;
name = _corner.leftSerif;
options = 1;
},
{
type = Corner;
name = _corner.leftSerif;
},
{
type = Corner;
name = _corner.leftSerif;
},
{
scale = "{1, -1}";
type = Corner;
name = _corner.leftSerif;
options = 1;
},
{
type = Corner;
name = _corner.leftSerif;
},
{
scale = "{1, -1}";
type = Corner;
name = _corner.rightSerif;
options = 1;
},
{
type = Corner;
name = _corner.leftSerif;
},
{
type = Corner;
name = _corner.leftSerif;
},
{
scale = "{1, -1}";
type = Corner;
name = _corner.leftSerif;
options = 1;
},
{
type = Corner;
name = _corner.leftSerif;
},
{
type = Corner;
name = _corner.leftSerif;
},
{
scale = "{1, -1}";
type = Corner;
name = _corner.leftSerif;
options = 1;
},
{
type = Corner;
name = _corner.leftSerif;
},
{
type = Corner;
name = _corner.leftSerif;
},
{
scale = "{1, -1}";
type = Corner;
name = _corner.leftSerif;
options = 1;
},
{
type = Corner;
name = _corner.leftSerif;
},
{
type = Corner;
name = _corner.leftSerif;
},
{
scale = "{1, -1}";
type = Corner;
name = _corner.leftSerif;
options = 1;
},
{
type = Corner;
name = _corner.leftSerif;
},
{
type = Corner;
name = _corner.leftSerif;
},
{
scale = "{1, -1}";
type = Corner;
name = _corner.leftSerif;
options = 1;
},
{
type = Corner;
name = _corner.leftSerif;
},
{
type = Corner;
name = _corner.leftSerif;
},
{
scale = "{1, -1}";
type = Corner;
name = _corner.leftSerif;
options = 1;
},
{
type = Corner;
name = _corner.leftSerif;
},
{
type = Corner;
name = _corner.leftSerif;
},
{
scale = "{1, -1}";
type = Corner;
name = _corner.leftSerif;
options = 1;
},
{
type = Corner;
name = _corner.leftSerif;
},
{
type = Corner;
name = _corner.leftSerif;
},
{
scale = "{1, -1}";
type = Corner;
name = _corner.leftSerif;
options = 1;
},
{
type = Corner;
name = _corner.leftSerif;
},
{
type = Corner;
name = _corner.leftSerif;
},
{
scale = "{1, -1}";
type = Corner;
name = _corner.leftSerif;
options = 1;
},
{
type = Corner;
name = _corner.leftSerif;
},
{
type = Corner;
name = _corner.leftSerif;
},
{
scale = "{1, -1}";
type = Corner;
name = _corner.leftSerif;
options = 1;
},
{
type = Corner;
name = _corner.leftSerif;
},
{
type = Corner;
name = _corner.leftSerif;
},
{
scale = "{1, -1}";
type = Corner;
name = _corner.leftSerif;
options = 1;
},
{
type = Corner;
name = _corner.leftSerif;
},
{
scale = "{1, -1}";
type = Corner;
name = _corner.leftSerif;
options = 1;
},
{
type = Corner;
name = _corner.leftSerif;
},
{
type = Corner;
name = _corner.leftSerif;
},
{
scale = "{1, -1}";
type = Corner;
name = _corner.leftSerif;
options = 1;
},
{
type = Corner;
name = _corner.leftSerif;
},
{
scale = "{1, -1}";
type = Corner;
name = _corner.leftSerif;
options = 1;
},
{
type = Corner;
name = _corner.leftSerif;
},
{
type = Corner;
name = _corner.leftSerif;
},
{
scale = "{1, -1}";
type = Corner;
name = _corner.leftSerif;
options = 1;
},
{
type = Corner;
name = _corner.leftSerif;
},
{
type = Corner;
name = _corner.leftSerif;
},
{
type = Corner;
name = _corner.leftSerif;
},
{
type = Corner;
name = _corner.leftSerif;
},
{
type = Corner;
name = _corner.leftSerif;
},
{
type = Corner;
name = _corner.leftSerif;
}
);
paths = (
{
closed = 1;
nodes = (
"249 -29 LINE",
"349 222 LINE",
"346 222 LINE",
"252 49 OFFCURVE",
"229 11 OFFCURVE",
"162 11 CURVE SMOOTH",
"137 11 LINE SMOOTH",
"87 11 OFFCURVE",
"75 29 OFFCURVE",
"92 89 CURVE SMOOTH",
"242 614 LINE SMOOTH",
"258 669 OFFCURVE",
"279 693 OFFCURVE",
"341 697 CURVE",
"342 700 LINE",
"145 700 LINE",
"144 697 LINE",
"198 692 OFFCURVE",
"207 674 OFFCURVE",
"187 603 CURVE SMOOTH",
"41 93 LINE SMOOTH",
"23 31 OFFCURVE",
"-1 12 OFFCURVE",
"-57 3 CURVE",
"-58 0 LINE",
"199 0 LINE SMOOTH",
"231 0 OFFCURVE",
"244 -8 OFFCURVE",
"246 -29 CURVE"
);
}
);
};
layerId = "800CF2A0-134E-4EC9-907D-CE3650520B0A";
paths = (
{
closed = 1;
nodes = (
"249 -29 LINE",
"349 222 LINE",
"346 222 LINE",
"252 49 OFFCURVE",
"229 11 OFFCURVE",
"162 11 CURVE SMOOTH",
"137 11 LINE SMOOTH",
"87 11 OFFCURVE",
"75 29 OFFCURVE",
"92 89 CURVE SMOOTH",
"242 614 LINE SMOOTH",
"258 669 OFFCURVE",
"279 693 OFFCURVE",
"341 697 CURVE",
"342 700 LINE",
"145 700 LINE",
"144 697 LINE",
"198 692 OFFCURVE",
"207 674 OFFCURVE",
"187 603 CURVE SMOOTH",
"41 93 LINE SMOOTH",
"23 31 OFFCURVE",
"-1 12 OFFCURVE",
"-57 3 CURVE",
"-58 0 LINE",
"199 0 LINE SMOOTH",
"231 0 OFFCURVE",
"244 -8 OFFCURVE",
"246 -29 CURVE"
);
}
);
width = 358;
}
);
leftKerningGroup = H;
leftMetricsKey = H;
rightKerningGroup = L;
unicode = 004C;
},
{
glyphname = M;
lastChange = "2025-04-05 11:24:18 +0000";
layers = (
{
background = {
hints = (
{
scale = "{1, -1}";
type = Corner;
name = _corner.rightSerif;
options = 1;
},
{
scale = "{1, -1}";
type = Corner;
name = _corner.rightSerif;
options = 1;
},
{
type = Corner;
name = _corner.leftSerif;
},
{
scale = "{1, -1}";
type = Corner;
name = _corner.rightSerif;
options = 1;
},
{
type = Corner;
name = _corner.rightSerif;
},
{
type = Corner;
name = _corner.leftSerif;
},
{
scale = "{1, -1}";
type = Corner;
name = _corner.rightSerif;
options = 1;
},
{
scale = "{1, -1}";
type = Corner;
name = _corner.rightSerif;
options = 1;
},
{
type = Corner;
name = _corner.leftSerif;
},
{
scale = "{1, -1}";
type = Corner;
name = _corner.rightSerif;
options = 1;
},
{
type = Corner;
name = _corner.rightSerif;
},
{
type = Corner;
name = _corner.leftSerif;
},
{
scale = "{1, -1}";
type = Corner;
name = _corner.rightSerif;
options = 1;
},
{
scale = "{1, -1}";
type = Corner;
name = _corner.rightSerif;
options = 1;
},
{
type = Corner;
name = _corner.leftSerif;
},
{
scale = "{1, -1}";
type = Corner;
name = _corner.rightSerif;
options = 1;
},
{
type = Corner;
name = _corner.rightSerif;
},
{
type = Corner;
name = _corner.leftSerif;
},
{
scale = "{1, -1}";
type = Corner;
name = _corner.rightSerif;
options = 1;
},
{
scale = "{1, -1}";
type = Corner;
name = _corner.rightSerif;
options = 1;
},
{
type = Corner;
name = _corner.leftSerif;
},
{
scale = "{1, -1}";
type = Corner;
name = _corner.rightSerif;
options = 1;
},
{
type = Corner;
name = _corner.rightSerif;
},
{
type = Corner;
name = _corner.leftSerif;
},
{
scale = "{1, -1}";
type = Corner;
name = _corner.rightSerif;
options = 1;
},
{
scale = "{1, -1}";
type = Corner;
name = _corner.rightSerif;
options = 1;
},
{
type = Corner;
name = _corner.leftSerif;
},
{
scale = "{1, -1}";
type = Corner;
name = _corner.rightSerif;
options = 1;
},
{
type = Corner;
name = _corner.rightSerif;
},
{
type = Corner;
name = _corner.leftSerif;
},
{
scale = "{1, -1}";
type = Corner;
name = _corner.rightSerif;
options = 1;
},
{
scale = "{1, -1}";
type = Corner;
name = _corner.rightSerif;
options = 1;
},
{
type = Corner;
name = _corner.leftSerif;
},
{
scale = "{1, -1}";
type = Corner;
name = _corner.rightSerif;
options = 1;
},
{
type = Corner;
name = _corner.rightSerif;
},
{
type = Corner;
name = _corner.leftSerif;
},
{
scale = "{1, -1}";
type = Corner;
name = _corner.rightSerif;
options = 1;
},
{
scale = "{1, -1}";
type = Corner;
name = _corner.rightSerif;
options = 1;
},
{
type = Corner;
name = _corner.leftSerif;
},
{
scale = "{1, -1}";
type = Corner;
name = _corner.rightSerif;
options = 1;
},
{
type = Corner;
name = _corner.rightSerif;
},
{
type = Corner;
name = _corner.leftSerif;
},
{
scale = "{1, -1}";
type = Corner;
name = _corner.rightSerif;
options = 1;
},
{
scale = "{1, -1}";
type = Corner;
name = _corner.rightSerif;
options = 1;
},
{
type = Corner;
name = _corner.leftSerif;
},
{
scale = "{1, -1}";
type = Corner;
name = _corner.rightSerif;
options = 1;
},
{
type = Corner;
name = _corner.rightSerif;
},
{
type = Corner;
name = _corner.leftSerif;
},
{
scale = "{1, -1}";
type = Corner;
name = _corner.rightSerif;
options = 1;
},
{
scale = "{1, -1}";
type = Corner;
name = _corner.rightSerif;
options = 1;
},
{
type = Corner;
name = _corner.leftSerif;
},
{
scale = "{1, -1}";
type = Corner;
name = _corner.rightSerif;
options = 1;
},
{
type = Corner;
name = _corner.rightSerif;
},
{
type = Corner;
name = _corner.leftSerif;
},
{
scale = "{1, -1}";
type = Corner;
name = _corner.rightSerif;
options = 1;
},
{
scale = "{1, -1}";
type = Corner;
name = _corner.rightSerif;
options = 1;
},
{
type = Corner;
name = _corner.leftSerif;
},
{
scale = "{1, -1}";
type = Corner;
name = _corner.rightSerif;
options = 1;
},
{
type = Corner;
name = _corner.rightSerif;
},
{
type = Corner;
name = _corner.leftSerif;
},
{
scale = "{1, -1}";
type = Corner;
name = _corner.rightSerif;
options = 1;
},
{
scale = "{1, -1}";
type = Corner;
name = _corner.rightSerif;
options = 1;
},
{
type = Corner;
name = _corner.leftSerif;
},
{
scale = "{1, -1}";
type = Corner;
name = _corner.rightSerif;
options = 1;
},
{
type = Corner;
name = _corner.rightSerif;
},
{
type = Corner;
name = _corner.leftSerif;
},
{
scale = "{1, -1}";
type = Corner;
name = _corner.rightSerif;
options = 1;
},
{
scale = "{1, -1}";
type = Corner;
name = _corner.rightSerif;
options = 1;
},
{
type = Corner;
name = _corner.leftSerif;
},
{
scale = "{1, -1}";
type = Corner;
name = _corner.rightSerif;
options = 1;
},
{
type = Corner;
name = _corner.rightSerif;
},
{
type = Corner;
name = _corner.leftSerif;
},
{
scale = "{1, -1}";
type = Corner;
name = _corner.rightSerif;
options = 1;
},
{
scale = "{1, -1}";
type = Corner;
name = _corner.rightSerif;
options = 1;
},
{
type = Corner;
name = _corner.leftSerif;
},
{
scale = "{1, -1}";
type = Corner;
name = _corner.rightSerif;
options = 1;
},
{
type = Corner;
name = _corner.rightSerif;
},
{
type = Corner;
name = _corner.leftSerif;
},
{
scale = "{1, -1}";
type = Corner;
name = _corner.rightSerif;
options = 1;
},
{
scale = "{1, -1}";
type = Corner;
name = _corner.rightSerif;
options = 1;
},
{
type = Corner;
name = _corner.leftSerif;
},
{
scale = "{1, -1}";
type = Corner;
name = _corner.rightSerif;
options = 1;
},
{
type = Corner;
name = _corner.rightSerif;
},
{
type = Corner;
name = _corner.leftSerif;
},
{
scale = "{1, -1}";
type = Corner;
name = _corner.rightSerif;
options = 1;
},
{
scale = "{1, -1}";
type = Corner;
name = _corner.rightSerif;
options = 1;
},
{
type = Corner;
name = _corner.leftSerif;
},
{
scale = "{1, -1}";
type = Corner;
name = _corner.rightSerif;
options = 1;
},
{
type = Corner;
name = _corner.rightSerif;
},
{
type = Corner;
name = _corner.leftSerif;
},
{
scale = "{1, -1}";
type = Corner;
name = _corner.rightSerif;
options = 1;
},
{
scale = "{1, -1}";
type = Corner;
name = _corner.rightSerif;
options = 1;
},
{
type = Corner;
name = _corner.leftSerif;
},
{
scale = "{1, -1}";
type = Corner;
name = _corner.rightSerif;
options = 1;
},
{
type = Corner;
name = _corner.rightSerif;
},
{
type = Corner;
name = _corner.leftSerif;
},
{
scale = "{1, -1}";
type = Corner;
name = _corner.rightSerif;
options = 1;
},
{
type = Corner;
name = _corner.leftSerif;
},
{
scale = "{1, -1}";
type = Corner;
name = _corner.rightSerif;
options = 1;
},
{
type = Corner;
name = _corner.rightSerif;
},
{
type = Corner;
name = _corner.leftSerif;
},
{
scale = "{1, -1}";
type = Corner;
name = _corner.rightSerif;
options = 1;
},
{
type = Corner;
name = _corner.leftSerif;
},
{
scale = "{1, -1}";
type = Corner;
name = _corner.rightSerif;
options = 1;
},
{
type = Corner;
name = _corner.rightSerif;
},
{
type = Corner;
name = _corner.leftSerif;
},
{
scale = "{1, -1}";
type = Corner;
name = _corner.rightSerif;
options = 1;
},
{
type = Corner;
name = _corner.leftSerif;
},
{
scale = "{1, -1}";
type = Corner;
name = _corner.rightSerif;
options = 1;
},
{
type = Corner;
name = _corner.rightSerif;
},
{
type = Corner;
name = _corner.leftSerif;
},
{
scale = "{1, -1}";
type = Corner;
name = _corner.rightSerif;
options = 1;
},
{
type = Corner;
name = _corner.leftSerif;
},
{
scale = "{1, -1}";
type = Corner;
name = _corner.rightSerif;
options = 1;
},
{
type = Corner;
name = _corner.rightSerif;
},
{
type = Corner;
name = _corner.leftSerif;
},
{
scale = "{1, -1}";
type = Corner;
name = _corner.rightSerif;
options = 1;
},
{
type = Corner;
name = _corner.leftSerif;
},
{
scale = "{1, -1}";
type = Corner;
name = _corner.rightSerif;
options = 1;
},
{
type = Corner;
name = _corner.rightSerif;
},
{
type = Corner;
name = _corner.leftSerif;
},
{
scale = "{1, -1}";
type = Corner;
name = _corner.rightSerif;
options = 1;
},
{
type = Corner;
name = _corner.leftSerif;
},
{
scale = "{1, -1}";
type = Corner;
name = _corner.rightSerif;
options = 1;
},
{
type = Corner;
name = _corner.rightSerif;
},
{
type = Corner;
name = _corner.leftSerif;
},
{
scale = "{1, -1}";
type = Corner;
name = _corner.rightSerif;
options = 1;
},
{
type = Corner;
name = _corner.leftSerif;
},
{
scale = "{1, -1}";
type = Corner;
name = _corner.rightSerif;
options = 1;
},
{
type = Corner;
name = _corner.rightSerif;
},
{
type = Corner;
name = _corner.leftSerif;
},
{
scale = "{1, -1}";
type = Corner;
name = _corner.rightSerif;
options = 1;
},
{
type = Corner;
name = _corner.leftSerif;
},
{
scale = "{1, -1}";
type = Corner;
name = _corner.rightSerif;
options = 1;
},
{
type = Corner;
name = _corner.rightSerif;
},
{
type = Corner;
name = _corner.leftSerif;
},
{
type = Corner;
name = _corner.leftSerif;
},
{
scale = "{1, -1}";
type = Corner;
name = _corner.rightSerif;
options = 1;
},
{
type = Corner;
name = _corner.leftSerif;
},
{
scale = "{1, -1}";
type = Corner;
name = _corner.rightSerif;
options = 1;
},
{
type = Corner;
name = _corner.rightSerif;
},
{
type = Corner;
name = _corner.leftSerif;
},
{
scale = "{1, -1}";
type = Corner;
name = _corner.rightSerif;
options = 1;
},
{
type = Corner;
name = _corner.leftSerif;
},
{
scale = "{1, -1}";
type = Corner;
name = _corner.rightSerif;
options = 1;
},
{
type = Corner;
name = _corner.rightSerif;
},
{
type = Corner;
name = _corner.leftSerif;
},
{
scale = "{1, -1}";
type = Corner;
name = _corner.rightSerif;
options = 1;
},
{
type = Corner;
name = _corner.rightSerif;
},
{
scale = "{1, -1}";
type = Corner;
name = _corner.rightSerif;
options = 1;
},
{
type = Corner;
name = _corner.leftSerif;
},
{
type = Corner;
name = _corner.leftSerif;
},
{
scale = "{1, -1}";
type = Corner;
name = _corner.rightSerif;
options = 1;
},
{
type = Corner;
name = _corner.rightSerif;
},
{
scale = "{1, -1}";
type = Corner;
name = _corner.rightSerif;
options = 1;
},
{
type = Corner;
name = _corner.leftSerif;
},
{
type = Corner;
name = _corner.leftSerif;
},
{
scale = "{1, -1}";
type = Corner;
name = _corner.rightSerif;
options = 1;
},
{
type = Corner;
name = _corner.rightSerif;
},
{
scale = "{1, -1}";
type = Corner;
name = _corner.rightSerif;
options = 1;
},
{
type = Corner;
name = _corner.leftSerif;
},
{
type = Corner;
name = _corner.leftSerif;
},
{
scale = "{1, -1}";
type = Corner;
name = _corner.rightSerif;
options = 1;
},
{
type = Corner;
name = _corner.rightSerif;
},
{
scale = "{1, -1}";
type = Corner;
name = _corner.rightSerif;
options = 1;
},
{
type = Corner;
name = _corner.leftSerif;
},
{
type = Corner;
name = _corner.leftSerif;
},
{
scale = "{1, -1}";
type = Corner;
name = _corner.rightSerif;
options = 1;
},
{
type = Corner;
name = _corner.rightSerif;
},
{
scale = "{1, -1}";
type = Corner;
name = _corner.rightSerif;
options = 1;
},
{
type = Corner;
name = _corner.leftSerif;
},
{
type = Corner;
name = _corner.leftSerif;
},
{
scale = "{1, -1}";
type = Corner;
name = _corner.rightSerif;
options = 1;
},
{
type = Corner;
name = _corner.rightSerif;
},
{
scale = "{1, -1}";
type = Corner;
name = _corner.rightSerif;
options = 1;
},
{
type = Corner;
name = _corner.leftSerif;
},
{
type = Corner;
name = _corner.leftSerif;
},
{
scale = "{1, -1}";
type = Corner;
name = _corner.rightSerif;
options = 1;
},
{
type = Corner;
name = _corner.rightSerif;
},
{
scale = "{1, -1}";
type = Corner;
name = _corner.rightSerif;
options = 1;
},
{
type = Corner;
name = _corner.leftSerif;
},
{
type = Corner;
name = _corner.leftSerif;
},
{
scale = "{1, -1}";
type = Corner;
name = _corner.rightSerif;
options = 1;
},
{
type = Corner;
name = _corner.rightSerif;
},
{
scale = "{1, -1}";
type = Corner;
name = _corner.rightSerif;
options = 1;
},
{
type = Corner;
name = _corner.leftSerif;
},
{
type = Corner;
name = _corner.rightSerif;
},
{
scale = "{1, -1}";
type = Corner;
name = _corner.leftSerif;
options = 1;
},
{
type = Corner;
name = _corner.leftSerif;
},
{
scale = "{1, -1}";
type = Corner;
name = _corner.rightSerif;
options = 1;
},
{
type = Corner;
name = _corner.leftSerif;
},
{
type = Corner;
name = _corner.rightSerif;
},
{
scale = "{1, -1}";
type = Corner;
name = _corner.leftSerif;
options = 1;
},
{
type = Corner;
name = _corner.leftSerif;
},
{
scale = "{1, -1}";
type = Corner;
name = _corner.rightSerif;
options = 1;
},
{
type = Corner;
name = _corner.leftSerif;
},
{
type = Corner;
name = _corner.rightSerif;
},
{
scale = "{1, -1}";
type = Corner;
name = _corner.leftSerif;
options = 1;
},
{
type = Corner;
name = _corner.leftSerif;
},
{
scale = "{1, -1}";
type = Corner;
name = _corner.rightSerif;
options = 1;
},
{
type = Corner;
name = _corner.leftSerif;
},
{
type = Corner;
name = _corner.rightSerif;
},
{
scale = "{1, -1}";
type = Corner;
name = _corner.leftSerif;
options = 1;
},
{
type = Corner;
name = _corner.leftSerif;
},
{
scale = "{1, -1}";
type = Corner;
name = _corner.rightSerif;
options = 1;
},
{
type = Corner;
name = _corner.leftSerif;
},
{
type = Corner;
name = _corner.rightSerif;
},
{
scale = "{1, -1}";
type = Corner;
name = _corner.leftSerif;
options = 1;
},
{
type = Corner;
name = _corner.leftSerif;
},
{
scale = "{1, -1}";
type = Corner;
name = _corner.rightSerif;
options = 1;
},
{
type = Corner;
name = _corner.leftSerif;
},
{
type = Corner;
name = _corner.rightSerif;
},
{
scale = "{1, -1}";
type = Corner;
name = _corner.leftSerif;
options = 1;
},
{
type = Corner;
name = _corner.leftSerif;
},
{
scale = "{1, -1}";
type = Corner;
name = _corner.rightSerif;
options = 1;
},
{
type = Corner;
name = _corner.leftSerif;
},
{
type = Corner;
name = _corner.rightSerif;
},
{
scale = "{1, -1}";
type = Corner;
name = _corner.leftSerif;
options = 1;
},
{
type = Corner;
name = _corner.leftSerif;
},
{
scale = "{1, -1}";
type = Corner;
name = _corner.rightSerif;
options = 1;
},
{
type = Corner;
name = _corner.leftSerif;
},
{
type = Corner;
name = _corner.rightSerif;
},
{
scale = "{1, -1}";
type = Corner;
name = _corner.leftSerif;
options = 1;
},
{
type = Corner;
name = _corner.leftSerif;
},
{
scale = "{1, -1}";
type = Corner;
name = _corner.rightSerif;
options = 1;
},
{
type = Corner;
name = _corner.leftSerif;
},
{
type = Corner;
name = _corner.rightSerif;
},
{
scale = "{1, -1}";
type = Corner;
name = _corner.leftSerif;
options = 1;
},
{
type = Corner;
name = _corner.leftSerif;
},
{
scale = "{1, -1}";
type = Corner;
name = _corner.rightSerif;
options = 1;
},
{
type = Corner;
name = _corner.leftSerif;
},
{
type = Corner;
name = _corner.rightSerif;
},
{
scale = "{1, -1}";
type = Corner;
name = _corner.leftSerif;
options = 1;
},
{
type = Corner;
name = _corner.leftSerif;
},
{
scale = "{1, -1}";
type = Corner;
name = _corner.rightSerif;
options = 1;
},
{
type = Corner;
name = _corner.leftSerif;
},
{
type = Corner;
name = _corner.rightSerif;
},
{
scale = "{1, -1}";
type = Corner;
name = _corner.leftSerif;
options = 1;
},
{
type = Corner;
name = _corner.leftSerif;
},
{
scale = "{1, -1}";
type = Corner;
name = _corner.rightSerif;
options = 1;
},
{
type = Corner;
name = _corner.leftSerif;
},
{
type = Corner;
name = _corner.rightSerif;
},
{
scale = "{1, -1}";
type = Corner;
name = _corner.leftSerif;
options = 1;
},
{
type = Corner;
name = _corner.leftSerif;
},
{
scale = "{1, -1}";
type = Corner;
name = _corner.rightSerif;
options = 1;
},
{
type = Corner;
name = _corner.leftSerif;
},
{
type = Corner;
name = _corner.rightSerif;
},
{
scale = "{1, -1}";
type = Corner;
name = _corner.leftSerif;
options = 1;
},
{
type = Corner;
name = _corner.leftSerif;
},
{
scale = "{1, -1}";
type = Corner;
name = _corner.rightSerif;
options = 1;
},
{
type = Corner;
name = _corner.leftSerif;
}
);
paths = (
{
closed = 1;
nodes = (
"193 -8 LINE",
"530 634 LINE",
"528 634 LINE",
"373 93 LINE SMOOTH",
"355 31 OFFCURVE",
"334 11 OFFCURVE",
"283 3 CURVE",
"282 0 LINE",
"474 0 LINE",
"475 3 LINE",
"421 7 OFFCURVE",
"407 30 OFFCURVE",
"424 89 CURVE SMOOTH",
"572 607 LINE SMOOTH",
"590 669 OFFCURVE",
"615 690 OFFCURVE",
"676 697 CURVE",
"677 700 LINE",
"549 700 LINE",
"224 81 LINE",
"237 84 LINE",
"252 700 LINE",
"136 700 LINE",
"135 697 LINE",
"187 689 OFFCURVE",
"204 680 OFFCURVE",
"203 630 CURVE SMOOTH",
"189 -8 LINE"
);
},
{
closed = 1;
nodes = (
"105 0 LINE",
"106 3 LINE",
"49 8 OFFCURVE",
"39 30 OFFCURVE",
"58 96 CURVE SMOOTH",
"221 666 LINE",
"207 666 LINE",
"43 93 LINE SMOOTH",
"25 32 OFFCURVE",
"-1 11 OFFCURVE",
"-57 3 CURVE",
"-58 0 LINE"
);
}
);
};
layerId = "800CF2A0-134E-4EC9-907D-CE3650520B0A";
paths = (
{
closed = 1;
nodes = (
"193 -8 LINE",
"530 634 LINE",
"528 634 LINE",
"373 93 LINE SMOOTH",
"355 31 OFFCURVE",
"334 11 OFFCURVE",
"283 3 CURVE",
"282 0 LINE",
"474 0 LINE",
"475 3 LINE",
"421 7 OFFCURVE",
"407 30 OFFCURVE",
"424 89 CURVE SMOOTH",
"572 607 LINE SMOOTH",
"590 669 OFFCURVE",
"615 690 OFFCURVE",
"676 697 CURVE",
"677 700 LINE",
"549 700 LINE",
"224 81 LINE",
"237 84 LINE",
"252 700 LINE",
"136 700 LINE",
"135 697 LINE",
"187 689 OFFCURVE",
"204 680 OFFCURVE",
"203 630 CURVE SMOOTH",
"189 -8 LINE"
);
},
{
closed = 1;
nodes = (
"105 0 LINE",
"106 3 LINE",
"49 8 OFFCURVE",
"39 30 OFFCURVE",
"58 96 CURVE SMOOTH",
"221 666 LINE",
"207 666 LINE",
"43 93 LINE SMOOTH",
"25 32 OFFCURVE",
"-1 11 OFFCURVE",
"-57 3 CURVE",
"-58 0 LINE"
);
}
);
width = 558;
}
);
leftKerningGroup = H;
rightKerningGroup = H;
rightMetricsKey = H;
unicode = 004D;
},
{
glyphname = N;
lastChange = "2025-04-05 11:24:18 +0000";
layers = (
{
anchors = (
{
name = bottom;
position = "{164, 0}";
},
{
name = top;
position = "{345, 700}";
}
);
background = {
anchors = (
{
name = bottom;
position = "{164, 0}";
},
{
name = top;
position = "{345, 700}";
}
);
hints = (
{
scale = "{1, -1}";
type = Corner;
name = _corner.rightSerif;
options = 1;
},
{
scale = "{1, -1}";
type = Corner;
name = _corner.rightSerif;
options = 1;
},
{
type = Corner;
name = _corner.leftSerif;
},
{
scale = "{1, -1}";
type = Corner;
name = _corner.rightSerif;
options = 1;
},
{
type = Corner;
name = _corner.leftSerif;
},
{
scale = "{1, -1}";
type = Corner;
name = _corner.rightSerif;
options = 1;
},
{
scale = "{1, -1}";
type = Corner;
name = _corner.rightSerif;
options = 1;
},
{
type = Corner;
name = _corner.leftSerif;
},
{
scale = "{1, -1}";
type = Corner;
name = _corner.rightSerif;
options = 1;
},
{
type = Corner;
name = _corner.leftSerif;
},
{
scale = "{1, -1}";
type = Corner;
name = _corner.rightSerif;
options = 1;
},
{
scale = "{1, -1}";
type = Corner;
name = _corner.rightSerif;
options = 1;
},
{
type = Corner;
name = _corner.leftSerif;
},
{
scale = "{1, -1}";
type = Corner;
name = _corner.rightSerif;
options = 1;
},
{
type = Corner;
name = _corner.leftSerif;
},
{
scale = "{1, -1}";
type = Corner;
name = _corner.rightSerif;
options = 1;
},
{
scale = "{1, -1}";
type = Corner;
name = _corner.rightSerif;
options = 1;
},
{
type = Corner;
name = _corner.leftSerif;
},
{
type = Corner;
name = _corner.leftSerif;
},
{
scale = "{1, -1}";
type = Corner;
name = _corner.rightSerif;
options = 1;
},
{
scale = "{1, -1}";
type = Corner;
name = _corner.rightSerif;
options = 1;
},
{
scale = "{1, -1}";
type = Corner;
name = _corner.rightSerif;
options = 1;
},
{
type = Corner;
name = _corner.leftSerif;
},
{
type = Corner;
name = _corner.leftSerif;
},
{
scale = "{1, -1}";
type = Corner;
name = _corner.rightSerif;
options = 1;
},
{
scale = "{1, -1}";
type = Corner;
name = _corner.rightSerif;
options = 1;
},
{
scale = "{1, -1}";
type = Corner;
name = _corner.rightSerif;
options = 1;
},
{
type = Corner;
name = _corner.leftSerif;
},
{
type = Corner;
name = _corner.leftSerif;
},
{
scale = "{1, -1}";
type = Corner;
name = _corner.rightSerif;
options = 1;
},
{
scale = "{1, -1}";
type = Corner;
name = _corner.rightSerif;
options = 1;
},
{
scale = "{1, -1}";
type = Corner;
name = _corner.rightSerif;
options = 1;
},
{
type = Corner;
name = _corner.leftSerif;
},
{
type = Corner;
name = _corner.leftSerif;
},
{
scale = "{1, -1}";
type = Corner;
name = _corner.rightSerif;
options = 1;
},
{
scale = "{1, -1}";
type = Corner;
name = _corner.rightSerif;
options = 1;
},
{
type = Corner;
name = _corner.leftSerif;
},
{
type = Corner;
name = _corner.leftSerif;
},
{
scale = "{1, -1}";
type = Corner;
name = _corner.rightSerif;
options = 1;
},
{
scale = "{1, -1}";
type = Corner;
name = _corner.rightSerif;
options = 1;
},
{
type = Corner;
name = _corner.leftSerif;
},
{
type = Corner;
name = _corner.leftSerif;
},
{
scale = "{1, -1}";
type = Corner;
name = _corner.rightSerif;
options = 1;
},
{
scale = "{1, -1}";
type = Corner;
name = _corner.rightSerif;
options = 1;
},
{
type = Corner;
name = _corner.leftSerif;
},
{
type = Corner;
name = _corner.leftSerif;
},
{
scale = "{1, -1}";
type = Corner;
name = _corner.rightSerif;
options = 1;
},
{
scale = "{1, -1}";
type = Corner;
name = _corner.rightSerif;
options = 1;
},
{
type = Corner;
name = _corner.leftSerif;
},
{
type = Corner;
name = _corner.leftSerif;
},
{
scale = "{1, -1}";
type = Corner;
name = _corner.rightSerif;
options = 1;
},
{
scale = "{1, -1}";
type = Corner;
name = _corner.rightSerif;
options = 1;
},
{
type = Corner;
name = _corner.leftSerif;
},
{
type = Corner;
name = _corner.leftSerif;
},
{
scale = "{1, -1}";
type = Corner;
name = _corner.rightSerif;
options = 1;
},
{
scale = "{1, -1}";
type = Corner;
name = _corner.rightSerif;
options = 1;
},
{
type = Corner;
name = _corner.leftSerif;
},
{
type = Corner;
name = _corner.leftSerif;
},
{
scale = "{1, -1}";
type = Corner;
name = _corner.rightSerif;
options = 1;
},
{
scale = "{1, -1}";
type = Corner;
name = _corner.rightSerif;
options = 1;
},
{
type = Corner;
name = _corner.leftSerif;
},
{
type = Corner;
name = _corner.leftSerif;
},
{
scale = "{1, -1}";
type = Corner;
name = _corner.rightSerif;
options = 1;
},
{
scale = "{1, -1}";
type = Corner;
name = _corner.rightSerif;
options = 1;
},
{
type = Corner;
name = _corner.leftSerif;
},
{
type = Corner;
name = _corner.leftSerif;
},
{
scale = "{1, -1}";
type = Corner;
name = _corner.rightSerif;
options = 1;
},
{
scale = "{1, -1}";
type = Corner;
name = _corner.rightSerif;
options = 1;
},
{
type = Corner;
name = _corner.leftSerif;
},
{
type = Corner;
name = _corner.leftSerif;
},
{
scale = "{1, -1}";
type = Corner;
name = _corner.rightSerif;
options = 1;
},
{
scale = "{1, -1}";
type = Corner;
name = _corner.rightSerif;
options = 1;
},
{
type = Corner;
name = _corner.leftSerif;
},
{
type = Corner;
name = _corner.leftSerif;
},
{
scale = "{1, -1}";
type = Corner;
name = _corner.rightSerif;
options = 1;
},
{
scale = "{1, -1}";
type = Corner;
name = _corner.leftSerif;
options = 1;
},
{
type = Corner;
name = _corner.rightSerif;
},
{
type = Corner;
name = _corner.leftSerif;
},
{
scale = "{1, -1}";
type = Corner;
name = _corner.rightSerif;
options = 1;
},
{
scale = "{1, -1}";
type = Corner;
name = _corner.leftSerif;
options = 1;
},
{
type = Corner;
name = _corner.rightSerif;
},
{
type = Corner;
name = _corner.leftSerif;
},
{
scale = "{1, -1}";
type = Corner;
name = _corner.rightSerif;
options = 1;
},
{
scale = "{1, -1}";
type = Corner;
name = _corner.leftSerif;
options = 1;
},
{
type = Corner;
name = _corner.rightSerif;
},
{
type = Corner;
name = _corner.leftSerif;
},
{
scale = "{1, -1}";
type = Corner;
name = _corner.rightSerif;
options = 1;
},
{
scale = "{1, -1}";
type = Corner;
name = _corner.leftSerif;
options = 1;
},
{
type = Corner;
name = _corner.rightSerif;
},
{
type = Corner;
name = _corner.leftSerif;
},
{
scale = "{1, -1}";
type = Corner;
name = _corner.rightSerif;
options = 1;
},
{
scale = "{1, -1}";
type = Corner;
name = _corner.leftSerif;
options = 1;
},
{
type = Corner;
name = _corner.rightSerif;
},
{
type = Corner;
name = _corner.leftSerif;
},
{
scale = "{1, -1}";
type = Corner;
name = _corner.rightSerif;
options = 1;
},
{
scale = "{1, -1}";
type = Corner;
name = _corner.leftSerif;
options = 1;
},
{
type = Corner;
name = _corner.rightSerif;
},
{
type = Corner;
name = _corner.leftSerif;
},
{
scale = "{1, -1}";
type = Corner;
name = _corner.rightSerif;
options = 1;
},
{
scale = "{1, -1}";
type = Corner;
name = _corner.leftSerif;
options = 1;
},
{
type = Corner;
name = _corner.rightSerif;
},
{
type = Corner;
name = _corner.leftSerif;
},
{
scale = "{1, -1}";
type = Corner;
name = _corner.rightSerif;
options = 1;
}
);
paths = (
{
closed = 1;
nodes = (
"322 114 LINE",
"238 700 LINE",
"126 700 LINE",
"125 697 LINE",
"174 691 OFFCURVE",
"192 674 OFFCURVE",
"199 622 CURVE SMOOTH",
"289 -8 LINE"
);
},
{
closed = 1;
nodes = (
"106 0 LINE",
"107 3 LINE",
"54 8 OFFCURVE",
"38 24 OFFCURVE",
"58 93 CURVE SMOOTH",
"217 650 LINE",
"202 650 LINE",
"43 93 LINE SMOOTH",
"25 31 OFFCURVE",
"3 9 OFFCURVE",
"-57 3 CURVE",
"-58 0 LINE"
);
},
{
closed = 1;
nodes = (
"293 -8 LINE",
"469 607 LINE SMOOTH",
"487 669 OFFCURVE",
"509 691 OFFCURVE",
"567 697 CURVE",
"568 700 LINE",
"404 700 LINE",
"403 697 LINE",
"458 692 OFFCURVE",
"474 676 OFFCURVE",
"454 607 CURVE SMOOTH",
"304 82 LINE",
"289 -8 LINE"
);
}
);
};
layerId = "800CF2A0-134E-4EC9-907D-CE3650520B0A";
paths = (
{
closed = 1;
nodes = (
"322 114 LINE",
"238 700 LINE",
"126 700 LINE",
"125 697 LINE",
"174 691 OFFCURVE",
"192 674 OFFCURVE",
"199 622 CURVE SMOOTH",
"289 -8 LINE"
);
},
{
closed = 1;
nodes = (
"106 0 LINE",
"107 3 LINE",
"54 8 OFFCURVE",
"38 24 OFFCURVE",
"58 93 CURVE SMOOTH",
"217 650 LINE",
"202 650 LINE",
"43 93 LINE SMOOTH",
"25 31 OFFCURVE",
"3 9 OFFCURVE",
"-57 3 CURVE",
"-58 0 LINE"
);
},
{
closed = 1;
nodes = (
"293 -8 LINE",
"469 607 LINE SMOOTH",
"487 669 OFFCURVE",
"509 691 OFFCURVE",
"567 697 CURVE",
"568 700 LINE",
"404 700 LINE",
"403 697 LINE",
"458 692 OFFCURVE",
"474 676 OFFCURVE",
"454 607 CURVE SMOOTH",
"304 82 LINE",
"289 -8 LINE"
);
}
);
width = 452;
}
);
leftKerningGroup = N;
rightKerningGroup = N;
unicode = 004E;
},
{
glyphname = O;
lastChange = "2025-04-05 11:24:18 +0000";
layers = (
{
anchors = (
{
name = bottom;
position = "{156, 0}";
},
{
name = center;
position = "{256, 350}";
},
{
name = ogonek;
position = "{202, 0}";
},
{
name = top;
position = "{357, 700}";
},
{
name = topleft;
position = "{130, 700}";
},
{
name = topright;
position = "{584, 700}";
}
);
background = {
anchors = (
{
name = bottom;
position = "{156, 0}";
},
{
name = center;
position = "{256, 350}";
},
{
name = ogonek;
position = "{202, 0}";
},
{
name = top;
position = "{357, 700}";
},
{
name = topleft;
position = "{130, 700}";
},
{
name = topright;
position = "{584, 700}";
}
);
paths = (
{
closed = 1;
nodes = (
"348 -6 OFFCURVE",
"469 346 OFFCURVE",
"469 523 CURVE SMOOTH",
"469 632 OFFCURVE",
"424 706 OFFCURVE",
"355 706 CURVE SMOOTH",
"170 706 OFFCURVE",
"49 354 OFFCURVE",
"49 177 CURVE SMOOTH",
"49 68 OFFCURVE",
"94 -6 OFFCURVE",
"163 -6 CURVE SMOOTH"
);
},
{
closed = 1;
nodes = (
"120 6 OFFCURVE",
"99 59 OFFCURVE",
"99 140 CURVE SMOOTH",
"99 286 OFFCURVE",
"208 694 OFFCURVE",
"355 694 CURVE SMOOTH",
"398 694 OFFCURVE",
"419 641 OFFCURVE",
"419 560 CURVE SMOOTH",
"419 414 OFFCURVE",
"310 6 OFFCURVE",
"163 6 CURVE SMOOTH"
);
}
);
};
layerId = "800CF2A0-134E-4EC9-907D-CE3650520B0A";
paths = (
{
closed = 1;
nodes = (
"348 -6 OFFCURVE",
"469 346 OFFCURVE",
"469 523 CURVE SMOOTH",
"469 632 OFFCURVE",
"424 706 OFFCURVE",
"355 706 CURVE SMOOTH",
"170 706 OFFCURVE",
"49 354 OFFCURVE",
"49 177 CURVE SMOOTH",
"49 68 OFFCURVE",
"94 -6 OFFCURVE",
"163 -6 CURVE SMOOTH"
);
},
{
closed = 1;
nodes = (
"120 6 OFFCURVE",
"99 59 OFFCURVE",
"99 140 CURVE SMOOTH",
"99 286 OFFCURVE",
"208 694 OFFCURVE",
"355 694 CURVE SMOOTH",
"398 694 OFFCURVE",
"419 641 OFFCURVE",
"419 560 CURVE SMOOTH",
"419 414 OFFCURVE",
"310 6 OFFCURVE",
"163 6 CURVE SMOOTH"
);
}
);
width = 457;
}
);
leftKerningGroup = O;
rightKerningGroup = O;
unicode = 004F;
},
{
glyphname = P;
lastChange = "2025-04-05 11:24:18 +0000";
layers = (
{
background = {
hints = (
{
scale = "{1, -1}";
type = Corner;
name = _corner.rightSerif;
options = 1;
},
{
scale = "{1, -1}";
type = Corner;
name = _corner.rightSerif;
options = 1;
},
{
type = Corner;
name = _corner.leftSerif;
},
{
scale = "{1, -1}";
type = Corner;
name = _corner.rightSerif;
options = 1;
},
{
scale = "{1, -1}";
type = Corner;
name = _corner.rightSerif;
options = 1;
},
{
type = Corner;
name = _corner.leftSerif;
},
{
scale = "{1, -1}";
type = Corner;
name = _corner.rightSerif;
options = 1;
},
{
scale = "{1, -1}";
type = Corner;
name = _corner.rightSerif;
options = 1;
},
{
type = Corner;
name = _corner.leftSerif;
},
{
scale = "{1, -1}";
type = Corner;
name = _corner.leftSerif;
options = 1;
},
{
scale = "{1, -1}";
type = Corner;
name = _corner.rightSerif;
options = 1;
},
{
type = Corner;
name = _corner.leftSerif;
},
{
scale = "{1, -1}";
type = Corner;
name = _corner.leftSerif;
options = 1;
},
{
scale = "{1, -1}";
type = Corner;
name = _corner.rightSerif;
options = 1;
},
{
type = Corner;
name = _corner.leftSerif;
},
{
scale = "{1, -1}";
type = Corner;
name = _corner.leftSerif;
options = 1;
},
{
scale = "{1, -1}";
type = Corner;
name = _corner.rightSerif;
options = 1;
},
{
type = Corner;
name = _corner.leftSerif;
},
{
scale = "{1, -1}";
type = Corner;
name = _corner.leftSerif;
options = 1;
},
{
scale = "{1, -1}";
type = Corner;
name = _corner.rightSerif;
options = 1;
},
{
type = Corner;
name = _corner.leftSerif;
},
{
scale = "{1, -1}";
type = Corner;
name = _corner.leftSerif;
options = 1;
},
{
scale = "{1, -1}";
type = Corner;
name = _corner.rightSerif;
options = 1;
},
{
type = Corner;
name = _corner.leftSerif;
},
{
scale = "{1, -1}";
type = Corner;
name = _corner.leftSerif;
options = 1;
},
{
scale = "{1, -1}";
type = Corner;
name = _corner.rightSerif;
options = 1;
},
{
type = Corner;
name = _corner.leftSerif;
},
{
scale = "{1, -1}";
type = Corner;
name = _corner.leftSerif;
options = 1;
},
{
scale = "{1, -1}";
type = Corner;
name = _corner.rightSerif;
options = 1;
},
{
type = Corner;
name = _corner.leftSerif;
},
{
scale = "{1, -1}";
type = Corner;
name = _corner.leftSerif;
options = 1;
},
{
scale = "{1, -1}";
type = Corner;
name = _corner.rightSerif;
options = 1;
},
{
type = Corner;
name = _corner.leftSerif;
},
{
scale = "{1, -1}";
type = Corner;
name = _corner.leftSerif;
options = 1;
},
{
scale = "{1, -1}";
type = Corner;
name = _corner.rightSerif;
options = 1;
},
{
type = Corner;
name = _corner.leftSerif;
},
{
scale = "{1, -1}";
type = Corner;
name = _corner.leftSerif;
options = 1;
},
{
scale = "{1, -1}";
type = Corner;
name = _corner.rightSerif;
options = 1;
},
{
type = Corner;
name = _corner.leftSerif;
},
{
scale = "{1, -1}";
type = Corner;
name = _corner.leftSerif;
options = 1;
},
{
scale = "{1, -1}";
type = Corner;
name = _corner.rightSerif;
options = 1;
},
{
type = Corner;
name = _corner.leftSerif;
},
{
scale = "{1, -1}";
type = Corner;
name = _corner.leftSerif;
options = 1;
},
{
scale = "{1, -1}";
type = Corner;
name = _corner.rightSerif;
options = 1;
},
{
type = Corner;
name = _corner.leftSerif;
},
{
scale = "{1, -1}";
type = Corner;
name = _corner.leftSerif;
options = 1;
},
{
scale = "{1, -1}";
type = Corner;
name = _corner.rightSerif;
options = 1;
},
{
type = Corner;
name = _corner.leftSerif;
},
{
scale = "{1, -1}";
type = Corner;
name = _corner.leftSerif;
options = 1;
},
{
scale = "{1, -1}";
type = Corner;
name = _corner.rightSerif;
options = 1;
},
{
type = Corner;
name = _corner.leftSerif;
},
{
scale = "{1, -1}";
type = Corner;
name = _corner.leftSerif;
options = 1;
},
{
scale = "{1, -1}";
type = Corner;
name = _corner.leftSerif;
options = 1;
},
{
type = Corner;
name = _corner.leftSerif;
},
{
scale = "{1, -1}";
type = Corner;
name = _corner.leftSerif;
options = 1;
},
{
scale = "{1, -1}";
type = Corner;
name = _corner.leftSerif;
options = 1;
},
{
type = Corner;
name = _corner.leftSerif;
},
{
scale = "{1, -1}";
type = Corner;
name = _corner.leftSerif;
options = 1;
},
{
scale = "{1, -1}";
type = Corner;
name = _corner.leftSerif;
options = 1;
},
{
type = Corner;
name = _corner.leftSerif;
},
{
scale = "{1, -1}";
type = Corner;
name = _corner.leftSerif;
options = 1;
},
{
scale = "{1, -1}";
type = Corner;
name = _corner.leftSerif;
options = 1;
},
{
type = Corner;
name = _corner.leftSerif;
},
{
scale = "{1, -1}";
type = Corner;
name = _corner.leftSerif;
options = 1;
},
{
scale = "{1, -1}";
type = Corner;
name = _corner.leftSerif;
options = 1;
},
{
type = Corner;
name = _corner.leftSerif;
},
{
scale = "{1, -1}";
type = Corner;
name = _corner.leftSerif;
options = 1;
},
{
scale = "{1, -1}";
type = Corner;
name = _corner.leftSerif;
options = 1;
},
{
type = Corner;
name = _corner.leftSerif;
},
{
scale = "{1, -1}";
type = Corner;
name = _corner.leftSerif;
options = 1;
},
{
scale = "{1, -1}";
type = Corner;
name = _corner.leftSerif;
options = 1;
},
{
type = Corner;
name = _corner.leftSerif;
},
{
scale = "{1, -1}";
type = Corner;
name = _corner.leftSerif;
options = 1;
},
{
scale = "{1, -1}";
type = Corner;
name = _corner.leftSerif;
options = 1;
},
{
type = Corner;
name = _corner.leftSerif;
},
{
scale = "{1, -1}";
type = Corner;
name = _corner.leftSerif;
options = 1;
},
{
scale = "{1, -1}";
type = Corner;
name = _corner.leftSerif;
options = 1;
},
{
type = Corner;
name = _corner.leftSerif;
},
{
scale = "{1, -1}";
type = Corner;
name = _corner.leftSerif;
options = 1;
},
{
scale = "{1, -1}";
type = Corner;
name = _corner.leftSerif;
options = 1;
},
{
type = Corner;
name = _corner.leftSerif;
},
{
scale = "{1, -1}";
type = Corner;
name = _corner.leftSerif;
options = 1;
},
{
scale = "{1, -1}";
type = Corner;
name = _corner.leftSerif;
options = 1;
},
{
type = Corner;
name = _corner.leftSerif;
},
{
scale = "{1, -1}";
type = Corner;
name = _corner.leftSerif;
options = 1;
},
{
scale = "{1, -1}";
type = Corner;
name = _corner.leftSerif;
options = 1;
},
{
type = Corner;
name = _corner.leftSerif;
},
{
scale = "{1, -1}";
type = Corner;
name = _corner.leftSerif;
options = 1;
},
{
scale = "{1, -1}";
type = Corner;
name = _corner.leftSerif;
options = 1;
},
{
type = Corner;
name = _corner.leftSerif;
},
{
scale = "{1, -1}";
type = Corner;
name = _corner.leftSerif;
options = 1;
},
{
scale = "{1, -1}";
type = Corner;
name = _corner.leftSerif;
options = 1;
},
{
type = Corner;
name = _corner.leftSerif;
},
{
scale = "{1, -1}";
type = Corner;
name = _corner.leftSerif;
options = 1;
},
{
type = Corner;
name = _corner.leftSerif;
}
);
paths = (
{
closed = 1;
nodes = (
"157 0 LINE",
"158 3 LINE",
"83 7 OFFCURVE",
"75 29 OFFCURVE",
"94 97 CURVE SMOOTH",
"168 356 LINE",
"187 335 OFFCURVE",
"218 323 OFFCURVE",
"254 323 CURVE SMOOTH",
"371 323 OFFCURVE",
"461 448 OFFCURVE",
"461 563 CURVE SMOOTH",
"461 649 OFFCURVE",
"409 700 OFFCURVE",
"331 700 CURVE SMOOTH",
"141 700 LINE",
"140 697 LINE",
"198 693 OFFCURVE",
"207 674 OFFCURVE",
"187 603 CURVE SMOOTH",
"41 93 LINE SMOOTH",
"24 33 OFFCURVE",
"0 11 OFFCURVE",
"-58 3 CURVE",
"-59 0 LINE"
);
},
{
closed = 1;
nodes = (
"209 335 OFFCURVE",
"186 352 OFFCURVE",
"172 371 CURVE",
"243 618 LINE SMOOTH",
"257 666 OFFCURVE",
"272 689 OFFCURVE",
"308 689 CURVE SMOOTH",
"328 689 LINE SMOOTH",
"380 689 OFFCURVE",
"410 652 OFFCURVE",
"410 586 CURVE SMOOTH",
"410 501 OFFCURVE",
"362 335 OFFCURVE",
"246 335 CURVE SMOOTH"
);
}
);
};
layerId = "800CF2A0-134E-4EC9-907D-CE3650520B0A";
paths = (
{
closed = 1;
nodes = (
"157 0 LINE",
"158 3 LINE",
"83 7 OFFCURVE",
"75 29 OFFCURVE",
"94 97 CURVE SMOOTH",
"168 356 LINE",
"187 335 OFFCURVE",
"218 323 OFFCURVE",
"254 323 CURVE SMOOTH",
"371 323 OFFCURVE",
"461 448 OFFCURVE",
"461 563 CURVE SMOOTH",
"461 649 OFFCURVE",
"409 700 OFFCURVE",
"331 700 CURVE SMOOTH",
"141 700 LINE",
"140 697 LINE",
"198 693 OFFCURVE",
"207 674 OFFCURVE",
"187 603 CURVE SMOOTH",
"41 93 LINE SMOOTH",
"24 33 OFFCURVE",
"0 11 OFFCURVE",
"-58 3 CURVE",
"-59 0 LINE"
);
},
{
closed = 1;
nodes = (
"209 335 OFFCURVE",
"186 352 OFFCURVE",
"172 371 CURVE",
"243 618 LINE SMOOTH",
"257 666 OFFCURVE",
"272 689 OFFCURVE",
"308 689 CURVE SMOOTH",
"328 689 LINE SMOOTH",
"380 689 OFFCURVE",
"410 652 OFFCURVE",
"410 586 CURVE SMOOTH",
"410 501 OFFCURVE",
"362 335 OFFCURVE",
"246 335 CURVE SMOOTH"
);
}
);
width = 392;
}
);
leftKerningGroup = H;
rightKerningGroup = P;
unicode = 0050;
},
{
glyphname = Q;
lastChange = "2025-06-18 07:19:44 +0000";
layers = (
{
anchors = (
{
name = bottom;
position = "{157, 0}";
},
{
name = top;
position = "{358, 700}";
}
);
background = {
components = (
{
locked = 1;
name = O;
}
);
paths = (
{
closed = 1;
nodes = (
"296 -127 LINE",
"263 -101 OFFCURVE",
"230 -75 OFFCURVE",
"197 -49 CURVE SMOOTH",
"112 18 LINE",
"106 18 LINE",
"251 -173 LINE"
);
}
);
};
layerId = "800CF2A0-134E-4EC9-907D-CE3650520B0A";
paths = (
{
closed = 1;
nodes = (
"296 -127 LINE",
"263 -101 OFFCURVE",
"230 -75 OFFCURVE",
"197 -49 CURVE SMOOTH",
"112 18 LINE",
"106 18 LINE",
"251 -173 LINE"
);
},
{
closed = 1;
nodes = (
"348 -6 OFFCURVE",
"469 346 OFFCURVE",
"469 523 CURVE SMOOTH",
"469 632 OFFCURVE",
"424 706 OFFCURVE",
"355 706 CURVE SMOOTH",
"170 706 OFFCURVE",
"49 354 OFFCURVE",
"49 177 CURVE SMOOTH",
"49 68 OFFCURVE",
"94 -6 OFFCURVE",
"163 -6 CURVE SMOOTH"
);
},
{
closed = 1;
nodes = (
"120 6 OFFCURVE",
"99 59 OFFCURVE",
"99 140 CURVE SMOOTH",
"99 286 OFFCURVE",
"208 694 OFFCURVE",
"355 694 CURVE SMOOTH",
"398 694 OFFCURVE",
"419 641 OFFCURVE",
"419 560 CURVE SMOOTH",
"419 414 OFFCURVE",
"310 6 OFFCURVE",
"163 6 CURVE SMOOTH"
);
}
);
width = 457;
}
);
leftKerningGroup = O;
leftMetricsKey = O;
rightKerningGroup = O;
rightMetricsKey = O;
unicode = 0051;
},
{
glyphname = R;
lastChange = "2025-04-05 11:24:18 +0000";
layers = (
{
anchors = (
{
name = bottom;
position = "{186, 0}";
},
{
name = top;
position = "{340, 700}";
}
);
background = {
anchors = (
{
name = bottom;
position = "{186, 0}";
},
{
name = top;
position = "{340, 700}";
}
);
hints = (
{
scale = "{1, -1}";
type = Corner;
name = _corner.leftSerif;
options = 1;
},
{
scale = "{1, -1}";
type = Corner;
name = _corner.leftSerif;
options = 1;
},
{
type = Corner;
name = _corner.leftSerif;
},
{
scale = "{1, -1}";
type = Corner;
name = _corner.leftSerif;
options = 1;
},
{
scale = "{1, -1}";
type = Corner;
name = _corner.leftSerif;
options = 1;
},
{
type = Corner;
name = _corner.leftSerif;
},
{
scale = "{1, -1}";
type = Corner;
name = _corner.leftSerif;
options = 1;
},
{
scale = "{1, -1}";
type = Corner;
name = _corner.leftSerif;
options = 1;
},
{
type = Corner;
name = _corner.leftSerif;
},
{
scale = "{1, -1}";
type = Corner;
name = _corner.leftSerif;
options = 1;
},
{
scale = "{1, -1}";
type = Corner;
name = _corner.leftSerif;
options = 1;
},
{
type = Corner;
name = _corner.leftSerif;
},
{
scale = "{1, -1}";
type = Corner;
name = _corner.leftSerif;
options = 1;
},
{
scale = "{1, -1}";
type = Corner;
name = _corner.leftSerif;
options = 1;
},
{
type = Corner;
name = _corner.leftSerif;
},
{
scale = "{1, -1}";
type = Corner;
name = _corner.leftSerif;
options = 1;
},
{
scale = "{1, -1}";
type = Corner;
name = _corner.leftSerif;
options = 1;
},
{
type = Corner;
name = _corner.leftSerif;
},
{
scale = "{1, -1}";
type = Corner;
name = _corner.leftSerif;
options = 1;
},
{
scale = "{1, -1}";
type = Corner;
name = _corner.leftSerif;
options = 1;
},
{
type = Corner;
name = _corner.leftSerif;
},
{
scale = "{1, -1}";
type = Corner;
name = _corner.leftSerif;
options = 1;
},
{
scale = "{1, -1}";
type = Corner;
name = _corner.leftSerif;
options = 1;
},
{
type = Corner;
name = _corner.leftSerif;
},
{
scale = "{1, -1}";
type = Corner;
name = _corner.leftSerif;
options = 1;
},
{
scale = "{1, -1}";
type = Corner;
name = _corner.leftSerif;
options = 1;
},
{
type = Corner;
name = _corner.leftSerif;
},
{
scale = "{1, -1}";
type = Corner;
name = _corner.leftSerif;
options = 1;
},
{
scale = "{1, -1}";
type = Corner;
name = _corner.leftSerif;
options = 1;
},
{
type = Corner;
name = _corner.leftSerif;
},
{
scale = "{1, -1}";
type = Corner;
name = _corner.leftSerif;
options = 1;
},
{
scale = "{1, -1}";
type = Corner;
name = _corner.leftSerif;
options = 1;
},
{
type = Corner;
name = _corner.leftSerif;
},
{
scale = "{1, -1}";
type = Corner;
name = _corner.leftSerif;
options = 1;
},
{
scale = "{1, -1}";
type = Corner;
name = _corner.leftSerif;
options = 1;
},
{
type = Corner;
name = _corner.leftSerif;
},
{
scale = "{1, -1}";
type = Corner;
name = _corner.leftSerif;
options = 1;
},
{
scale = "{1, -1}";
type = Corner;
name = _corner.leftSerif;
options = 1;
},
{
type = Corner;
name = _corner.leftSerif;
},
{
scale = "{1, -1}";
type = Corner;
name = _corner.leftSerif;
options = 1;
},
{
scale = "{1, -1}";
type = Corner;
name = _corner.leftSerif;
options = 1;
},
{
type = Corner;
name = _corner.leftSerif;
},
{
scale = "{1, -1}";
type = Corner;
name = _corner.leftSerif;
options = 1;
},
{
scale = "{1, -1}";
type = Corner;
name = _corner.leftSerif;
options = 1;
},
{
type = Corner;
name = _corner.leftSerif;
},
{
scale = "{1, -1}";
type = Corner;
name = _corner.leftSerif;
options = 1;
},
{
scale = "{1, -1}";
type = Corner;
name = _corner.leftSerif;
options = 1;
},
{
type = Corner;
name = _corner.leftSerif;
},
{
scale = "{1, -1}";
type = Corner;
name = _corner.leftSerif;
options = 1;
},
{
scale = "{1, -1}";
type = Corner;
name = _corner.leftSerif;
options = 1;
},
{
type = Corner;
name = _corner.leftSerif;
},
{
scale = "{1, -1}";
type = Corner;
name = _corner.leftSerif;
options = 1;
},
{
scale = "{1, -1}";
type = Corner;
name = _corner.leftSerif;
options = 1;
},
{
type = Corner;
name = _corner.leftSerif;
},
{
scale = "{1, -1}";
type = Corner;
name = _corner.leftSerif;
options = 1;
},
{
scale = "{1, -1}";
type = Corner;
name = _corner.leftSerif;
options = 1;
},
{
type = Corner;
name = _corner.leftSerif;
},
{
scale = "{1, -1}";
type = Corner;
name = _corner.leftSerif;
options = 1;
},
{
scale = "{1, -1}";
type = Corner;
name = _corner.leftSerif;
options = 1;
},
{
type = Corner;
name = _corner.leftSerif;
},
{
scale = "{1, -1}";
type = Corner;
name = _corner.leftSerif;
options = 1;
},
{
scale = "{1, -1}";
type = Corner;
name = _corner.leftSerif;
options = 1;
},
{
type = Corner;
name = _corner.leftSerif;
},
{
scale = "{1, -1}";
type = Corner;
name = _corner.leftSerif;
options = 1;
},
{
scale = "{1, -1}";
type = Corner;
name = _corner.leftSerif;
options = 1;
},
{
type = Corner;
name = _corner.leftSerif;
},
{
scale = "{1, -1}";
type = Corner;
name = _corner.leftSerif;
options = 1;
},
{
scale = "{1, -1}";
type = Corner;
name = _corner.leftSerif;
options = 1;
},
{
type = Corner;
name = _corner.leftSerif;
},
{
scale = "{1, -1}";
type = Corner;
name = _corner.leftSerif;
options = 1;
},
{
scale = "{1, -1}";
type = Corner;
name = _corner.leftSerif;
options = 1;
},
{
type = Corner;
name = _corner.leftSerif;
},
{
scale = "{1, -1}";
type = Corner;
name = _corner.leftSerif;
options = 1;
},
{
scale = "{1, -1}";
type = Corner;
name = _corner.leftSerif;
options = 1;
},
{
type = Corner;
name = _corner.leftSerif;
},
{
scale = "{1, -1}";
type = Corner;
name = _corner.leftSerif;
options = 1;
},
{
scale = "{1, -1}";
type = Corner;
name = _corner.leftSerif;
options = 1;
},
{
type = Corner;
name = _corner.leftSerif;
},
{
scale = "{1, -1}";
type = Corner;
name = _corner.leftSerif;
options = 1;
},
{
scale = "{1, -1}";
type = Corner;
name = _corner.leftSerif;
options = 1;
},
{
type = Corner;
name = _corner.leftSerif;
}
);
paths = (
{
closed = 1;
nodes = (
"144 0 LINE",
"145 3 LINE",
"83 8 OFFCURVE",
"75 28 OFFCURVE",
"94 96 CURVE SMOOTH",
"169 359 LINE",
"186 342 OFFCURVE",
"213 333 OFFCURVE",
"245 333 CURVE SMOOTH",
"363 333 OFFCURVE",
"456 453 OFFCURVE",
"456 563 CURVE SMOOTH",
"456 649 OFFCURVE",
"406 700 OFFCURVE",
"331 700 CURVE SMOOTH",
"143 700 LINE",
"142 697 LINE",
"198 693 OFFCURVE",
"207 674 OFFCURVE",
"187 603 CURVE SMOOTH",
"41 93 LINE SMOOTH",
"23 32 OFFCURVE",
"-2 11 OFFCURVE",
"-57 3 CURVE",
"-58 0 LINE"
);
},
{
closed = 1;
nodes = (
"352 0 LINE",
"352 4 LINE",
"235 340 LINE",
"221 340 LINE",
"289 0 LINE"
);
},
{
closed = 1;
nodes = (
"206 345 OFFCURVE",
"185 359 OFFCURVE",
"173 374 CURVE",
"243 618 LINE SMOOTH",
"256 665 OFFCURVE",
"272 689 OFFCURVE",
"308 689 CURVE SMOOTH",
"328 689 LINE SMOOTH",
"377 689 OFFCURVE",
"405 652 OFFCURVE",
"405 586 CURVE SMOOTH",
"405 504 OFFCURVE",
"355 345 OFFCURVE",
"239 345 CURVE SMOOTH"
);
}
);
};
layerId = "800CF2A0-134E-4EC9-907D-CE3650520B0A";
paths = (
{
closed = 1;
nodes = (
"144 0 LINE",
"145 3 LINE",
"83 8 OFFCURVE",
"75 28 OFFCURVE",
"94 96 CURVE SMOOTH",
"169 359 LINE",
"186 342 OFFCURVE",
"213 333 OFFCURVE",
"245 333 CURVE SMOOTH",
"363 333 OFFCURVE",
"456 453 OFFCURVE",
"456 563 CURVE SMOOTH",
"456 649 OFFCURVE",
"406 700 OFFCURVE",
"331 700 CURVE SMOOTH",
"143 700 LINE",
"142 697 LINE",
"198 693 OFFCURVE",
"207 674 OFFCURVE",
"187 603 CURVE SMOOTH",
"41 93 LINE SMOOTH",
"23 32 OFFCURVE",
"-2 11 OFFCURVE",
"-57 3 CURVE",
"-58 0 LINE"
);
},
{
closed = 1;
nodes = (
"352 0 LINE",
"352 4 LINE",
"235 340 LINE",
"221 340 LINE",
"289 0 LINE"
);
},
{
closed = 1;
nodes = (
"206 345 OFFCURVE",
"185 359 OFFCURVE",
"173 374 CURVE",
"243 618 LINE SMOOTH",
"256 665 OFFCURVE",
"272 689 OFFCURVE",
"308 689 CURVE SMOOTH",
"328 689 LINE SMOOTH",
"377 689 OFFCURVE",
"405 652 OFFCURVE",
"405 586 CURVE SMOOTH",
"405 504 OFFCURVE",
"355 345 OFFCURVE",
"239 345 CURVE SMOOTH"
);
}
);
width = 410;
}
);
leftKerningGroup = H;
leftMetricsKey = H;
unicode = 0052;
},
{
glyphname = S;
lastChange = "2025-04-05 11:24:18 +0000";
layers = (
{
anchors = (
{
name = bottom;
position = "{122, 0}";
},
{
name = top;
position = "{283, 700}";
}
);
background = {
anchors = (
{
name = bottom;
position = "{122, 0}";
},
{
name = top;
position = "{283, 700}";
}
);
hints = (
{
scale = "{1, -1}";
type = Corner;
name = _corner.leftSerif;
options = 1;
},
{
type = Corner;
name = _corner.leftSerif;
}
);
paths = (
{
closed = 1;
nodes = (
"8 2 LINE",
"18 21 OFFCURVE",
"29 29 OFFCURVE",
"40 29 CURVE SMOOTH",
"65 29 OFFCURVE",
"83 -8 OFFCURVE",
"143 -8 CURVE SMOOTH",
"245 -8 OFFCURVE",
"306 100 OFFCURVE",
"306 197 CURVE SMOOTH",
"306 341 OFFCURVE",
"171 429 OFFCURVE",
"171 555 CURVE SMOOTH",
"171 618 OFFCURVE",
"204 694 OFFCURVE",
"275 694 CURVE SMOOTH",
"353 694 OFFCURVE",
"370 599 OFFCURVE",
"372 488 CURVE",
"375 488 LINE",
"391 708 LINE",
"388 708 LINE",
"377 687 OFFCURVE",
"366 684 OFFCURVE",
"357 684 CURVE SMOOTH",
"333 684 OFFCURVE",
"320 706 OFFCURVE",
"274 706 CURVE SMOOTH",
"175 706 OFFCURVE",
"123 606 OFFCURVE",
"123 532 CURVE SMOOTH",
"123 414 OFFCURVE",
"256 319 OFFCURVE",
"256 182 CURVE SMOOTH",
"256 100 OFFCURVE",
"210 4 OFFCURVE",
"138 4 CURVE SMOOTH",
"50 4 OFFCURVE",
"31 142 OFFCURVE",
"37 241 CURVE",
"34 241 LINE",
"5 2 LINE"
);
}
);
};
layerId = "800CF2A0-134E-4EC9-907D-CE3650520B0A";
paths = (
{
closed = 1;
nodes = (
"8 2 LINE",
"18 21 OFFCURVE",
"29 29 OFFCURVE",
"40 29 CURVE SMOOTH",
"65 29 OFFCURVE",
"83 -8 OFFCURVE",
"143 -8 CURVE SMOOTH",
"245 -8 OFFCURVE",
"306 100 OFFCURVE",
"306 197 CURVE SMOOTH",
"306 341 OFFCURVE",
"171 429 OFFCURVE",
"171 555 CURVE SMOOTH",
"171 618 OFFCURVE",
"204 694 OFFCURVE",
"275 694 CURVE SMOOTH",
"353 694 OFFCURVE",
"370 599 OFFCURVE",
"372 488 CURVE",
"375 488 LINE",
"391 708 LINE",
"388 708 LINE",
"377 687 OFFCURVE",
"366 684 OFFCURVE",
"357 684 CURVE SMOOTH",
"333 684 OFFCURVE",
"320 706 OFFCURVE",
"274 706 CURVE SMOOTH",
"175 706 OFFCURVE",
"123 606 OFFCURVE",
"123 532 CURVE SMOOTH",
"123 414 OFFCURVE",
"256 319 OFFCURVE",
"256 182 CURVE SMOOTH",
"256 100 OFFCURVE",
"210 4 OFFCURVE",
"138 4 CURVE SMOOTH",
"50 4 OFFCURVE",
"31 142 OFFCURVE",
"37 241 CURVE",
"34 241 LINE",
"5 2 LINE"
);
}
);
width = 350;
}
);
leftKerningGroup = S;
rightKerningGroup = S;
unicode = 0053;
},
{
glyphname = T;
lastChange = "2025-04-05 11:24:18 +0000";
layers = (
{
anchors = (
{
name = bottom;
position = "{128, 0}";
},
{
name = center;
position = "{229, 350}";
},
{
name = top;
position = "{329, 700}";
}
);
background = {
anchors = (
{
name = bottom;
position = "{128, 0}";
},
{
name = center;
position = "{229, 350}";
},
{
name = top;
position = "{329, 700}";
}
);
hints = (
{
scale = "{1, -1}";
type = Corner;
name = _corner.leftSerif;
options = 1;
},
{
type = Corner;
name = _corner.leftSerif;
},
{
scale = "{1, -1}";
type = Corner;
name = _corner.leftSerif;
options = 1;
},
{
type = Corner;
name = _corner.leftSerif;
},
{
scale = "{1, -1}";
type = Corner;
name = _corner.leftSerif;
options = 1;
},
{
type = Corner;
name = _corner.leftSerif;
},
{
scale = "{1, -1}";
type = Corner;
name = _corner.leftSerif;
options = 1;
},
{
type = Corner;
name = _corner.leftSerif;
},
{
scale = "{1, -1}";
type = Corner;
name = _corner.leftSerif;
options = 1;
},
{
type = Corner;
name = _corner.leftSerif;
},
{
scale = "{1, -1}";
type = Corner;
name = _corner.leftSerif;
options = 1;
},
{
type = Corner;
name = _corner.leftSerif;
},
{
scale = "{1, -1}";
type = Corner;
name = _corner.leftSerif;
options = 1;
},
{
type = Corner;
name = _corner.leftSerif;
},
{
scale = "{1, -1}";
type = Corner;
name = _corner.leftSerif;
options = 1;
},
{
type = Corner;
name = _corner.leftSerif;
},
{
scale = "{1, -1}";
type = Corner;
name = _corner.leftSerif;
options = 1;
},
{
type = Corner;
name = _corner.leftSerif;
},
{
scale = "{1, -1}";
type = Corner;
name = _corner.leftSerif;
options = 1;
},
{
type = Corner;
name = _corner.leftSerif;
},
{
scale = "{1, -1}";
type = Corner;
name = _corner.leftSerif;
options = 1;
},
{
type = Corner;
name = _corner.leftSerif;
},
{
scale = "{1, -1}";
type = Corner;
name = _corner.leftSerif;
options = 1;
},
{
type = Corner;
name = _corner.leftSerif;
},
{
scale = "{1, -1}";
type = Corner;
name = _corner.leftSerif;
options = 1;
},
{
type = Corner;
name = _corner.leftSerif;
},
{
scale = "{1, -1}";
type = Corner;
name = _corner.leftSerif;
options = 1;
},
{
type = Corner;
name = _corner.leftSerif;
},
{
scale = "{1, -1}";
type = Corner;
name = _corner.leftSerif;
options = 1;
},
{
type = Corner;
name = _corner.leftSerif;
},
{
scale = "{1, -1}";
type = Corner;
name = _corner.leftSerif;
options = 1;
},
{
type = Corner;
name = _corner.leftSerif;
},
{
scale = "{1, -1}";
type = Corner;
name = _corner.leftSerif;
options = 1;
},
{
type = Corner;
name = _corner.leftSerif;
},
{
scale = "{1, -1}";
type = Corner;
name = _corner.leftSerif;
options = 1;
},
{
type = Corner;
name = _corner.leftSerif;
},
{
scale = "{1, -1}";
type = Corner;
name = _corner.leftSerif;
options = 1;
},
{
type = Corner;
name = _corner.leftSerif;
},
{
scale = "{1, -1}";
type = Corner;
name = _corner.leftSerif;
options = 1;
},
{
type = Corner;
name = _corner.leftSerif;
},
{
scale = "{1, -1}";
type = Corner;
name = _corner.leftSerif;
options = 1;
},
{
type = Corner;
name = _corner.leftSerif;
},
{
scale = "{1, -1}";
type = Corner;
name = _corner.leftSerif;
options = 1;
},
{
type = Corner;
name = _corner.leftSerif;
},
{
scale = "{1, -1}";
type = Corner;
name = _corner.leftSerif;
options = 1;
},
{
type = Corner;
name = _corner.leftSerif;
},
{
scale = "{1, -1}";
type = Corner;
name = _corner.leftSerif;
options = 1;
},
{
scale = "{1, -1}";
type = Corner;
name = _corner.leftSerif;
options = 1;
},
{
type = Corner;
name = _corner.leftSerif;
},
{
scale = "{1, -1}";
type = Corner;
name = _corner.leftSerif;
options = 1;
},
{
type = Corner;
name = _corner.leftSerif;
}
);
paths = (
{
closed = 1;
nodes = (
"248 0 LINE",
"249 3 LINE",
"175 8 OFFCURVE",
"165 32 OFFCURVE",
"183 96 CURVE SMOOTH",
"337 634 LINE SMOOTH",
"349 676 OFFCURVE",
"363 689 OFFCURVE",
"394 689 CURVE SMOOTH",
"402 689 LINE SMOOTH",
"448 689 OFFCURVE",
"446 673 OFFCURVE",
"448 493 CURVE",
"451 493 LINE",
"498 725 LINE",
"495 725 LINE",
"482 707 OFFCURVE",
"465 700 OFFCURVE",
"433 700 CURVE SMOOTH",
"223 700 LINE SMOOTH",
"191 700 OFFCURVE",
"178 707 OFFCURVE",
"175 725 CURVE",
"172 725 LINE",
"89 493 LINE",
"92 493 LINE",
"188 663 OFFCURVE",
"197 689 OFFCURVE",
"249 689 CURVE SMOOTH",
"260 689 LINE SMOOTH",
"291 689 OFFCURVE",
"297 676 OFFCURVE",
"285 634 CURVE SMOOTH",
"130 93 LINE SMOOTH",
"111 28 OFFCURVE",
"82 11 OFFCURVE",
"14 3 CURVE",
"13 0 LINE"
);
}
);
};
layerId = "800CF2A0-134E-4EC9-907D-CE3650520B0A";
paths = (
{
closed = 1;
nodes = (
"248 0 LINE",
"249 3 LINE",
"175 8 OFFCURVE",
"165 32 OFFCURVE",
"183 96 CURVE SMOOTH",
"337 634 LINE SMOOTH",
"349 676 OFFCURVE",
"363 689 OFFCURVE",
"394 689 CURVE SMOOTH",
"402 689 LINE SMOOTH",
"448 689 OFFCURVE",
"446 673 OFFCURVE",
"448 493 CURVE",
"451 493 LINE",
"498 725 LINE",
"495 725 LINE",
"482 707 OFFCURVE",
"465 700 OFFCURVE",
"433 700 CURVE SMOOTH",
"223 700 LINE SMOOTH",
"191 700 OFFCURVE",
"178 707 OFFCURVE",
"175 725 CURVE",
"172 725 LINE",
"89 493 LINE",
"92 493 LINE",
"188 663 OFFCURVE",
"197 689 OFFCURVE",
"249 689 CURVE SMOOTH",
"260 689 LINE SMOOTH",
"291 689 OFFCURVE",
"297 676 OFFCURVE",
"285 634 CURVE SMOOTH",
"130 93 LINE SMOOTH",
"111 28 OFFCURVE",
"82 11 OFFCURVE",
"14 3 CURVE",
"13 0 LINE"
);
}
);
width = 400;
}
);
leftKerningGroup = T;
rightKerningGroup = T;
rightMetricsKey = "=|";
unicode = 0054;
},
{
glyphname = U;
lastChange = "2025-04-05 11:24:18 +0000";
layers = (
{
anchors = (
{
name = bottom;
position = "{148, 0}";
},
{
name = ogonek;
position = "{209, 0}";
},
{
name = top;
position = "{365, 700}";
},
{
name = topright;
position = "{558, 700}";
}
);
background = {
anchors = (
{
name = bottom;
position = "{148, 0}";
},
{
name = ogonek;
position = "{209, 0}";
},
{
name = top;
position = "{365, 700}";
},
{
name = topright;
position = "{558, 700}";
}
);
hints = (
{
type = Corner;
name = _corner.leftSerif;
},
{
scale = "{1, -1}";
type = Corner;
name = _corner.rightSerif;
options = 1;
},
{
type = Corner;
name = _corner.leftSerif;
},
{
scale = "{1, -1}";
type = Corner;
name = _corner.rightSerif;
options = 1;
},
{
type = Corner;
name = _corner.leftSerif;
},
{
scale = "{1, -1}";
type = Corner;
name = _corner.rightSerif;
options = 1;
},
{
type = Corner;
name = _corner.leftSerif;
},
{
scale = "{1, -1}";
type = Corner;
name = _corner.rightSerif;
options = 1;
},
{
type = Corner;
name = _corner.leftSerif;
},
{
scale = "{1, -1}";
type = Corner;
name = _corner.rightSerif;
options = 1;
},
{
type = Corner;
name = _corner.leftSerif;
},
{
scale = "{1, -1}";
type = Corner;
name = _corner.rightSerif;
options = 1;
},
{
type = Corner;
name = _corner.leftSerif;
},
{
scale = "{1, -1}";
type = Corner;
name = _corner.rightSerif;
options = 1;
},
{
type = Corner;
name = _corner.leftSerif;
},
{
scale = "{1, -1}";
type = Corner;
name = _corner.rightSerif;
options = 1;
},
{
type = Corner;
name = _corner.leftSerif;
},
{
scale = "{1, -1}";
type = Corner;
name = _corner.rightSerif;
options = 1;
},
{
type = Corner;
name = _corner.leftSerif;
},
{
scale = "{1, -1}";
type = Corner;
name = _corner.rightSerif;
options = 1;
},
{
type = Corner;
name = _corner.leftSerif;
},
{
scale = "{1, -1}";
type = Corner;
name = _corner.rightSerif;
options = 1;
},
{
type = Corner;
name = _corner.leftSerif;
},
{
scale = "{1, -1}";
type = Corner;
name = _corner.rightSerif;
options = 1;
},
{
type = Corner;
name = _corner.leftSerif;
},
{
scale = "{1, -1}";
type = Corner;
name = _corner.rightSerif;
options = 1;
},
{
type = Corner;
name = _corner.leftSerif;
},
{
scale = "{1, -1}";
type = Corner;
name = _corner.rightSerif;
options = 1;
},
{
type = Corner;
name = _corner.leftSerif;
},
{
scale = "{1, -1}";
type = Corner;
name = _corner.rightSerif;
options = 1;
},
{
type = Corner;
name = _corner.leftSerif;
},
{
scale = "{1, -1}";
type = Corner;
name = _corner.rightSerif;
options = 1;
},
{
type = Corner;
name = _corner.leftSerif;
},
{
scale = "{1, -1}";
type = Corner;
name = _corner.rightSerif;
options = 1;
},
{
type = Corner;
name = _corner.leftSerif;
},
{
scale = "{1, -1}";
type = Corner;
name = _corner.rightSerif;
options = 1;
},
{
type = Corner;
name = _corner.leftSerif;
},
{
scale = "{1, -1}";
type = Corner;
name = _corner.rightSerif;
options = 1;
},
{
type = Corner;
name = _corner.leftSerif;
},
{
scale = "{1, -1}";
type = Corner;
name = _corner.rightSerif;
options = 1;
},
{
type = Corner;
name = _corner.leftSerif;
},
{
scale = "{1, -1}";
type = Corner;
name = _corner.rightSerif;
options = 1;
},
{
type = Corner;
name = _corner.leftSerif;
},
{
scale = "{1, -1}";
type = Corner;
name = _corner.rightSerif;
options = 1;
},
{
type = Corner;
name = _corner.leftSerif;
},
{
scale = "{1, -1}";
type = Corner;
name = _corner.rightSerif;
options = 1;
},
{
type = Corner;
name = _corner.leftSerif;
},
{
scale = "{1, -1}";
type = Corner;
name = _corner.rightSerif;
options = 1;
},
{
type = Corner;
name = _corner.leftSerif;
},
{
scale = "{1, -1}";
type = Corner;
name = _corner.rightSerif;
options = 1;
},
{
type = Corner;
name = _corner.leftSerif;
},
{
scale = "{1, -1}";
type = Corner;
name = _corner.rightSerif;
options = 1;
},
{
type = Corner;
name = _corner.rightSerif;
},
{
scale = "{1, -1}";
type = Corner;
name = _corner.leftSerif;
options = 1;
},
{
type = Corner;
name = _corner.leftSerif;
},
{
scale = "{1, -1}";
type = Corner;
name = _corner.rightSerif;
options = 1;
},
{
type = Corner;
name = _corner.rightSerif;
},
{
scale = "{1, -1}";
type = Corner;
name = _corner.leftSerif;
options = 1;
},
{
type = Corner;
name = _corner.leftSerif;
},
{
scale = "{1, -1}";
type = Corner;
name = _corner.rightSerif;
options = 1;
},
{
type = Corner;
name = _corner.rightSerif;
},
{
scale = "{1, -1}";
type = Corner;
name = _corner.leftSerif;
options = 1;
},
{
type = Corner;
name = _corner.leftSerif;
},
{
scale = "{1, -1}";
type = Corner;
name = _corner.rightSerif;
options = 1;
},
{
type = Corner;
name = _corner.rightSerif;
},
{
scale = "{1, -1}";
type = Corner;
name = _corner.leftSerif;
options = 1;
},
{
type = Corner;
name = _corner.leftSerif;
},
{
scale = "{1, -1}";
type = Corner;
name = _corner.rightSerif;
options = 1;
},
{
type = Corner;
name = _corner.rightSerif;
},
{
scale = "{1, -1}";
type = Corner;
name = _corner.leftSerif;
options = 1;
},
{
type = Corner;
name = _corner.leftSerif;
},
{
scale = "{1, -1}";
type = Corner;
name = _corner.rightSerif;
options = 1;
},
{
type = Corner;
name = _corner.rightSerif;
},
{
scale = "{1, -1}";
type = Corner;
name = _corner.leftSerif;
options = 1;
},
{
type = Corner;
name = _corner.leftSerif;
},
{
scale = "{1, -1}";
type = Corner;
name = _corner.rightSerif;
options = 1;
},
{
type = Corner;
name = _corner.rightSerif;
},
{
scale = "{1, -1}";
type = Corner;
name = _corner.leftSerif;
options = 1;
},
{
type = Corner;
name = _corner.leftSerif;
},
{
scale = "{1, -1}";
type = Corner;
name = _corner.rightSerif;
options = 1;
},
{
type = Corner;
name = _corner.rightSerif;
},
{
scale = "{1, -1}";
type = Corner;
name = _corner.leftSerif;
options = 1;
},
{
type = Corner;
name = _corner.leftSerif;
},
{
scale = "{1, -1}";
type = Corner;
name = _corner.rightSerif;
options = 1;
},
{
type = Corner;
name = _corner.rightSerif;
},
{
scale = "{1, -1}";
type = Corner;
name = _corner.leftSerif;
options = 1;
},
{
type = Corner;
name = _corner.leftSerif;
},
{
scale = "{1, -1}";
type = Corner;
name = _corner.rightSerif;
options = 1;
},
{
type = Corner;
name = _corner.rightSerif;
},
{
scale = "{1, -1}";
type = Corner;
name = _corner.leftSerif;
options = 1;
},
{
type = Corner;
name = _corner.leftSerif;
},
{
scale = "{1, -1}";
type = Corner;
name = _corner.rightSerif;
options = 1;
}
);
paths = (
{
closed = 1;
nodes = (
"258 -8 OFFCURVE",
"319 81 OFFCURVE",
"355 205 CURVE SMOOTH",
"470 607 LINE SMOOTH",
"488 668 OFFCURVE",
"508 691 OFFCURVE",
"564 697 CURVE",
"565 700 LINE",
"409 700 LINE",
"408 697 LINE",
"461 692 OFFCURVE",
"476 676 OFFCURVE",
"456 607 CURVE SMOOTH",
"341 205 LINE SMOOTH",
"309 93 OFFCURVE",
"251 12 OFFCURVE",
"176 12 CURVE SMOOTH",
"114 12 OFFCURVE",
"86 89 OFFCURVE",
"116 195 CURVE SMOOTH",
"236 614 LINE SMOOTH",
"251 668 OFFCURVE",
"271 693 OFFCURVE",
"327 697 CURVE",
"328 700 LINE",
"139 700 LINE",
"138 697 LINE",
"192 692 OFFCURVE",
"201 674 OFFCURVE",
"181 603 CURVE SMOOTH",
"64 195 LINE SMOOTH",
"32 82 OFFCURVE",
"71 -8 OFFCURVE",
"162 -8 CURVE SMOOTH"
);
}
);
};
layerId = "800CF2A0-134E-4EC9-907D-CE3650520B0A";
paths = (
{
closed = 1;
nodes = (
"258 -8 OFFCURVE",
"319 81 OFFCURVE",
"355 205 CURVE SMOOTH",
"470 607 LINE SMOOTH",
"488 668 OFFCURVE",
"508 691 OFFCURVE",
"564 697 CURVE",
"565 700 LINE",
"409 700 LINE",
"408 697 LINE",
"461 692 OFFCURVE",
"476 676 OFFCURVE",
"456 607 CURVE SMOOTH",
"341 205 LINE SMOOTH",
"309 93 OFFCURVE",
"251 12 OFFCURVE",
"176 12 CURVE SMOOTH",
"114 12 OFFCURVE",
"86 89 OFFCURVE",
"116 195 CURVE SMOOTH",
"236 614 LINE SMOOTH",
"251 668 OFFCURVE",
"271 693 OFFCURVE",
"327 697 CURVE",
"328 700 LINE",
"139 700 LINE",
"138 697 LINE",
"192 692 OFFCURVE",
"201 674 OFFCURVE",
"181 603 CURVE SMOOTH",
"64 195 LINE SMOOTH",
"32 82 OFFCURVE",
"71 -8 OFFCURVE",
"162 -8 CURVE SMOOTH"
);
}
);
width = 440;
}
);
leftKerningGroup = U;
rightKerningGroup = U;
unicode = 0055;
},
{
glyphname = V;
lastChange = "2025-04-05 11:24:18 +0000";
layers = (
{
background = {
paths = (
{
closed = 1;
nodes = (
"143 -8 LINE",
"443 601 LINE SMOOTH",
"480 676 OFFCURVE",
"505 691 OFFCURVE",
"557 697 CURVE",
"558 700 LINE",
"401 700 LINE",
"400 697 LINE",
"461 693 OFFCURVE",
"466 680 OFFCURVE",
"427 600 CURVE SMOOTH",
"177 93 LINE",
"195 104 LINE",
"223 611 LINE SMOOTH",
"227 677 OFFCURVE",
"248 693 OFFCURVE",
"303 697 CURVE",
"304 700 LINE",
"111 700 LINE",
"110 697 LINE",
"158 693 OFFCURVE",
"176 676 OFFCURVE",
"173 615 CURVE SMOOTH",
"139 -8 LINE"
);
}
);
};
layerId = "800CF2A0-134E-4EC9-907D-CE3650520B0A";
paths = (
{
closed = 1;
nodes = (
"143 -8 LINE",
"443 601 LINE SMOOTH",
"480 676 OFFCURVE",
"505 691 OFFCURVE",
"557 697 CURVE",
"558 700 LINE",
"401 700 LINE",
"400 697 LINE",
"461 693 OFFCURVE",
"466 680 OFFCURVE",
"427 600 CURVE SMOOTH",
"177 93 LINE",
"195 104 LINE",
"223 611 LINE SMOOTH",
"227 677 OFFCURVE",
"248 693 OFFCURVE",
"303 697 CURVE",
"304 700 LINE",
"111 700 LINE",
"110 697 LINE",
"158 693 OFFCURVE",
"176 676 OFFCURVE",
"173 615 CURVE SMOOTH",
"139 -8 LINE"
);
}
);
width = 422;
}
);
leftKerningGroup = V;
rightKerningGroup = V;
unicode = 0056;
},
{
glyphname = W;
lastChange = "2025-04-05 11:24:18 +0000";
layers = (
{
anchors = (
{
name = bottom;
position = "{224, 0}";
},
{
name = top;
position = "{439, 700}";
}
);
background = {
anchors = (
{
name = bottom;
position = "{224, 0}";
},
{
name = top;
position = "{439, 700}";
}
);
paths = (
{
closed = 1;
nodes = (
"336 -8 LINE",
"639 618 LINE SMOOTH",
"668 677 OFFCURVE",
"697 692 OFFCURVE",
"756 697 CURVE",
"757 700 LINE",
"307 700 LINE",
"306 697 LINE",
"345 694 OFFCURVE",
"350 680 OFFCURVE",
"349 639 CURVE SMOOTH",
"332 -8 LINE"
);
},
{
closed = 1;
nodes = (
"126 -8 LINE",
"358 416 LINE",
"360 446 LINE",
"171 101 LINE",
"177 101 LINE",
"210 604 LINE SMOOTH",
"215 680 OFFCURVE",
"232 694 OFFCURVE",
"284 697 CURVE",
"285 700 LINE",
"98 700 LINE",
"97 697 LINE",
"147 692 OFFCURVE",
"165 677 OFFCURVE",
"160 604 CURVE SMOOTH",
"122 -8 LINE"
);
},
{
closed = 1;
nodes = (
"381 104 LINE",
"397 631 LINE SMOOTH",
"398 672 OFFCURVE",
"417 695 OFFCURVE",
"454 695 CURVE SMOOTH",
"489 695 OFFCURVE",
"495 674 OFFCURVE",
"470 629 CURVE SMOOTH",
"378 462 LINE",
"378 436 LINE",
"484 628 LINE SMOOTH",
"510 675 OFFCURVE",
"523 695 OFFCURVE",
"588 695 CURVE SMOOTH",
"654 695 OFFCURVE",
"648 666 OFFCURVE",
"624 616 CURVE SMOOTH",
"376 104 LINE"
);
}
);
};
layerId = "800CF2A0-134E-4EC9-907D-CE3650520B0A";
paths = (
{
closed = 1;
nodes = (
"336 -8 LINE",
"639 618 LINE SMOOTH",
"668 677 OFFCURVE",
"697 692 OFFCURVE",
"756 697 CURVE",
"757 700 LINE",
"307 700 LINE",
"306 697 LINE",
"345 694 OFFCURVE",
"350 680 OFFCURVE",
"349 639 CURVE SMOOTH",
"332 -8 LINE"
);
},
{
closed = 1;
nodes = (
"126 -8 LINE",
"358 416 LINE",
"360 446 LINE",
"171 101 LINE",
"177 101 LINE",
"210 604 LINE SMOOTH",
"215 680 OFFCURVE",
"232 694 OFFCURVE",
"284 697 CURVE",
"285 700 LINE",
"98 700 LINE",
"97 697 LINE",
"147 692 OFFCURVE",
"165 677 OFFCURVE",
"160 604 CURVE SMOOTH",
"122 -8 LINE"
);
},
{
closed = 1;
nodes = (
"381 104 LINE",
"397 631 LINE SMOOTH",
"398 672 OFFCURVE",
"417 695 OFFCURVE",
"454 695 CURVE SMOOTH",
"489 695 OFFCURVE",
"495 674 OFFCURVE",
"470 629 CURVE SMOOTH",
"378 462 LINE",
"378 436 LINE",
"484 628 LINE SMOOTH",
"510 675 OFFCURVE",
"523 695 OFFCURVE",
"588 695 CURVE SMOOTH",
"654 695 OFFCURVE",
"648 666 OFFCURVE",
"624 616 CURVE SMOOTH",
"376 104 LINE"
);
}
);
width = 592;
}
);
leftKerningGroup = W;
rightKerningGroup = W;
unicode = 0057;
},
{
glyphname = X;
lastChange = "2025-04-05 11:24:18 +0000";
layers = (
{
background = {
paths = (
{
closed = 1;
nodes = (
"378 0 LINE",
"379 3 LINE",
"321 8 OFFCURVE",
"303 24 OFFCURVE",
"296 90 CURVE SMOOTH",
"239 624 LINE SMOOTH",
"234 675 OFFCURVE",
"246 695 OFFCURVE",
"305 697 CURVE",
"306 700 LINE",
"117 700 LINE",
"116 697 LINE",
"168 691 OFFCURVE",
"185 673 OFFCURVE",
"191 610 CURVE SMOOTH",
"246 75 LINE SMOOTH",
"251 25 OFFCURVE",
"238 6 OFFCURVE",
"176 3 CURVE",
"175 0 LINE"
);
},
{
closed = 1;
nodes = (
"67 0 LINE",
"68 3 LINE",
"5 6 OFFCURVE",
"-1 18 OFFCURVE",
"43 80 CURVE SMOOTH",
"243 366 LINE",
"238 380 LINE",
"25 78 LINE SMOOTH",
"-16 20 OFFCURVE",
"-52 7 OFFCURVE",
"-105 3 CURVE",
"-106 0 LINE"
);
},
{
closed = 1;
nodes = (
"427 622 LINE SMOOTH",
"470 685 OFFCURVE",
"501 695 OFFCURVE",
"548 697 CURVE",
"549 700 LINE",
"387 700 LINE",
"386 697 LINE",
"446 694 OFFCURVE",
"453 684 OFFCURVE",
"408 618 CURVE SMOOTH",
"259 398 LINE",
"264 384 LINE"
);
}
);
};
layerId = "800CF2A0-134E-4EC9-907D-CE3650520B0A";
paths = (
{
closed = 1;
nodes = (
"378 0 LINE",
"379 3 LINE",
"321 8 OFFCURVE",
"303 24 OFFCURVE",
"296 90 CURVE SMOOTH",
"239 624 LINE SMOOTH",
"234 675 OFFCURVE",
"246 695 OFFCURVE",
"305 697 CURVE",
"306 700 LINE",
"117 700 LINE",
"116 697 LINE",
"168 691 OFFCURVE",
"185 673 OFFCURVE",
"191 610 CURVE SMOOTH",
"246 75 LINE SMOOTH",
"251 25 OFFCURVE",
"238 6 OFFCURVE",
"176 3 CURVE",
"175 0 LINE"
);
},
{
closed = 1;
nodes = (
"67 0 LINE",
"68 3 LINE",
"5 6 OFFCURVE",
"-1 18 OFFCURVE",
"43 80 CURVE SMOOTH",
"243 366 LINE",
"238 380 LINE",
"25 78 LINE SMOOTH",
"-16 20 OFFCURVE",
"-52 7 OFFCURVE",
"-105 3 CURVE",
"-106 0 LINE"
);
},
{
closed = 1;
nodes = (
"427 622 LINE SMOOTH",
"470 685 OFFCURVE",
"501 695 OFFCURVE",
"548 697 CURVE",
"549 700 LINE",
"387 700 LINE",
"386 697 LINE",
"446 694 OFFCURVE",
"453 684 OFFCURVE",
"408 618 CURVE SMOOTH",
"259 398 LINE",
"264 384 LINE"
);
}
);
width = 416;
}
);
unicode = 0058;
},
{
glyphname = Y;
lastChange = "2025-04-05 11:24:18 +0000";
layers = (
{
anchors = (
{
name = bottom;
position = "{126, 0}";
},
{
name = top;
position = "{332, 700}";
},
{
name = topleft;
position = "{135, 700}";
}
);
background = {
anchors = (
{
name = bottom;
position = "{126, 0}";
},
{
name = top;
position = "{332, 700}";
},
{
name = topleft;
position = "{135, 700}";
}
);
hints = (
{
type = Corner;
name = _corner.leftSerif;
},
{
scale = "{1, -1}";
type = Corner;
name = _corner.leftSerif;
options = 1;
},
{
type = Corner;
name = _corner.leftSerif;
},
{
scale = "{1, -1}";
type = Corner;
name = _corner.leftSerif;
options = 1;
},
{
type = Corner;
name = _corner.leftSerif;
},
{
scale = "{1, -1}";
type = Corner;
name = _corner.leftSerif;
options = 1;
},
{
type = Corner;
name = _corner.leftSerif;
},
{
scale = "{1, -1}";
type = Corner;
name = _corner.leftSerif;
options = 1;
},
{
type = Corner;
name = _corner.leftSerif;
},
{
scale = "{1, -1}";
type = Corner;
name = _corner.leftSerif;
options = 1;
},
{
type = Corner;
name = _corner.leftSerif;
},
{
scale = "{1, -1}";
type = Corner;
name = _corner.leftSerif;
options = 1;
},
{
type = Corner;
name = _corner.leftSerif;
},
{
scale = "{1, -1}";
type = Corner;
name = _corner.leftSerif;
options = 1;
},
{
type = Corner;
name = _corner.leftSerif;
},
{
scale = "{1, -1}";
type = Corner;
name = _corner.leftSerif;
options = 1;
},
{
type = Corner;
name = _corner.leftSerif;
},
{
scale = "{1, -1}";
type = Corner;
name = _corner.leftSerif;
options = 1;
},
{
type = Corner;
name = _corner.leftSerif;
},
{
scale = "{1, -1}";
type = Corner;
name = _corner.leftSerif;
options = 1;
},
{
type = Corner;
name = _corner.leftSerif;
},
{
scale = "{1, -1}";
type = Corner;
name = _corner.leftSerif;
options = 1;
}
);
paths = (
{
closed = 1;
nodes = (
"251 0 LINE",
"252 3 LINE",
"179 8 OFFCURVE",
"169 32 OFFCURVE",
"187 96 CURVE SMOOTH",
"260 351 LINE",
"437 615 LINE SMOOTH",
"478 676 OFFCURVE",
"496 691 OFFCURVE",
"546 697 CURVE",
"547 700 LINE",
"399 700 LINE",
"398 697 LINE",
"453 692 OFFCURVE",
"466 683 OFFCURVE",
"420 615 CURVE SMOOTH",
"241 347 LINE",
"252 347 LINE",
"220 621 LINE SMOOTH",
"214 675 OFFCURVE",
"232 693 OFFCURVE",
"288 697 CURVE",
"289 700 LINE",
"103 700 LINE",
"102 697 LINE",
"154 691 OFFCURVE",
"164 671 OFFCURVE",
"169 630 CURVE SMOOTH",
"204 338 LINE",
"134 93 LINE SMOOTH",
"115 28 OFFCURVE",
"86 11 OFFCURVE",
"18 3 CURVE",
"17 0 LINE"
);
}
);
};
layerId = "800CF2A0-134E-4EC9-907D-CE3650520B0A";
paths = (
{
closed = 1;
nodes = (
"251 0 LINE",
"252 3 LINE",
"179 8 OFFCURVE",
"169 32 OFFCURVE",
"187 96 CURVE SMOOTH",
"260 351 LINE",
"437 615 LINE SMOOTH",
"478 676 OFFCURVE",
"496 691 OFFCURVE",
"546 697 CURVE",
"547 700 LINE",
"399 700 LINE",
"398 697 LINE",
"453 692 OFFCURVE",
"466 683 OFFCURVE",
"420 615 CURVE SMOOTH",
"241 347 LINE",
"252 347 LINE",
"220 621 LINE SMOOTH",
"214 675 OFFCURVE",
"232 693 OFFCURVE",
"288 697 CURVE",
"289 700 LINE",
"103 700 LINE",
"102 697 LINE",
"154 691 OFFCURVE",
"164 671 OFFCURVE",
"169 630 CURVE SMOOTH",
"204 338 LINE",
"134 93 LINE SMOOTH",
"115 28 OFFCURVE",
"86 11 OFFCURVE",
"18 3 CURVE",
"17 0 LINE"
);
}
);
width = 398;
}
);
leftKerningGroup = Y;
rightKerningGroup = Y;
unicode = 0059;
},
{
glyphname = Z;
lastChange = "2025-04-05 11:24:18 +0000";
layers = (
{
anchors = (
{
name = bottom;
position = "{126, 0}";
},
{
name = center;
position = "{226, 350}";
},
{
name = top;
position = "{337, 700}";
}
);
background = {
anchors = (
{
name = bottom;
position = "{126, 0}";
},
{
name = center;
position = "{226, 350}";
},
{
name = top;
position = "{337, 700}";
}
);
hints = (
{
scale = "{1, -1}";
type = Corner;
name = _corner.leftSerif;
options = 1;
},
{
type = Corner;
name = _corner.leftSerif;
}
);
paths = (
{
closed = 1;
nodes = (
"255 -29 LINE",
"353 211 LINE",
"350 211 LINE",
"261 45 OFFCURVE",
"229 11 OFFCURVE",
"153 11 CURVE SMOOTH",
"20 11 LINE",
"490 697 LINE",
"491 700 LINE",
"261 700 LINE SMOOTH",
"229 700 OFFCURVE",
"216 708 OFFCURVE",
"214 729 CURVE",
"211 729 LINE",
"112 489 LINE",
"115 489 LINE",
"205 655 OFFCURVE",
"238 689 OFFCURVE",
"303 689 CURVE SMOOTH",
"425 689 LINE",
"-45 3 LINE",
"-46 0 LINE",
"205 0 LINE SMOOTH",
"237 0 OFFCURVE",
"250 -8 OFFCURVE",
"252 -29 CURVE"
);
}
);
};
layerId = "800CF2A0-134E-4EC9-907D-CE3650520B0A";
paths = (
{
closed = 1;
nodes = (
"255 -29 LINE",
"353 211 LINE",
"350 211 LINE",
"261 45 OFFCURVE",
"229 11 OFFCURVE",
"153 11 CURVE SMOOTH",
"20 11 LINE",
"490 697 LINE",
"491 700 LINE",
"261 700 LINE SMOOTH",
"229 700 OFFCURVE",
"216 708 OFFCURVE",
"214 729 CURVE",
"211 729 LINE",
"112 489 LINE",
"115 489 LINE",
"205 655 OFFCURVE",
"238 689 OFFCURVE",
"303 689 CURVE SMOOTH",
"425 689 LINE",
"-45 3 LINE",
"-46 0 LINE",
"205 0 LINE SMOOTH",
"237 0 OFFCURVE",
"250 -8 OFFCURVE",
"252 -29 CURVE"
);
}
);
width = 394;
}
);
leftKerningGroup = Z;
rightKerningGroup = Z;
unicode = 005A;
},
{
glyphname = a;
lastChange = "2025-04-05 11:24:18 +0000";
layers = (
{
anchors = (
{
name = bottom;
position = "{128, 0}";
},
{
name = ogonek;
position = "{250, 10}";
},
{
name = top;
position = "{241, 500}";
}
);
background = {
anchors = (
{
name = bottom;
position = "{128, 0}";
},
{
name = ogonek;
position = "{250, 10}";
},
{
name = top;
position = "{241, 500}";
}
);
paths = (
{
closed = 1;
nodes = (
"108 -8 OFFCURVE",
"176 77 OFFCURVE",
"282 353 CURVE",
"270 337 LINE",
"195 72 LINE SMOOTH",
"177 8 OFFCURVE",
"189 -6 OFFCURVE",
"207 -6 CURVE SMOOTH",
"235 -6 OFFCURVE",
"273 48 OFFCURVE",
"321 140 CURVE",
"315 140 LINE",
"283 85 OFFCURVE",
"260 51 OFFCURVE",
"235 23 CURVE SMOOTH",
"228 15 OFFCURVE",
"225 13 OFFCURVE",
"227 21 CURVE SMOOTH",
"365 506 LINE",
"361 506 LINE",
"299 434 LINE",
"334 434 LINE",
"316 484 OFFCURVE",
"287 507 OFFCURVE",
"247 507 CURVE SMOOTH",
"108 507 OFFCURVE",
"13 244 OFFCURVE",
"13 97 CURVE SMOOTH",
"13 33 OFFCURVE",
"31 -8 OFFCURVE",
"64 -8 CURVE SMOOTH"
);
},
{
closed = 1;
nodes = (
"59 7 OFFCURVE",
"52 24 OFFCURVE",
"52 53 CURVE SMOOTH",
"52 165 OFFCURVE",
"135 496 OFFCURVE",
"247 496 CURVE SMOOTH",
"275 496 OFFCURVE",
"290 469 OFFCURVE",
"292 407 CURVE",
"203 159 OFFCURVE",
"108 7 OFFCURVE",
"72 7 CURVE SMOOTH"
);
}
);
};
layerId = "800CF2A0-134E-4EC9-907D-CE3650520B0A";
paths = (
{
closed = 1;
nodes = (
"108 -8 OFFCURVE",
"176 77 OFFCURVE",
"282 353 CURVE",
"270 337 LINE",
"195 72 LINE SMOOTH",
"177 8 OFFCURVE",
"189 -6 OFFCURVE",
"207 -6 CURVE SMOOTH",
"235 -6 OFFCURVE",
"273 48 OFFCURVE",
"321 140 CURVE",
"315 140 LINE",
"283 85 OFFCURVE",
"260 51 OFFCURVE",
"235 23 CURVE SMOOTH",
"228 15 OFFCURVE",
"225 13 OFFCURVE",
"227 21 CURVE SMOOTH",
"365 506 LINE",
"361 506 LINE",
"299 434 LINE",
"334 434 LINE",
"316 484 OFFCURVE",
"287 507 OFFCURVE",
"247 507 CURVE SMOOTH",
"108 507 OFFCURVE",
"13 244 OFFCURVE",
"13 97 CURVE SMOOTH",
"13 33 OFFCURVE",
"31 -8 OFFCURVE",
"64 -8 CURVE SMOOTH"
);
},
{
closed = 1;
nodes = (
"59 7 OFFCURVE",
"52 24 OFFCURVE",
"52 53 CURVE SMOOTH",
"52 165 OFFCURVE",
"135 496 OFFCURVE",
"247 496 CURVE SMOOTH",
"275 496 OFFCURVE",
"290 469 OFFCURVE",
"292 407 CURVE",
"203 159 OFFCURVE",
"108 7 OFFCURVE",
"72 7 CURVE SMOOTH"
);
}
);
width = 364;
}
);
leftKerningGroup = a;
rightKerningGroup = a;
unicode = 0061;
},
{
glyphname = b;
lastChange = "2025-04-05 11:24:18 +0000";
layers = (
{
background = {
paths = (
{
closed = 1;
nodes = (
"199 -8 OFFCURVE",
"293 112 OFFCURVE",
"332 272 CURVE SMOOTH",
"344 321 OFFCURVE",
"348 364 OFFCURVE",
"348 399 CURVE SMOOTH",
"348 469 OFFCURVE",
"324 508 OFFCURVE",
"285 508 CURVE SMOOTH",
"230 508 OFFCURVE",
"174 441 OFFCURVE",
"81 175 CURVE",
"91 175 LINE",
"192 455 OFFCURVE",
"252 494 OFFCURVE",
"276 494 CURVE SMOOTH",
"296 494 OFFCURVE",
"306 471 OFFCURVE",
"306 431 CURVE SMOOTH",
"306 394 OFFCURVE",
"300 332 OFFCURVE",
"281 261 CURVE SMOOTH",
"239 106 OFFCURVE",
"170 3 OFFCURVE",
"111 3 CURVE SMOOTH",
"74 3 OFFCURVE",
"58 61 OFFCURVE",
"90 172 CURVE SMOOTH",
"249 725 LINE",
"246 725 LINE",
"212 695 OFFCURVE",
"171 679 OFFCURVE",
"118 675 CURVE",
"117 672 LINE",
"171 670 OFFCURVE",
"182 656 OFFCURVE",
"168 609 CURVE SMOOTH",
"52 204 LINE SMOOTH",
"15 75 OFFCURVE",
"45 -8 OFFCURVE",
"112 -8 CURVE SMOOTH"
);
}
);
};
layerId = "800CF2A0-134E-4EC9-907D-CE3650520B0A";
paths = (
{
closed = 1;
nodes = (
"199 -8 OFFCURVE",
"293 112 OFFCURVE",
"332 272 CURVE SMOOTH",
"344 321 OFFCURVE",
"348 364 OFFCURVE",
"348 399 CURVE SMOOTH",
"348 469 OFFCURVE",
"324 508 OFFCURVE",
"285 508 CURVE SMOOTH",
"230 508 OFFCURVE",
"174 441 OFFCURVE",
"81 175 CURVE",
"91 175 LINE",
"192 455 OFFCURVE",
"252 494 OFFCURVE",
"276 494 CURVE SMOOTH",
"296 494 OFFCURVE",
"306 471 OFFCURVE",
"306 431 CURVE SMOOTH",
"306 394 OFFCURVE",
"300 332 OFFCURVE",
"281 261 CURVE SMOOTH",
"239 106 OFFCURVE",
"170 3 OFFCURVE",
"111 3 CURVE SMOOTH",
"74 3 OFFCURVE",
"58 61 OFFCURVE",
"90 172 CURVE SMOOTH",
"249 725 LINE",
"246 725 LINE",
"212 695 OFFCURVE",
"171 679 OFFCURVE",
"118 675 CURVE",
"117 672 LINE",
"171 670 OFFCURVE",
"182 656 OFFCURVE",
"168 609 CURVE SMOOTH",
"52 204 LINE SMOOTH",
"15 75 OFFCURVE",
"45 -8 OFFCURVE",
"112 -8 CURVE SMOOTH"
);
}
);
width = 363;
}
);
rightKerningGroup = b;
unicode = 0062;
},
{
glyphname = c;
lastChange = "2025-04-05 11:24:18 +0000";
layers = (
{
anchors = (
{
name = bottom;
position = "{96, 0}";
},
{
name = top;
position = "{223, 500}";
}
);
background = {
anchors = (
{
name = bottom;
position = "{96, 0}";
},
{
name = top;
position = "{223, 500}";
}
);
paths = (
{
closed = 1;
nodes = (
"144 -8 OFFCURVE",
"201 39 OFFCURVE",
"258 168 CURVE",
"252 168 LINE",
"184 34 OFFCURVE",
"133 14 OFFCURVE",
"115 14 CURVE SMOOTH",
"87 14 OFFCURVE",
"67 45 OFFCURVE",
"67 111 CURVE SMOOTH",
"67 154 OFFCURVE",
"76 211 OFFCURVE",
"95 284 CURVE SMOOTH",
"128 409 OFFCURVE",
"183 497 OFFCURVE",
"240 497 CURVE SMOOTH",
"270 497 OFFCURVE",
"274 464 OFFCURVE",
"288 333 CURVE",
"291 333 LINE",
"303 486 LINE",
"284 502 OFFCURVE",
"261 508 OFFCURVE",
"240 508 CURVE SMOOTH",
"160 508 OFFCURVE",
"77 411 OFFCURVE",
"39 266 CURVE SMOOTH",
"25 214 OFFCURVE",
"19 166 OFFCURVE",
"19 124 CURVE SMOOTH",
"19 44 OFFCURVE",
"47 -8 OFFCURVE",
"100 -8 CURVE SMOOTH"
);
}
);
};
layerId = "800CF2A0-134E-4EC9-907D-CE3650520B0A";
paths = (
{
closed = 1;
nodes = (
"144 -8 OFFCURVE",
"201 39 OFFCURVE",
"258 168 CURVE",
"252 168 LINE",
"184 34 OFFCURVE",
"133 14 OFFCURVE",
"115 14 CURVE SMOOTH",
"87 14 OFFCURVE",
"67 45 OFFCURVE",
"67 111 CURVE SMOOTH",
"67 154 OFFCURVE",
"76 211 OFFCURVE",
"95 284 CURVE SMOOTH",
"128 409 OFFCURVE",
"183 497 OFFCURVE",
"240 497 CURVE SMOOTH",
"270 497 OFFCURVE",
"274 464 OFFCURVE",
"288 333 CURVE",
"291 333 LINE",
"303 486 LINE",
"284 502 OFFCURVE",
"261 508 OFFCURVE",
"240 508 CURVE SMOOTH",
"160 508 OFFCURVE",
"77 411 OFFCURVE",
"39 266 CURVE SMOOTH",
"25 214 OFFCURVE",
"19 166 OFFCURVE",
"19 124 CURVE SMOOTH",
"19 44 OFFCURVE",
"47 -8 OFFCURVE",
"100 -8 CURVE SMOOTH"
);
}
);
width = 300;
}
);
leftKerningGroup = o;
leftMetricsKey = o;
rightKerningGroup = c;
unicode = 0063;
},
{
glyphname = d;
lastChange = "2025-04-05 11:24:18 +0000";
layers = (
{
background = {
hints = (
{
scale = "{1, -1}";
type = Corner;
name = _corner.leftSerif.001;
options = 1;
},
{
scale = "{1, -1}";
type = Corner;
name = _corner.leftSerif.001;
options = 1;
},
{
scale = "{1, -1}";
type = Corner;
name = _corner.leftSerif.001;
options = 1;
},
{
scale = "{1, -1}";
type = Corner;
name = _corner.leftSerif.001;
options = 1;
},
{
scale = "{1, -1}";
type = Corner;
name = _corner.leftSerif.001;
options = 1;
},
{
scale = "{1, -1}";
type = Corner;
name = _corner.leftSerif.001;
options = 1;
},
{
scale = "{1, -1}";
type = Corner;
name = _corner.leftSerif.001;
options = 1;
},
{
scale = "{1, -1}";
type = Corner;
name = _corner.leftSerif.001;
options = 1;
},
{
scale = "{1, -1}";
type = Corner;
name = _corner.leftSerif.001;
options = 1;
},
{
scale = "{1, -1}";
type = Corner;
name = _corner.leftSerif.001;
options = 1;
},
{
scale = "{1, -1}";
type = Corner;
name = _corner.leftSerif.001;
options = 1;
},
{
scale = "{1, -1}";
type = Corner;
name = _corner.leftSerif.001;
options = 1;
},
{
scale = "{1, -1}";
type = Corner;
name = _corner.leftSerif.001;
options = 1;
},
{
scale = "{1, -1}";
type = Corner;
name = _corner.leftSerif.001;
options = 1;
},
{
scale = "{1, -1}";
type = Corner;
name = _corner.leftSerif.001;
options = 1;
},
{
scale = "{1, -1}";
type = Corner;
name = _corner.leftSerif.001;
options = 1;
},
{
scale = "{1, -1}";
type = Corner;
name = _corner.leftSerif.001;
options = 1;
},
{
scale = "{1, -1}";
type = Corner;
name = _corner.leftSerif.001;
options = 1;
}
);
paths = (
{
closed = 1;
nodes = (
"108 -8 OFFCURVE",
"176 77 OFFCURVE",
"282 353 CURVE",
"270 337 LINE",
"195 72 LINE SMOOTH",
"177 8 OFFCURVE",
"189 -6 OFFCURVE",
"207 -6 CURVE SMOOTH",
"235 -6 OFFCURVE",
"273 48 OFFCURVE",
"321 140 CURVE",
"315 140 LINE",
"283 85 OFFCURVE",
"260 51 OFFCURVE",
"235 23 CURVE SMOOTH",
"228 15 OFFCURVE",
"225 13 OFFCURVE",
"227 21 CURVE SMOOTH",
"429 725 LINE",
"428 725 LINE",
"394 695 OFFCURVE",
"351 679 OFFCURVE",
"298 675 CURVE",
"297 672 LINE",
"357 670 OFFCURVE",
"358 651 OFFCURVE",
"348 610 CURVE SMOOTH",
"298 434 LINE",
"304 434 LINE",
"300 482 OFFCURVE",
"278 507 OFFCURVE",
"247 507 CURVE SMOOTH",
"108 507 OFFCURVE",
"13 244 OFFCURVE",
"13 97 CURVE SMOOTH",
"13 33 OFFCURVE",
"31 -8 OFFCURVE",
"64 -8 CURVE SMOOTH"
);
},
{
closed = 1;
nodes = (
"59 7 OFFCURVE",
"52 24 OFFCURVE",
"52 53 CURVE SMOOTH",
"52 165 OFFCURVE",
"135 496 OFFCURVE",
"247 496 CURVE SMOOTH",
"275 496 OFFCURVE",
"293 469 OFFCURVE",
"295 416 CURVE",
"203 159 OFFCURVE",
"108 7 OFFCURVE",
"72 7 CURVE SMOOTH"
);
}
);
};
layerId = "800CF2A0-134E-4EC9-907D-CE3650520B0A";
paths = (
{
closed = 1;
nodes = (
"108 -8 OFFCURVE",
"176 77 OFFCURVE",
"282 353 CURVE",
"270 337 LINE",
"195 72 LINE SMOOTH",
"177 8 OFFCURVE",
"189 -6 OFFCURVE",
"207 -6 CURVE SMOOTH",
"235 -6 OFFCURVE",
"273 48 OFFCURVE",
"321 140 CURVE",
"315 140 LINE",
"283 85 OFFCURVE",
"260 51 OFFCURVE",
"235 23 CURVE SMOOTH",
"228 15 OFFCURVE",
"225 13 OFFCURVE",
"227 21 CURVE SMOOTH",
"429 725 LINE",
"428 725 LINE",
"394 695 OFFCURVE",
"351 679 OFFCURVE",
"298 675 CURVE",
"297 672 LINE",
"357 670 OFFCURVE",
"358 651 OFFCURVE",
"348 610 CURVE SMOOTH",
"298 434 LINE",
"304 434 LINE",
"300 482 OFFCURVE",
"278 507 OFFCURVE",
"247 507 CURVE SMOOTH",
"108 507 OFFCURVE",
"13 244 OFFCURVE",
"13 97 CURVE SMOOTH",
"13 33 OFFCURVE",
"31 -8 OFFCURVE",
"64 -8 CURVE SMOOTH"
);
},
{
closed = 1;
nodes = (
"59 7 OFFCURVE",
"52 24 OFFCURVE",
"52 53 CURVE SMOOTH",
"52 165 OFFCURVE",
"135 496 OFFCURVE",
"247 496 CURVE SMOOTH",
"275 496 OFFCURVE",
"293 469 OFFCURVE",
"295 416 CURVE",
"203 159 OFFCURVE",
"108 7 OFFCURVE",
"72 7 CURVE SMOOTH"
);
}
);
width = 364;
}
);
leftKerningGroup = d;
rightKerningGroup = u;
unicode = 0064;
},
{
glyphname = e;
lastChange = "2025-04-05 11:24:18 +0000";
layers = (
{
anchors = (
{
name = bottom;
position = "{84, 0}";
},
{
name = ogonek;
position = "{234, 10}";
},
{
name = top;
position = "{238, 500}";
}
);
background = {
anchors = (
{
name = bottom;
position = "{84, 0}";
},
{
name = ogonek;
position = "{234, 10}";
},
{
name = top;
position = "{238, 500}";
}
);
paths = (
{
closed = 1;
nodes = (
"143 -8 OFFCURVE",
"194 33 OFFCURVE",
"254 168 CURVE",
"247 168 LINE",
"181 34 OFFCURVE",
"132 14 OFFCURVE",
"111 14 CURVE SMOOTH",
"84 14 OFFCURVE",
"64 48 OFFCURVE",
"64 112 CURVE SMOOTH",
"64 153 OFFCURVE",
"71 202 OFFCURVE",
"88 262 CURVE SMOOTH",
"122 384 OFFCURVE",
"183 497 OFFCURVE",
"243 497 CURVE SMOOTH",
"260 497 OFFCURVE",
"273 484 OFFCURVE",
"273 458 CURVE SMOOTH",
"273 402 OFFCURVE",
"238 326 OFFCURVE",
"83 305 CURVE",
"83 294 LINE",
"241 314 OFFCURVE",
"316 385 OFFCURVE",
"316 450 CURVE SMOOTH",
"316 487 OFFCURVE",
"291 508 OFFCURVE",
"254 508 CURVE SMOOTH",
"171 508 OFFCURVE",
"77 406 OFFCURVE",
"33 248 CURVE SMOOTH",
"20 202 OFFCURVE",
"15 159 OFFCURVE",
"15 123 CURVE SMOOTH",
"15 43 OFFCURVE",
"44 -8 OFFCURVE",
"97 -8 CURVE SMOOTH"
);
}
);
};
layerId = "800CF2A0-134E-4EC9-907D-CE3650520B0A";
paths = (
{
closed = 1;
nodes = (
"143 -8 OFFCURVE",
"194 33 OFFCURVE",
"254 168 CURVE",
"247 168 LINE",
"181 34 OFFCURVE",
"132 14 OFFCURVE",
"111 14 CURVE SMOOTH",
"84 14 OFFCURVE",
"64 48 OFFCURVE",
"64 112 CURVE SMOOTH",
"64 153 OFFCURVE",
"71 202 OFFCURVE",
"88 262 CURVE SMOOTH",
"122 384 OFFCURVE",
"183 497 OFFCURVE",
"243 497 CURVE SMOOTH",
"260 497 OFFCURVE",
"273 484 OFFCURVE",
"273 458 CURVE SMOOTH",
"273 402 OFFCURVE",
"238 326 OFFCURVE",
"83 305 CURVE",
"83 294 LINE",
"241 314 OFFCURVE",
"316 385 OFFCURVE",
"316 450 CURVE SMOOTH",
"316 487 OFFCURVE",
"291 508 OFFCURVE",
"254 508 CURVE SMOOTH",
"171 508 OFFCURVE",
"77 406 OFFCURVE",
"33 248 CURVE SMOOTH",
"20 202 OFFCURVE",
"15 159 OFFCURVE",
"15 123 CURVE SMOOTH",
"15 43 OFFCURVE",
"44 -8 OFFCURVE",
"97 -8 CURVE SMOOTH"
);
}
);
width = 297;
}
);
leftKerningGroup = o;
leftMetricsKey = o;
rightKerningGroup = e;
unicode = 0065;
},
{
glyphname = f;
lastChange = "2025-04-05 11:24:18 +0000";
layers = (
{
background = {
hints = (
{
type = Corner;
name = _corner.leftSerif.001;
},
{
scale = "{1, -1}";
type = Corner;
name = _corner.leftSerif.001;
options = 1;
},
{
scale = "{1, -1}";
type = Corner;
name = _corner.leftSerif.001;
options = 1;
},
{
type = Corner;
name = _corner.leftSerif.001;
},
{
scale = "{1, -1}";
type = Corner;
name = _corner.leftSerif.001;
options = 1;
},
{
type = Corner;
name = _corner.leftSerif.001;
},
{
scale = "{1, -1}";
type = Corner;
name = _corner.leftSerif.001;
options = 1;
},
{
type = Corner;
name = _corner.leftSerif.001;
},
{
scale = "{1, -1}";
type = Corner;
name = _corner.leftSerif.001;
options = 1;
},
{
type = Corner;
name = _corner.leftSerif.001;
},
{
scale = "{1, -1}";
type = Corner;
name = _corner.leftSerif.001;
options = 1;
},
{
type = Corner;
name = _corner.leftSerif.001;
},
{
scale = "{1, -1}";
type = Corner;
name = _corner.leftSerif.001;
options = 1;
},
{
type = Corner;
name = _corner.leftSerif.001;
},
{
scale = "{1, -1}";
type = Corner;
name = _corner.leftSerif.001;
options = 1;
},
{
type = Corner;
name = _corner.leftSerif.001;
},
{
scale = "{1, -1}";
type = Corner;
name = _corner.leftSerif.001;
options = 1;
},
{
type = Corner;
name = _corner.leftSerif.001;
},
{
scale = "{1, -1}";
type = Corner;
name = _corner.leftSerif.001;
options = 1;
},
{
type = Corner;
name = _corner.leftSerif.001;
},
{
scale = "{1, -1}";
type = Corner;
name = _corner.leftSerif.001;
options = 1;
},
{
type = Corner;
name = _corner.leftSerif.001;
},
{
scale = "{1, -1}";
type = Corner;
name = _corner.leftSerif.001;
options = 1;
},
{
type = Corner;
name = _corner.leftSerif.001;
},
{
scale = "{1, -1}";
type = Corner;
name = _corner.leftSerif.001;
options = 1;
},
{
type = Corner;
name = _corner.leftSerif.001;
},
{
scale = "{1, -1}";
type = Corner;
name = _corner.leftSerif.001;
options = 1;
},
{
type = Corner;
name = _corner.leftSerif.001;
},
{
scale = "{1, -1}";
type = Corner;
name = _corner.leftSerif.001;
options = 1;
},
{
type = Corner;
name = _corner.leftSerif.001;
},
{
scale = "{1, -1}";
type = Corner;
name = _corner.leftSerif.001;
options = 1;
},
{
type = Corner;
name = _corner.leftSerif.001;
},
{
scale = "{1, -1}";
type = Corner;
name = _corner.leftSerif.001;
options = 1;
},
{
type = Corner;
name = _corner.leftSerif.001;
},
{
scale = "{1, -1}";
type = Corner;
name = _corner.leftSerif.001;
options = 1;
},
{
type = Corner;
name = _corner.leftSerif.001;
},
{
scale = "{1, -1}";
type = Corner;
name = _corner.leftSerif.001;
options = 1;
},
{
type = Corner;
name = _corner.leftSerif.001;
},
{
type = Corner;
name = _corner.leftSerif.001;
},
{
scale = "{1, -1}";
type = Corner;
name = _corner.leftSerif.001;
options = 1;
},
{
type = Corner;
name = _corner.leftSerif.001;
},
{
scale = "{1, -1}";
type = Corner;
name = _corner.leftSerif.001;
options = 1;
},
{
type = Corner;
name = _corner.leftSerif.001;
},
{
scale = "{1, -1}";
type = Corner;
name = _corner.leftSerif.001;
options = 1;
},
{
type = Corner;
name = _corner.leftSerif.001;
},
{
scale = "{1, -1}";
type = Corner;
name = _corner.leftSerif.001;
options = 1;
},
{
type = Corner;
name = _corner.leftSerif.001;
},
{
scale = "{1, -1}";
type = Corner;
name = _corner.leftSerif.001;
options = 1;
},
{
type = Corner;
name = _corner.leftSerif.001;
},
{
scale = "{1, -1}";
type = Corner;
name = _corner.leftSerif.001;
options = 1;
},
{
type = Corner;
name = _corner.leftSerif.001;
},
{
scale = "{1, -1}";
type = Corner;
name = _corner.leftSerif.001;
options = 1;
},
{
type = Corner;
name = _corner.leftSerif.001;
},
{
scale = "{1, -1}";
type = Corner;
name = _corner.leftSerif.001;
options = 1;
},
{
type = Corner;
name = _corner.leftSerif.001;
},
{
scale = "{1, -1}";
type = Corner;
name = _corner.leftSerif.001;
options = 1;
},
{
type = Corner;
name = _corner.leftSerif.001;
},
{
scale = "{1, -1}";
type = Corner;
name = _corner.leftSerif.001;
options = 1;
},
{
type = Corner;
name = _corner.leftSerif.001;
},
{
scale = "{1, -1}";
type = Corner;
name = _corner.leftSerif.001;
options = 1;
},
{
type = Corner;
name = _corner.leftSerif.001;
},
{
scale = "{1, -1}";
type = Corner;
name = _corner.leftSerif.001;
options = 1;
},
{
type = Corner;
name = _corner.leftSerif.001;
},
{
scale = "{1, -1}";
type = Corner;
name = _corner.leftSerif.001;
options = 1;
},
{
type = Corner;
name = _corner.leftSerif.001;
},
{
scale = "{1, -1}";
type = Corner;
name = _corner.leftSerif.001;
options = 1;
},
{
type = Corner;
name = _corner.leftSerif.001;
},
{
scale = "{1, -1}";
type = Corner;
name = _corner.leftSerif.001;
options = 1;
},
{
type = Corner;
name = _corner.rightSerif.001;
},
{
scale = "{1, -1}";
type = Corner;
name = _corner.rightSerif.001;
options = 1;
},
{
type = Corner;
name = _corner.leftSerif.001;
},
{
scale = "{1, -1}";
type = Corner;
name = _corner.leftSerif.001;
options = 1;
},
{
type = Corner;
name = _corner.leftSerif.001;
},
{
scale = "{1, -1}";
type = Corner;
name = _corner.leftSerif.001;
options = 1;
},
{
type = Corner;
name = _corner.leftSerif.001;
},
{
scale = "{1, -1}";
type = Corner;
name = _corner.leftSerif.001;
options = 1;
},
{
type = Corner;
name = _corner.leftSerif.001;
},
{
scale = "{1, -1}";
type = Corner;
name = _corner.leftSerif.001;
options = 1;
},
{
type = Corner;
name = _corner.leftSerif.001;
},
{
scale = "{1, -1}";
type = Corner;
name = _corner.leftSerif.001;
options = 1;
},
{
type = Corner;
name = _corner.leftSerif.001;
},
{
type = Corner;
name = _corner.leftSerif.001;
},
{
type = Corner;
name = _corner.leftSerif.001;
},
{
type = Corner;
name = _corner.leftSerif.001;
},
{
type = Corner;
name = _corner.leftSerif.001;
},
{
type = Corner;
name = _corner.leftSerif.001;
}
);
paths = (
{
closed = 1;
nodes = (
"-4 -124 OFFCURVE",
"47 -46 OFFCURVE",
"72 40 CURVE SMOOTH",
"201 489 LINE",
"301 489 LINE",
"304 500 LINE",
"204 500 LINE",
"237 613 LINE SMOOTH",
"257 684 OFFCURVE",
"277 719 OFFCURVE",
"306 719 CURVE SMOOTH",
"334 719 OFFCURVE",
"347 688 OFFCURVE",
"359 602 CURVE",
"362 602 LINE",
"369 713 LINE",
"355 721 OFFCURVE",
"331 729 OFFCURVE",
"311 729 CURVE SMOOTH",
"251 729 OFFCURVE",
"207 675 OFFCURVE",
"174 560 CURVE SMOOTH",
"156 500 LINE",
"82 500 LINE",
"79 489 LINE",
"153 489 LINE",
"28 51 LINE SMOOTH",
"-1 -50 OFFCURVE",
"-36 -130 OFFCURVE",
"-84 -187 CURVE",
"-80 -190 LINE"
);
}
);
};
layerId = "800CF2A0-134E-4EC9-907D-CE3650520B0A";
paths = (
{
closed = 1;
nodes = (
"-4 -124 OFFCURVE",
"47 -46 OFFCURVE",
"72 40 CURVE SMOOTH",
"201 489 LINE",
"301 489 LINE",
"304 500 LINE",
"204 500 LINE",
"237 613 LINE SMOOTH",
"257 684 OFFCURVE",
"277 719 OFFCURVE",
"306 719 CURVE SMOOTH",
"334 719 OFFCURVE",
"347 688 OFFCURVE",
"359 602 CURVE",
"362 602 LINE",
"369 713 LINE",
"355 721 OFFCURVE",
"331 729 OFFCURVE",
"311 729 CURVE SMOOTH",
"251 729 OFFCURVE",
"207 675 OFFCURVE",
"174 560 CURVE SMOOTH",
"156 500 LINE",
"82 500 LINE",
"79 489 LINE",
"153 489 LINE",
"28 51 LINE SMOOTH",
"-1 -50 OFFCURVE",
"-36 -130 OFFCURVE",
"-84 -187 CURVE",
"-80 -190 LINE"
);
}
);
width = 256;
}
);
leftKerningGroup = f;
rightKerningGroup = f;
unicode = 0066;
},
{
glyphname = g;
lastChange = "2025-04-05 11:24:18 +0000";
layers = (
{
background = {
paths = (
{
closed = 1;
nodes = (
"173 -194 OFFCURVE",
"262 -92 OFFCURVE",
"262 -2 CURVE SMOOTH",
"262 49 OFFCURVE",
"233 92 OFFCURVE",
"171 92 CURVE SMOOTH",
"138 92 OFFCURVE",
"85 81 OFFCURVE",
"61 81 CURVE SMOOTH",
"39 81 OFFCURVE",
"26 91 OFFCURVE",
"26 114 CURVE SMOOTH",
"26 155 OFFCURVE",
"70 190 OFFCURVE",
"112 199 CURVE",
"110 208 LINE",
"44 191 OFFCURVE",
"1 144 OFFCURVE",
"1 93 CURVE SMOOTH",
"1 59 OFFCURVE",
"22 36 OFFCURVE",
"53 36 CURVE SMOOTH",
"76 36 OFFCURVE",
"130 47 OFFCURVE",
"157 47 CURVE SMOOTH",
"200 47 OFFCURVE",
"225 20 OFFCURVE",
"225 -26 CURVE SMOOTH",
"225 -105 OFFCURVE",
"147 -182 OFFCURVE",
"70 -182 CURVE SMOOTH",
"19 -182 OFFCURVE",
"-8 -145 OFFCURVE",
"-8 -95 CURVE SMOOTH",
"-8 -47 OFFCURVE",
"17 17 OFFCURVE",
"78 38 CURVE",
"81 45 LINE",
"-5 21 OFFCURVE",
"-50 -36 OFFCURVE",
"-50 -98 CURVE SMOOTH",
"-50 -156 OFFCURVE",
"-11 -194 OFFCURVE",
"59 -194 CURVE SMOOTH"
);
},
{
closed = 1;
nodes = (
"222 186 OFFCURVE",
"290 254 OFFCURVE",
"315 347 CURVE SMOOTH",
"320 366 OFFCURVE",
"322 384 OFFCURVE",
"322 400 CURVE SMOOTH",
"322 463 OFFCURVE",
"289 508 OFFCURVE",
"238 508 CURVE SMOOTH",
"171 508 OFFCURVE",
"104 442 OFFCURVE",
"79 347 CURVE SMOOTH",
"74 329 OFFCURVE",
"72 312 OFFCURVE",
"72 295 CURVE SMOOTH",
"72 234 OFFCURVE",
"103 186 OFFCURVE",
"156 186 CURVE SMOOTH"
);
},
{
closed = 1;
nodes = (
"130 197 OFFCURVE",
"113 223 OFFCURVE",
"113 269 CURVE SMOOTH",
"113 291 OFFCURVE",
"117 319 OFFCURVE",
"126 349 CURVE SMOOTH",
"151 437 OFFCURVE",
"195 497 OFFCURVE",
"238 497 CURVE SMOOTH",
"264 497 OFFCURVE",
"280 469 OFFCURVE",
"280 424 CURVE SMOOTH",
"280 402 OFFCURVE",
"276 375 OFFCURVE",
"268 346 CURVE SMOOTH",
"244 258 OFFCURVE",
"201 197 OFFCURVE",
"156 197 CURVE SMOOTH"
);
},
{
closed = 1;
nodes = (
"313 530 OFFCURVE",
"357 567 OFFCURVE",
"409 643 CURVE",
"374 669 LINE",
"331 580 OFFCURVE",
"293 537 OFFCURVE",
"246 508 CURVE",
"244 500 LINE"
);
}
);
};
layerId = "800CF2A0-134E-4EC9-907D-CE3650520B0A";
paths = (
{
closed = 1;
nodes = (
"173 -194 OFFCURVE",
"262 -92 OFFCURVE",
"262 -2 CURVE SMOOTH",
"262 49 OFFCURVE",
"233 92 OFFCURVE",
"171 92 CURVE SMOOTH",
"138 92 OFFCURVE",
"85 81 OFFCURVE",
"61 81 CURVE SMOOTH",
"39 81 OFFCURVE",
"26 91 OFFCURVE",
"26 114 CURVE SMOOTH",
"26 155 OFFCURVE",
"70 190 OFFCURVE",
"112 199 CURVE",
"110 208 LINE",
"44 191 OFFCURVE",
"1 144 OFFCURVE",
"1 93 CURVE SMOOTH",
"1 59 OFFCURVE",
"22 36 OFFCURVE",
"53 36 CURVE SMOOTH",
"76 36 OFFCURVE",
"130 47 OFFCURVE",
"157 47 CURVE SMOOTH",
"200 47 OFFCURVE",
"225 20 OFFCURVE",
"225 -26 CURVE SMOOTH",
"225 -105 OFFCURVE",
"147 -182 OFFCURVE",
"70 -182 CURVE SMOOTH",
"19 -182 OFFCURVE",
"-8 -145 OFFCURVE",
"-8 -95 CURVE SMOOTH",
"-8 -47 OFFCURVE",
"17 17 OFFCURVE",
"78 38 CURVE",
"81 45 LINE",
"-5 21 OFFCURVE",
"-50 -36 OFFCURVE",
"-50 -98 CURVE SMOOTH",
"-50 -156 OFFCURVE",
"-11 -194 OFFCURVE",
"59 -194 CURVE SMOOTH"
);
},
{
closed = 1;
nodes = (
"222 186 OFFCURVE",
"290 254 OFFCURVE",
"315 347 CURVE SMOOTH",
"320 366 OFFCURVE",
"322 384 OFFCURVE",
"322 400 CURVE SMOOTH",
"322 463 OFFCURVE",
"289 508 OFFCURVE",
"238 508 CURVE SMOOTH",
"171 508 OFFCURVE",
"104 442 OFFCURVE",
"79 347 CURVE SMOOTH",
"74 329 OFFCURVE",
"72 312 OFFCURVE",
"72 295 CURVE SMOOTH",
"72 234 OFFCURVE",
"103 186 OFFCURVE",
"156 186 CURVE SMOOTH"
);
},
{
closed = 1;
nodes = (
"130 197 OFFCURVE",
"113 223 OFFCURVE",
"113 269 CURVE SMOOTH",
"113 291 OFFCURVE",
"117 319 OFFCURVE",
"126 349 CURVE SMOOTH",
"151 437 OFFCURVE",
"195 497 OFFCURVE",
"238 497 CURVE SMOOTH",
"264 497 OFFCURVE",
"280 469 OFFCURVE",
"280 424 CURVE SMOOTH",
"280 402 OFFCURVE",
"276 375 OFFCURVE",
"268 346 CURVE SMOOTH",
"244 258 OFFCURVE",
"201 197 OFFCURVE",
"156 197 CURVE SMOOTH"
);
},
{
closed = 1;
nodes = (
"313 530 OFFCURVE",
"357 567 OFFCURVE",
"409 643 CURVE",
"374 669 LINE",
"331 580 OFFCURVE",
"293 537 OFFCURVE",
"246 508 CURVE",
"244 500 LINE"
);
}
);
width = 336;
}
);
unicode = 0067;
},
{
glyphname = h;
lastChange = "2025-04-05 11:24:18 +0000";
layers = (
{
anchors = (
{
name = bottom;
position = "{120, 0}";
},
{
name = center;
position = "{208, 640}";
},
{
name = top;
position = "{320, 700}";
}
);
background = {
anchors = (
{
name = bottom;
position = "{120, 0}";
},
{
name = center;
position = "{208, 640}";
},
{
name = top;
position = "{320, 700}";
}
);
hints = (
{
scale = "{1, -1}";
type = Corner;
name = _corner.leftSerif.001;
options = 1;
},
{
type = Corner;
name = _corner.rightSerif.001;
},
{
scale = "{1, -1}";
type = Corner;
name = _corner.rightSerif.001;
options = 1;
},
{
type = Corner;
name = _corner.leftSerif.001;
},
{
scale = "{1, -1}";
type = Corner;
name = _corner.leftSerif.001;
options = 1;
},
{
type = Corner;
name = _corner.rightSerif.001;
},
{
scale = "{1, -1}";
type = Corner;
name = _corner.rightSerif.001;
options = 1;
},
{
type = Corner;
name = _corner.leftSerif.001;
},
{
scale = "{1, -1}";
type = Corner;
name = _corner.leftSerif.001;
options = 1;
},
{
type = Corner;
name = _corner.rightSerif.001;
},
{
scale = "{1, -1}";
type = Corner;
name = _corner.rightSerif.001;
options = 1;
},
{
type = Corner;
name = _corner.leftSerif.001;
},
{
scale = "{1, -1}";
type = Corner;
name = _corner.leftSerif.001;
options = 1;
},
{
type = Corner;
name = _corner.rightSerif.001;
},
{
scale = "{1, -1}";
type = Corner;
name = _corner.rightSerif.001;
options = 1;
},
{
type = Corner;
name = _corner.leftSerif.001;
},
{
scale = "{1, -1}";
type = Corner;
name = _corner.leftSerif.001;
options = 1;
},
{
type = Corner;
name = _corner.rightSerif.001;
},
{
scale = "{1, -1}";
type = Corner;
name = _corner.rightSerif.001;
options = 1;
},
{
type = Corner;
name = _corner.leftSerif.001;
},
{
scale = "{1, -1}";
type = Corner;
name = _corner.leftSerif.001;
options = 1;
},
{
type = Corner;
name = _corner.rightSerif.001;
},
{
scale = "{1, -1}";
type = Corner;
name = _corner.rightSerif.001;
options = 1;
},
{
type = Corner;
name = _corner.leftSerif.001;
},
{
scale = "{1, -1}";
type = Corner;
name = _corner.leftSerif.001;
options = 1;
},
{
type = Corner;
name = _corner.rightSerif.001;
},
{
scale = "{1, -1}";
type = Corner;
name = _corner.rightSerif.001;
options = 1;
},
{
type = Corner;
name = _corner.leftSerif.001;
},
{
scale = "{1, -1}";
type = Corner;
name = _corner.leftSerif.001;
options = 1;
},
{
type = Corner;
name = _corner.rightSerif.001;
},
{
scale = "{1, -1}";
type = Corner;
name = _corner.rightSerif.001;
options = 1;
},
{
type = Corner;
name = _corner.leftSerif.001;
}
);
paths = (
{
closed = 1;
nodes = (
"252 -6 OFFCURVE",
"288 45 OFFCURVE",
"338 140 CURVE",
"332 140 LINE",
"300 85 OFFCURVE",
"276 51 OFFCURVE",
"251 22 CURVE SMOOTH",
"244 14 OFFCURVE",
"242 14 OFFCURVE",
"244 21 CURVE SMOOTH",
"361 395 LINE SMOOTH",
"380 457 OFFCURVE",
"364 504 OFFCURVE",
"324 504 CURVE SMOOTH",
"270 504 OFFCURVE",
"185 421 OFFCURVE",
"76 135 CURVE",
"85 135 LINE",
"201 425 OFFCURVE",
"282 486 OFFCURVE",
"311 486 CURVE SMOOTH",
"331 486 OFFCURVE",
"332 458 OFFCURVE",
"316 405 CURVE SMOOTH",
"213 72 LINE SMOOTH",
"194 11 OFFCURVE",
"206 -6 OFFCURVE",
"223 -6 CURVE SMOOTH"
);
},
{
closed = 1;
nodes = (
"46 0 LINE",
"254 725 LINE",
"251 725 LINE",
"217 695 OFFCURVE",
"176 678 OFFCURVE",
"123 675 CURVE",
"122 672 LINE",
"176 670 OFFCURVE",
"186 656 OFFCURVE",
"173 610 CURVE SMOOTH",
"-2 0 LINE"
);
}
);
};
layerId = "800CF2A0-134E-4EC9-907D-CE3650520B0A";
paths = (
{
closed = 1;
nodes = (
"252 -6 OFFCURVE",
"288 45 OFFCURVE",
"338 140 CURVE",
"332 140 LINE",
"300 85 OFFCURVE",
"276 51 OFFCURVE",
"251 22 CURVE SMOOTH",
"244 14 OFFCURVE",
"242 14 OFFCURVE",
"244 21 CURVE SMOOTH",
"361 395 LINE SMOOTH",
"380 457 OFFCURVE",
"364 504 OFFCURVE",
"324 504 CURVE SMOOTH",
"270 504 OFFCURVE",
"185 421 OFFCURVE",
"76 135 CURVE",
"85 135 LINE",
"201 425 OFFCURVE",
"282 486 OFFCURVE",
"311 486 CURVE SMOOTH",
"331 486 OFFCURVE",
"332 458 OFFCURVE",
"316 405 CURVE SMOOTH",
"213 72 LINE SMOOTH",
"194 11 OFFCURVE",
"206 -6 OFFCURVE",
"223 -6 CURVE SMOOTH"
);
},
{
closed = 1;
nodes = (
"46 0 LINE",
"254 725 LINE",
"251 725 LINE",
"217 695 OFFCURVE",
"176 678 OFFCURVE",
"123 675 CURVE",
"122 672 LINE",
"176 670 OFFCURVE",
"186 656 OFFCURVE",
"173 610 CURVE SMOOTH",
"-2 0 LINE"
);
}
);
width = 383;
}
);
leftKerningGroup = h;
rightKerningGroup = n;
rightMetricsKey = n;
unicode = 0068;
},
{
glyphname = i;
lastChange = "2025-04-05 11:24:18 +0000";
layers = (
{
anchors = (
{
name = bottom;
position = "{35, 0}";
},
{
name = ogonek;
position = "{50, 0}";
}
);
background = {
anchors = (
{
name = bottom;
position = "{35, 0}";
},
{
name = ogonek;
position = "{50, 0}";
}
);
hints = (
{
scale = "{1, -1}";
type = Corner;
name = _corner.rightSerif.001;
options = 1;
},
{
type = Corner;
name = _corner.leftSerif.001;
},
{
scale = "{1, -1}";
type = Corner;
name = _corner.rightSerif.001;
options = 1;
},
{
type = Corner;
name = _corner.leftSerif.001;
},
{
scale = "{1, -1}";
type = Corner;
name = _corner.rightSerif.001;
options = 1;
},
{
type = Corner;
name = _corner.leftSerif.001;
},
{
scale = "{1, -1}";
type = Corner;
name = _corner.rightSerif.001;
options = 1;
},
{
type = Corner;
name = _corner.leftSerif.001;
},
{
scale = "{1, -1}";
type = Corner;
name = _corner.rightSerif.001;
options = 1;
},
{
type = Corner;
name = _corner.leftSerif.001;
},
{
scale = "{1, -1}";
type = Corner;
name = _corner.rightSerif.001;
options = 1;
},
{
type = Corner;
name = _corner.leftSerif.001;
},
{
scale = "{1, -1}";
type = Corner;
name = _corner.rightSerif.001;
options = 1;
},
{
type = Corner;
name = _corner.leftSerif.001;
}
);
paths = (
{
closed = 1;
nodes = (
"61 -6 OFFCURVE",
"99 48 OFFCURVE",
"147 140 CURVE",
"141 140 LINE",
"111 86 OFFCURVE",
"86 51 OFFCURVE",
"61 22 CURVE SMOOTH",
"54 14 OFFCURVE",
"51 14 OFFCURVE",
"53 21 CURVE SMOOTH",
"193 507 LINE",
"190 507 LINE",
"158 487 OFFCURVE",
"117 479 OFFCURVE",
"65 477 CURVE",
"64 474 LINE",
"116 470 OFFCURVE",
"130 453 OFFCURVE",
"113 395 CURVE SMOOTH",
"21 72 LINE SMOOTH",
"3 8 OFFCURVE",
"15 -6 OFFCURVE",
"33 -6 CURVE SMOOTH"
);
},
{
closed = 1;
nodes = (
"220 596 OFFCURVE",
"239 626 OFFCURVE",
"239 651 CURVE SMOOTH",
"239 668 OFFCURVE",
"229 678 OFFCURVE",
"214 678 CURVE SMOOTH",
"189 678 OFFCURVE",
"170 648 OFFCURVE",
"170 623 CURVE SMOOTH",
"170 606 OFFCURVE",
"180 596 OFFCURVE",
"195 596 CURVE SMOOTH"
);
}
);
};
layerId = "800CF2A0-134E-4EC9-907D-CE3650520B0A";
paths = (
{
closed = 1;
nodes = (
"61 -6 OFFCURVE",
"99 48 OFFCURVE",
"147 140 CURVE",
"141 140 LINE",
"111 86 OFFCURVE",
"86 51 OFFCURVE",
"61 22 CURVE SMOOTH",
"54 14 OFFCURVE",
"51 14 OFFCURVE",
"53 21 CURVE SMOOTH",
"193 507 LINE",
"190 507 LINE",
"158 487 OFFCURVE",
"117 479 OFFCURVE",
"65 477 CURVE",
"64 474 LINE",
"116 470 OFFCURVE",
"130 453 OFFCURVE",
"113 395 CURVE SMOOTH",
"21 72 LINE SMOOTH",
"3 8 OFFCURVE",
"15 -6 OFFCURVE",
"33 -6 CURVE SMOOTH"
);
},
{
closed = 1;
nodes = (
"220 596 OFFCURVE",
"239 626 OFFCURVE",
"239 651 CURVE SMOOTH",
"239 668 OFFCURVE",
"229 678 OFFCURVE",
"214 678 CURVE SMOOTH",
"189 678 OFFCURVE",
"170 648 OFFCURVE",
"170 623 CURVE SMOOTH",
"170 606 OFFCURVE",
"180 596 OFFCURVE",
"195 596 CURVE SMOOTH"
);
}
);
width = 194;
}
);
leftKerningGroup = i;
leftMetricsKey = n;
rightKerningGroup = i;
unicode = 0069;
},
{
glyphname = j;
lastChange = "2025-04-05 11:24:18 +0000";
layers = (
{
background = {
paths = (
{
closed = 1;
nodes = (
"-15 -120 OFFCURVE",
"41 -53 OFFCURVE",
"67 40 CURVE SMOOTH",
"201 507 LINE",
"198 507 LINE",
"166 487 OFFCURVE",
"125 479 OFFCURVE",
"73 477 CURVE",
"72 474 LINE",
"124 470 OFFCURVE",
"138 453 OFFCURVE",
"121 395 CURVE SMOOTH",
"23 51 LINE SMOOTH",
"-12 -71 OFFCURVE",
"-45 -120 OFFCURVE",
"-129 -184 CURVE",
"-125 -190 LINE"
);
},
{
closed = 1;
nodes = (
"228 596 OFFCURVE",
"247 626 OFFCURVE",
"247 651 CURVE SMOOTH",
"247 668 OFFCURVE",
"237 678 OFFCURVE",
"222 678 CURVE SMOOTH",
"197 678 OFFCURVE",
"178 648 OFFCURVE",
"178 623 CURVE SMOOTH",
"178 606 OFFCURVE",
"188 596 OFFCURVE",
"203 596 CURVE SMOOTH"
);
}
);
};
layerId = "800CF2A0-134E-4EC9-907D-CE3650520B0A";
paths = (
{
closed = 1;
nodes = (
"-15 -120 OFFCURVE",
"41 -53 OFFCURVE",
"67 40 CURVE SMOOTH",
"201 507 LINE",
"198 507 LINE",
"166 487 OFFCURVE",
"125 479 OFFCURVE",
"73 477 CURVE",
"72 474 LINE",
"124 470 OFFCURVE",
"138 453 OFFCURVE",
"121 395 CURVE SMOOTH",
"23 51 LINE SMOOTH",
"-12 -71 OFFCURVE",
"-45 -120 OFFCURVE",
"-129 -184 CURVE",
"-125 -190 LINE"
);
},
{
closed = 1;
nodes = (
"228 596 OFFCURVE",
"247 626 OFFCURVE",
"247 651 CURVE SMOOTH",
"247 668 OFFCURVE",
"237 678 OFFCURVE",
"222 678 CURVE SMOOTH",
"197 678 OFFCURVE",
"178 648 OFFCURVE",
"178 623 CURVE SMOOTH",
"178 606 OFFCURVE",
"188 596 OFFCURVE",
"203 596 CURVE SMOOTH"
);
}
);
width = 192;
}
);
leftKerningGroup = i;
rightKerningGroup = i;
unicode = 006A;
},
{
glyphname = k;
lastChange = "2025-04-05 11:24:18 +0000";
layers = (
{
anchors = (
{
name = bottom;
position = "{128, 0}";
},
{
name = top;
position = "{338, 800}";
}
);
background = {
anchors = (
{
name = bottom;
position = "{128, 0}";
},
{
name = top;
position = "{338, 800}";
}
);
hints = (
{
scale = "{1, -1}";
type = Corner;
name = _corner.rightSerif.001;
options = 1;
},
{
type = Corner;
name = _corner.leftSerif.001;
},
{
scale = "{1, -1}";
type = Corner;
name = _corner.rightSerif.001;
options = 1;
},
{
type = Corner;
name = _corner.leftSerif.001;
},
{
scale = "{1, -1}";
type = Corner;
name = _corner.rightSerif.001;
options = 1;
},
{
type = Corner;
name = _corner.leftSerif.001;
},
{
scale = "{1, -1}";
type = Corner;
name = _corner.rightSerif.001;
options = 1;
},
{
type = Corner;
name = _corner.leftSerif.001;
},
{
scale = "{1, -1}";
type = Corner;
name = _corner.rightSerif.001;
options = 1;
},
{
type = Corner;
name = _corner.leftSerif.001;
},
{
scale = "{1, -1}";
type = Corner;
name = _corner.rightSerif.001;
options = 1;
},
{
type = Corner;
name = _corner.leftSerif.001;
},
{
scale = "{1, -1}";
type = Corner;
name = _corner.rightSerif.001;
options = 1;
},
{
type = Corner;
name = _corner.leftSerif.001;
},
{
scale = "{1, -1}";
type = Corner;
name = _corner.rightSerif.001;
options = 1;
},
{
type = Corner;
name = _corner.leftSerif.001;
},
{
scale = "{1, -1}";
type = Corner;
name = _corner.rightSerif.001;
options = 1;
},
{
type = Corner;
name = _corner.leftSerif.001;
},
{
scale = "{1, -1}";
type = Corner;
name = _corner.rightSerif.001;
options = 1;
},
{
type = Corner;
name = _corner.leftSerif.001;
},
{
scale = "{1, -1}";
type = Corner;
name = _corner.rightSerif.001;
options = 1;
},
{
type = Corner;
name = _corner.leftSerif.001;
},
{
scale = "{1, -1}";
type = Corner;
name = _corner.rightSerif.001;
options = 1;
},
{
type = Corner;
name = _corner.leftSerif.001;
},
{
scale = "{1, -1}";
type = Corner;
name = _corner.rightSerif.001;
options = 1;
},
{
type = Corner;
name = _corner.leftSerif.001;
},
{
scale = "{1, -1}";
type = Corner;
name = _corner.rightSerif.001;
options = 1;
},
{
type = Corner;
name = _corner.leftSerif.001;
},
{
scale = "{1, -1}";
type = Corner;
name = _corner.rightSerif.001;
options = 1;
},
{
type = Corner;
name = _corner.leftSerif.001;
},
{
scale = "{1, -1}";
type = Corner;
name = _corner.rightSerif.001;
options = 1;
},
{
type = Corner;
name = _corner.leftSerif.001;
},
{
scale = "{1, -1}";
type = Corner;
name = _corner.rightSerif.001;
options = 1;
},
{
type = Corner;
name = _corner.leftSerif.001;
},
{
scale = "{1, -1}";
type = Corner;
name = _corner.rightSerif.001;
options = 1;
},
{
type = Corner;
name = _corner.leftSerif.001;
},
{
scale = "{1, -1}";
type = Corner;
name = _corner.rightSerif.001;
options = 1;
},
{
type = Corner;
name = _corner.leftSerif.001;
},
{
scale = "{1, -1}";
type = Corner;
name = _corner.rightSerif.001;
options = 1;
},
{
type = Corner;
name = _corner.leftSerif.001;
},
{
scale = "{1, -1}";
type = Corner;
name = _corner.rightSerif.001;
options = 1;
},
{
type = Corner;
name = _corner.leftSerif.001;
},
{
scale = "{1, -1}";
type = Corner;
name = _corner.rightSerif.001;
options = 1;
},
{
type = Corner;
name = _corner.leftSerif.001;
},
{
scale = "{1, -1}";
type = Corner;
name = _corner.rightSerif.001;
options = 1;
},
{
type = Corner;
name = _corner.leftSerif.001;
},
{
type = Corner;
name = _corner.leftSerif.001;
},
{
scale = "{1, -1}";
type = Corner;
name = _corner.rightSerif.001;
options = 1;
},
{
type = Corner;
name = _corner.leftSerif.001;
},
{
scale = "{1, -1}";
type = Corner;
name = _corner.rightSerif.001;
options = 1;
},
{
scale = "{1, -1}";
type = Corner;
name = _corner.rightSerif.001;
options = 1;
},
{
type = Corner;
name = _corner.leftSerif.001;
},
{
scale = "{1, -1}";
type = Corner;
name = _corner.rightSerif.001;
options = 1;
},
{
type = Corner;
name = _corner.leftSerif.001;
},
{
scale = "{1, -1}";
type = Corner;
name = _corner.rightSerif.001;
options = 1;
},
{
type = Corner;
name = _corner.leftSerif.001;
},
{
type = Corner;
name = _corner.leftSerif.001;
},
{
scale = "{1, -1}";
type = Corner;
name = _corner.rightSerif.001;
options = 1;
},
{
type = Corner;
name = _corner.leftSerif.001;
},
{
scale = "{1, -1}";
type = Corner;
name = _corner.rightSerif.001;
options = 1;
},
{
type = Corner;
name = _corner.leftSerif.001;
},
{
scale = "{1, -1}";
type = Corner;
name = _corner.rightSerif.001;
options = 1;
},
{
type = Corner;
name = _corner.leftSerif.001;
},
{
scale = "{1, -1}";
type = Corner;
name = _corner.rightSerif.001;
options = 1;
},
{
scale = "{1, -1}";
type = Corner;
name = _corner.rightSerif.001;
options = 1;
},
{
type = Corner;
name = _corner.leftSerif.001;
},
{
scale = "{1, -1}";
type = Corner;
name = _corner.rightSerif.001;
options = 1;
},
{
type = Corner;
name = _corner.leftSerif.001;
},
{
scale = "{1, -1}";
type = Corner;
name = _corner.rightSerif.001;
options = 1;
},
{
type = Corner;
name = _corner.leftSerif.001;
},
{
scale = "{1, -1}";
type = Corner;
name = _corner.rightSerif.001;
options = 1;
},
{
type = Corner;
name = _corner.leftSerif.001;
},
{
scale = "{1, -1}";
type = Corner;
name = _corner.rightSerif.001;
options = 1;
},
{
type = Corner;
name = _corner.leftSerif.001;
},
{
scale = "{1, -1}";
type = Corner;
name = _corner.rightSerif.001;
options = 1;
},
{
type = Corner;
name = _corner.leftSerif.001;
},
{
scale = "{1, -1}";
type = Corner;
name = _corner.rightSerif.001;
options = 1;
},
{
type = Corner;
name = _corner.leftSerif.001;
},
{
scale = "{1, -1}";
type = Corner;
name = _corner.rightSerif.001;
options = 1;
},
{
type = Corner;
name = _corner.leftSerif.001;
},
{
scale = "{1, -1}";
type = Corner;
name = _corner.rightSerif.001;
options = 1;
},
{
type = Corner;
name = _corner.leftSerif.001;
},
{
scale = "{1, -1}";
type = Corner;
name = _corner.rightSerif.001;
options = 1;
},
{
type = Corner;
name = _corner.leftSerif.001;
},
{
scale = "{1, -1}";
type = Corner;
name = _corner.rightSerif.001;
options = 1;
},
{
type = Corner;
name = _corner.leftSerif.001;
},
{
scale = "{1, -1}";
type = Corner;
name = _corner.rightSerif.001;
options = 1;
},
{
type = Corner;
name = _corner.leftSerif.001;
},
{
scale = "{1, -1}";
type = Corner;
name = _corner.rightSerif.001;
options = 1;
},
{
type = Corner;
name = _corner.leftSerif.001;
},
{
scale = "{1, -1}";
type = Corner;
name = _corner.rightSerif.001;
options = 1;
},
{
type = Corner;
name = _corner.leftSerif.001;
},
{
scale = "{1, -1}";
type = Corner;
name = _corner.rightSerif.001;
options = 1;
},
{
type = Corner;
name = _corner.leftSerif.001;
},
{
scale = "{1, -1}";
type = Corner;
name = _corner.rightSerif.001;
options = 1;
},
{
type = Corner;
name = _corner.leftSerif.001;
},
{
scale = "{1, -1}";
type = Corner;
name = _corner.rightSerif.001;
options = 1;
},
{
type = Corner;
name = _corner.leftSerif.001;
},
{
scale = "{1, -1}";
type = Corner;
name = _corner.rightSerif.001;
options = 1;
},
{
type = Corner;
name = _corner.leftSerif.001;
},
{
scale = "{1, -1}";
type = Corner;
name = _corner.rightSerif.001;
options = 1;
},
{
type = Corner;
name = _corner.leftSerif.001;
},
{
scale = "{1, -1}";
type = Corner;
name = _corner.rightSerif.001;
options = 1;
},
{
type = Corner;
name = _corner.leftSerif.001;
},
{
scale = "{1, -1}";
type = Corner;
name = _corner.rightSerif.001;
options = 1;
},
{
type = Corner;
name = _corner.leftSerif.001;
},
{
scale = "{1, -1}";
type = Corner;
name = _corner.rightSerif.001;
options = 1;
},
{
type = Corner;
name = _corner.leftSerif.001;
},
{
scale = "{1, -1}";
type = Corner;
name = _corner.rightSerif.001;
options = 1;
},
{
type = Corner;
name = _corner.leftSerif.001;
},
{
scale = "{1, -1}";
type = Corner;
name = _corner.rightSerif.001;
options = 1;
},
{
type = Corner;
name = _corner.leftSerif.001;
},
{
scale = "{1, -1}";
type = Corner;
name = _corner.rightSerif.001;
options = 1;
},
{
type = Corner;
name = _corner.leftSerif.001;
},
{
scale = "{1, -1}";
type = Corner;
name = _corner.rightSerif.001;
options = 1;
},
{
type = Corner;
name = _corner.leftSerif.001;
},
{
scale = "{1, -1}";
type = Corner;
name = _corner.rightSerif.001;
options = 1;
},
{
type = Corner;
name = _corner.leftSerif.001;
},
{
scale = "{1, -1}";
type = Corner;
name = _corner.rightSerif.001;
options = 1;
},
{
type = Corner;
name = _corner.leftSerif.001;
},
{
scale = "{1, -1}";
type = Corner;
name = _corner.rightSerif.001;
options = 1;
},
{
type = Corner;
name = _corner.leftSerif.001;
},
{
scale = "{1, -1}";
type = Corner;
name = _corner.rightSerif.001;
options = 1;
},
{
type = Corner;
name = _corner.leftSerif.001;
}
);
paths = (
{
closed = 1;
nodes = (
"46 0 LINE",
"254 725 LINE",
"251 725 LINE",
"217 695 OFFCURVE",
"176 678 OFFCURVE",
"123 675 CURVE",
"122 672 LINE",
"176 670 OFFCURVE",
"186 656 OFFCURVE",
"173 610 CURVE SMOOTH",
"-2 0 LINE"
);
},
{
closed = 1;
nodes = (
"240 -6 OFFCURVE",
"278 47 OFFCURVE",
"325 137 CURVE",
"318 137 LINE",
"290 87 OFFCURVE",
"268 55 OFFCURVE",
"244 27 CURVE SMOOTH",
"241 23 OFFCURVE",
"240 23 OFFCURVE",
"239 29 CURVE SMOOTH",
"192 320 LINE",
"154 276 LINE",
"190 51 LINE SMOOTH",
"196 14 OFFCURVE",
"200 -6 OFFCURVE",
"213 -6 CURVE SMOOTH"
);
},
{
closed = 1;
nodes = (
"215 329 LINE SMOOTH",
"263 377 OFFCURVE",
"307 418 OFFCURVE",
"376 478 CURVE",
"347 508 LINE",
"297 452 OFFCURVE",
"262 409 OFFCURVE",
"204 344 CURVE SMOOTH",
"65 186 LINE",
"63 176 LINE"
);
}
);
};
layerId = "800CF2A0-134E-4EC9-907D-CE3650520B0A";
paths = (
{
closed = 1;
nodes = (
"46 0 LINE",
"254 725 LINE",
"251 725 LINE",
"217 695 OFFCURVE",
"176 678 OFFCURVE",
"123 675 CURVE",
"122 672 LINE",
"176 670 OFFCURVE",
"186 656 OFFCURVE",
"173 610 CURVE SMOOTH",
"-2 0 LINE"
);
},
{
closed = 1;
nodes = (
"240 -6 OFFCURVE",
"278 47 OFFCURVE",
"325 137 CURVE",
"318 137 LINE",
"290 87 OFFCURVE",
"268 55 OFFCURVE",
"244 27 CURVE SMOOTH",
"241 23 OFFCURVE",
"240 23 OFFCURVE",
"239 29 CURVE SMOOTH",
"192 320 LINE",
"154 276 LINE",
"190 51 LINE SMOOTH",
"196 14 OFFCURVE",
"200 -6 OFFCURVE",
"213 -6 CURVE SMOOTH"
);
},
{
closed = 1;
nodes = (
"215 329 LINE SMOOTH",
"263 377 OFFCURVE",
"307 418 OFFCURVE",
"376 478 CURVE",
"347 508 LINE",
"297 452 OFFCURVE",
"262 409 OFFCURVE",
"204 344 CURVE SMOOTH",
"65 186 LINE",
"63 176 LINE"
);
}
);
width = 359;
}
);
leftKerningGroup = h;
leftMetricsKey = h;
unicode = 006B;
},
